<svg width="180" height="87" viewBox="0 0 180 87" fill="none" xmlns="http://www.w3.org/2000/svg">
<g clip-path="url(#clip0)" filter="url(#filter0_d)">
<path d="M40.4763 77.604C36.358 74.932 33.3637 70.1289 33.9765 65.2732C37.6848 69.1064 42.6354 71.5102 47.9524 72.0593C50.0037 72.2637 52.3067 72.2783 53.7634 73.7307C54.6699 74.6343 55.055 75.9551 55.0748 77.232C55.0946 78.509 54.7864 79.7659 54.4803 81.0062L54.5555 81.316C49.6433 81.1353 44.5946 80.276 40.4763 77.604Z" fill="#F0F0F0"/>
<path d="M34.0797 65.2721C35.6203 69.0214 38.3082 72.192 41.7617 74.3337C42.497 74.8079 43.3027 75.1638 44.1493 75.3882C44.981 75.5803 45.8492 75.5471 46.6637 75.2921C47.428 75.0695 48.1838 74.7538 48.9891 74.72C49.4016 74.7089 49.8117 74.7846 50.1927 74.9423C50.5737 75.1001 50.9169 75.3362 51.1998 75.6352C51.9242 76.3621 52.343 77.3047 52.7205 78.2407C53.1395 79.28 53.5583 80.366 54.4117 81.1358C54.5151 81.229 54.3637 81.3833 54.2605 81.2902C52.7756 79.951 52.6122 77.8024 51.445 76.2488C50.9003 75.5238 50.133 74.9578 49.1949 74.9339C48.3745 74.913 47.5948 75.2379 46.8229 75.47C46.032 75.7303 45.1891 75.7939 44.3678 75.6551C43.5125 75.4744 42.6944 75.15 41.9484 74.6959C40.2526 73.7004 38.7245 72.4455 37.4202 70.9774C35.9222 69.31 34.7218 67.3998 33.8708 65.3295C33.8182 65.2013 34.0275 65.1448 34.0797 65.2721H34.0797Z" fill="white"/>
<path d="M40.609 73.7093C40.1694 74.2374 39.5556 74.5927 38.8771 74.7118C38.1987 74.8309 37.4998 74.7061 36.9053 74.3595C36.7853 74.289 36.8897 74.1 37.0099 74.1706C37.5629 74.4943 38.2139 74.6105 38.8455 74.4983C39.477 74.3861 40.0474 74.0529 40.4538 73.5587C40.5423 73.4514 40.6969 73.6026 40.609 73.7093V73.7093Z" fill="white"/>
<path d="M46.2911 75.4558C46.1723 74.0587 45.529 72.7575 44.4894 71.8117C44.3863 71.7181 44.5377 71.5637 44.6406 71.6573C45.7206 72.6435 46.3873 73.9989 46.5077 75.453C46.5191 75.5916 46.3024 75.5936 46.2911 75.4558V75.4558Z" fill="white"/>
<path d="M36.1947 69.2198C36.4076 69.0507 36.5749 68.8317 36.6817 68.5823C36.7885 68.333 36.8315 68.0611 36.8067 67.7912C36.7935 67.6528 37.0103 67.6509 37.0233 67.7884C37.0493 68.0868 37.0015 68.387 36.8841 68.6627C36.7667 68.9385 36.5833 69.1814 36.3498 69.3703C36.3293 69.39 36.3021 69.4011 36.2736 69.4015C36.2452 69.4018 36.2177 69.3914 36.1967 69.3723C36.1762 69.3522 36.1646 69.325 36.1642 69.2964C36.1638 69.2678 36.1748 69.2403 36.1947 69.2198V69.2198Z" fill="white"/>
<path d="M48.0243 56.3872C48.035 56.4734 48.0456 56.5596 48.0579 56.6466C48.2074 57.8046 48.4512 58.9485 48.7868 60.0671C48.8113 60.154 48.8375 60.2417 48.8645 60.3277C49.7019 63.0141 51.0329 65.5224 52.7899 67.7251C53.4899 68.6009 54.2558 69.4225 55.0809 70.1827C56.2206 71.2324 57.5402 72.2803 58.2442 73.6046C58.3192 73.742 58.3856 73.8838 58.443 74.0293L54.9295 81.2006C54.9133 81.2129 54.8986 81.2261 54.8824 81.2385L54.7553 81.5312C54.71 81.495 54.6638 81.4564 54.6184 81.4202C54.5921 81.3992 54.5665 81.3767 54.5401 81.3558C54.5228 81.3414 54.5055 81.3268 54.489 81.3148C54.4832 81.31 54.4775 81.3051 54.4733 81.3011C54.4569 81.2891 54.4428 81.2761 54.428 81.2649C54.1691 81.05 53.9113 80.833 53.6545 80.6138C53.6529 80.613 53.6529 80.613 53.652 80.6106C51.6999 78.9353 49.8711 77.0831 48.3829 75.0134C48.3381 74.9511 48.2917 74.8881 48.2485 74.8226C47.5829 73.8859 46.9952 72.8967 46.4915 71.8648C46.2174 71.2988 45.9724 70.7194 45.7572 70.1288C45.2041 68.6017 44.8958 66.9974 44.8435 65.3749C44.7397 62.1404 45.676 58.9089 47.856 56.5647C47.9118 56.5048 47.9668 56.4464 48.0243 56.3872Z" fill="#F0F0F0"/>
<path d="M48.1078 56.4477C47.0706 60.3647 47.2993 64.5075 48.7616 68.2877C49.0619 69.107 49.4901 69.8742 50.0303 70.5608C50.5782 71.2127 51.2915 71.7066 52.0961 71.9913C52.8409 72.2717 53.6353 72.4726 54.2987 72.9284C54.6348 73.1667 54.9165 73.4731 55.1253 73.8274C55.3341 74.1817 55.4653 74.5759 55.5104 74.9843C55.6492 75.9988 55.4136 77.0025 55.1489 77.9761C54.855 79.0571 54.5326 80.1753 54.7486 81.3014C54.7747 81.4379 54.5605 81.4703 54.5344 81.3341C54.1587 79.3747 55.3275 77.5612 55.3351 75.6211C55.3387 74.7158 55.0682 73.8039 54.3336 73.2225C53.6913 72.714 52.8722 72.5061 52.1156 72.2287C51.3267 71.9625 50.6152 71.508 50.0434 70.9049C49.4698 70.2479 49.0127 69.4985 48.6916 68.6888C47.9396 66.8774 47.4784 64.9595 47.3248 63.0054C47.1371 60.7762 47.3338 58.5315 47.9063 56.3683C47.9418 56.2344 48.1431 56.3147 48.1078 56.4477V56.4477Z" fill="white"/>
<path d="M48.2188 67.0981C47.5485 67.2563 46.8435 67.1721 46.2298 66.8605C45.6161 66.5489 45.1336 66.0303 44.8684 65.3973C44.8152 65.269 45.013 65.1806 45.0662 65.3091C45.312 65.899 45.7615 66.3821 46.3336 66.6711C46.9057 66.96 47.5627 67.0359 48.186 66.8849C48.3215 66.8522 48.3535 67.0657 48.2188 67.0981V67.0981Z" fill="white"/>
<path d="M51.6997 71.8986C52.4497 70.7119 52.7229 69.2874 52.4648 67.9091C52.4392 67.7726 52.6533 67.7401 52.679 67.8764C52.9449 69.3112 52.6575 70.7931 51.8743 72.0263C51.7996 72.1438 51.6254 72.0154 51.6997 71.8986Z" fill="white"/>
<path d="M47.4093 60.8675C47.6815 60.8602 47.9475 60.7856 48.1836 60.6505C48.4197 60.5154 48.6184 60.3241 48.7618 60.0937C48.835 59.9753 49.0091 60.1038 48.9364 60.2214C48.7768 60.4752 48.5571 60.6862 48.2966 60.8361C48.0361 60.9859 47.7427 61.0699 47.4421 61.0808C47.4138 61.0842 47.3854 61.0767 47.3624 61.0599C47.3395 61.0432 47.3238 61.0183 47.3186 60.9905C47.3144 60.9622 47.3216 60.9335 47.3386 60.9104C47.3555 60.8874 47.381 60.872 47.4093 60.8675H47.4093Z" fill="white"/>
<path d="M166.156 77.604C170.274 74.932 173.269 70.1289 172.656 65.2732C168.947 69.1064 163.997 71.5102 158.68 72.0593C156.629 72.2637 154.326 72.2783 152.869 73.7307C151.962 74.6343 151.577 75.9551 151.557 77.232C151.538 78.509 151.846 79.7659 152.152 81.0062L152.077 81.316C156.989 81.1353 162.038 80.276 166.156 77.604Z" fill="#F0F0F0"/>
<path d="M172.553 65.2721C171.012 69.0214 168.324 72.192 164.871 74.3337C164.135 74.8079 163.33 75.1638 162.483 75.3882C161.651 75.5803 160.783 75.5471 159.969 75.2921C159.204 75.0695 158.449 74.7538 157.643 74.72C157.231 74.7089 156.821 74.7846 156.44 74.9423C156.059 75.1001 155.715 75.3362 155.433 75.6352C154.708 76.3621 154.289 77.3047 153.912 78.2407C153.493 79.28 153.074 80.366 152.221 81.1358C152.117 81.229 152.269 81.3833 152.372 81.2902C153.857 79.951 154.02 77.8024 155.187 76.2488C155.732 75.5238 156.499 74.9578 157.438 74.9339C158.258 74.913 159.038 75.2379 159.809 75.47C160.6 75.7303 161.443 75.7939 162.265 75.6551C163.12 75.4744 163.938 75.15 164.684 74.6959C166.38 73.7004 167.908 72.4455 169.212 70.9774C170.71 69.31 171.911 67.3998 172.762 65.3295C172.814 65.2013 172.605 65.1448 172.553 65.2721H172.553Z" fill="white"/>
<path d="M166.023 73.7093C166.463 74.2374 167.077 74.5927 167.755 74.7118C168.434 74.8309 169.133 74.7061 169.727 74.3595C169.847 74.289 169.743 74.1 169.622 74.1706C169.069 74.4943 168.418 74.6105 167.787 74.4983C167.155 74.3861 166.585 74.0529 166.178 73.5587C166.09 73.4514 165.935 73.6026 166.023 73.7093V73.7093Z" fill="white"/>
<path d="M160.341 75.4558C160.46 74.0587 161.103 72.7575 162.143 71.8117C162.246 71.7181 162.095 71.5637 161.992 71.6573C160.912 72.6435 160.245 73.9989 160.125 75.453C160.113 75.5916 160.33 75.5936 160.341 75.4558V75.4558Z" fill="white"/>
<path d="M170.438 69.2198C170.225 69.0507 170.058 68.8317 169.951 68.5823C169.844 68.333 169.801 68.0611 169.826 67.7912C169.839 67.6528 169.622 67.6509 169.609 67.7884C169.583 68.0868 169.631 68.387 169.748 68.6627C169.866 68.9385 170.049 69.1814 170.283 69.3703C170.303 69.39 170.33 69.4011 170.359 69.4015C170.387 69.4018 170.415 69.3914 170.436 69.3723C170.456 69.3522 170.468 69.325 170.468 69.2964C170.469 69.2678 170.458 69.2403 170.438 69.2198V69.2198Z" fill="white"/>
<path d="M158.608 56.3872C158.597 56.4734 158.587 56.5596 158.574 56.6466C158.425 57.8046 158.181 58.9485 157.845 60.0671C157.821 60.154 157.795 60.2417 157.768 60.3277C156.93 63.0141 155.599 65.5224 153.842 67.7251C153.142 68.6009 152.376 69.4225 151.551 70.1827C150.412 71.2324 149.092 72.2803 148.388 73.6046C148.313 73.742 148.247 73.8838 148.189 74.0293L151.703 81.2006C151.719 81.2129 151.734 81.2261 151.75 81.2385L151.877 81.5312C151.922 81.4949 151.968 81.4564 152.014 81.4201C152.04 81.3992 152.066 81.3767 152.092 81.3558C152.109 81.3414 152.127 81.3268 152.143 81.3148C152.149 81.31 152.155 81.3051 152.159 81.3011C152.175 81.289 152.189 81.2761 152.204 81.2649C152.463 81.05 152.721 80.833 152.978 80.6138C152.979 80.613 152.979 80.613 152.98 80.6106C154.932 78.9353 156.761 77.0831 158.249 75.0134C158.294 74.9511 158.341 74.8881 158.384 74.8225C159.049 73.8859 159.637 72.8967 160.141 71.8647C160.415 71.2988 160.66 70.7194 160.875 70.1288C161.428 68.6017 161.736 66.9974 161.789 65.3749C161.893 62.1404 160.956 58.9088 158.776 56.5647C158.72 56.5048 158.665 56.4464 158.608 56.3872Z" fill="#F0F0F0"/>
<path d="M158.524 56.4477C159.562 60.3647 159.333 64.5075 157.871 68.2877C157.57 69.107 157.142 69.8742 156.602 70.5608C156.054 71.2127 155.341 71.7066 154.536 71.9913C153.791 72.2717 152.997 72.4726 152.334 72.9284C151.998 73.1667 151.716 73.4731 151.507 73.8274C151.298 74.1817 151.167 74.5759 151.122 74.9843C150.983 75.9988 151.219 77.0025 151.483 77.9761C151.777 79.0571 152.1 80.1753 151.884 81.3014C151.858 81.4379 152.072 81.4703 152.098 81.3341C152.474 79.3747 151.305 77.5612 151.297 75.6211C151.294 74.7158 151.564 73.8039 152.299 73.2225C152.941 72.714 153.76 72.5061 154.517 72.2287C155.306 71.9625 156.017 71.508 156.589 70.9049C157.163 70.2479 157.62 69.4985 157.941 68.6888C158.693 66.8774 159.154 64.9595 159.307 63.0054C159.495 60.7762 159.299 58.5315 158.726 56.3683C158.69 56.2344 158.489 56.3147 158.524 56.4477V56.4477Z" fill="white"/>
<path d="M158.414 67.0981C159.084 67.2563 159.789 67.172 160.403 66.8605C161.016 66.5489 161.499 66.0303 161.764 65.3973C161.817 65.269 161.619 65.1806 161.566 65.3091C161.32 65.899 160.871 66.3821 160.299 66.671C159.727 66.96 159.07 67.0358 158.446 66.8849C158.311 66.8522 158.279 67.0656 158.414 67.0981V67.0981Z" fill="white"/>
<path d="M154.933 71.8986C154.183 70.7119 153.91 69.2874 154.168 67.9091C154.193 67.7726 153.979 67.7401 153.954 67.8764C153.688 69.3112 153.975 70.7931 154.758 72.0263C154.833 72.1438 155.007 72.0154 154.933 71.8986V71.8986Z" fill="white"/>
<path d="M159.223 60.8675C158.951 60.8602 158.685 60.7856 158.449 60.6505C158.213 60.5154 158.014 60.3241 157.871 60.0937C157.797 59.9753 157.623 60.1038 157.696 60.2214C157.856 60.4752 158.075 60.6862 158.336 60.8361C158.596 60.9859 158.89 61.0699 159.19 61.0808C159.219 61.0842 159.247 61.0767 159.27 61.0599C159.293 61.0432 159.309 61.0183 159.314 60.9905C159.318 60.9622 159.311 60.9335 159.294 60.9104C159.277 60.8874 159.251 60.872 159.223 60.8675H159.223Z" fill="white"/>
<path d="M48.5876 54.0405C48.4318 53.9471 48.2984 53.8209 48.1969 53.6706C48.0954 53.5204 48.0282 53.3498 48.0001 53.171C47.9719 52.9921 47.9835 52.8092 48.0341 52.6353C48.0846 52.4614 48.1728 52.3006 48.2925 52.1643L46.1018 48.3415L48.3942 48.489L50.123 52.0965C50.3397 52.3119 50.4696 52.5989 50.4879 52.9032C50.5062 53.2075 50.4118 53.5079 50.2226 53.7475C50.0333 53.9871 49.7623 54.1493 49.461 54.2033C49.1596 54.2573 48.8489 54.1993 48.5876 54.0405Z" fill="#FFB6B6"/>
<path d="M31.7238 80.1005H33.2405L33.962 74.2764L31.7236 74.2766L31.7238 80.1005Z" fill="#FFB6B6"/>
<path d="M31.3371 79.6076L34.3238 79.6075H34.324C34.8288 79.6075 35.3129 79.8072 35.6698 80.1626C36.0268 80.518 36.2273 80.9999 36.2274 81.5025V81.5641L31.3372 81.5643L31.3371 79.6076Z" fill="#2F2E41"/>
<path d="M42.1152 80.1005H43.6318L44.3533 74.2764L42.1149 74.2766L42.1152 80.1005Z" fill="#FFB6B6"/>
<path d="M41.7283 79.6076L44.7151 79.6075H44.7152C45.22 79.6075 45.7041 79.8072 46.0611 80.1626C46.418 80.518 46.6186 80.9999 46.6186 81.5025V81.5641L41.7284 81.5643L41.7283 79.6076Z" fill="#2F2E41"/>
<path d="M46.015 48.5058C46.015 48.5058 46.4322 54.4202 45.6106 57.3988C44.789 60.3775 44.6423 78.3906 44.6423 78.3906H41.8884L39.5015 53.8709L33.9988 78.477L31.3757 78.2974L32.8143 49.3025L46.015 48.5058Z" fill="#2F2E41"/>
<path d="M33.9523 28.5687L36.0576 27.0392L39.5853 27.8039L40.5402 30.063L42.1857 30.8752C42.7267 31.1423 43.1946 31.5362 43.549 32.023C43.9034 32.5098 44.1337 33.075 44.2203 33.6701L46.571 49.8319L32.8143 49.3025L31.1488 30.2687C31.1314 30.0699 31.1543 29.8696 31.216 29.6797C31.2777 29.4899 31.3771 29.3142 31.5082 29.1633C31.6393 29.0123 31.7995 28.889 31.9793 28.8008C32.1591 28.7126 32.3549 28.6611 32.555 28.6495L33.9523 28.5687Z" fill="#3F3D56"/>
<path d="M43.0562 32.1377L44.3268 33.8429L49.8609 50.6477L47.2668 51.6817L43.1131 43.8511L43.0562 32.1377Z" fill="#3F3D56"/>
<path d="M38.4505 26.2406C40.1474 26.2406 41.5231 24.871 41.5231 23.1815C41.5231 21.492 40.1474 20.1224 38.4505 20.1224C36.7535 20.1224 35.3779 21.492 35.3779 23.1815C35.3779 24.871 36.7535 26.2406 38.4505 26.2406Z" fill="#FFB9B9"/>
<path opacity="0.1" d="M31.7522 35.7673L36.7662 42.7104L42.3709 46.3491L31.7522 35.7673Z" fill="black"/>
<path d="M36.8221 25.393C36.6084 24.9682 36.3885 24.5057 36.4702 24.0376C36.5519 23.5695 37.0915 23.1616 37.5079 23.3937C37.6807 22.772 38.4456 22.4999 39.0894 22.5717C39.7333 22.6434 40.3261 22.9526 40.9601 23.0854C41.5942 23.2181 42.3641 23.1128 42.7068 22.5654L41.8869 22.5513L42.7407 21.5653L41.751 21.4916C42.0938 21.1233 42.0027 20.4975 41.6709 20.1193C41.339 19.7412 40.8354 19.5622 40.344 19.4491C39.363 19.224 38.3461 19.2007 37.3558 19.3807C36.8888 19.4524 36.4389 19.6083 36.0282 19.8407C35.6414 20.0756 35.3218 20.4056 35.1001 20.799C34.8609 21.2428 34.7316 21.737 34.723 22.2406C34.7084 22.9152 34.8641 23.5826 35.1758 24.1817C35.4875 24.7808 35.9452 25.2925 36.5071 25.6698" fill="#2F2E41"/>
<path d="M151.224 81.6428H55.8709C54.889 81.6417 53.9475 81.2529 53.2532 80.5616C52.5588 79.8703 52.1682 78.933 52.1671 77.9554V6.68745C52.1682 5.7098 52.5588 4.77252 53.2532 4.08123C53.9475 3.38994 54.889 3.0011 55.8709 3H151.224C152.206 3.00111 153.147 3.38997 153.841 4.08126C154.536 4.77255 154.926 5.70982 154.927 6.68745V77.9554C154.926 78.933 154.536 79.8703 153.841 80.5615C153.147 81.2528 152.206 81.6417 151.224 81.6428V81.6428Z" fill="#E4E4E4"/>
<path d="M127.225 35.7223H112.506C111.779 35.7223 111.081 35.4346 110.567 34.9225C110.052 34.4104 109.763 33.7158 109.763 32.9916C109.763 32.2674 110.052 31.5729 110.567 31.0608C111.081 30.5487 111.779 30.261 112.506 30.261H127.225C127.953 30.261 128.65 30.5487 129.165 31.0608C129.679 31.5729 129.968 32.2674 129.968 32.9916C129.968 33.7158 129.679 34.4104 129.165 34.9225C128.65 35.4346 127.953 35.7223 127.225 35.7223Z" fill="white"/>
<path d="M114.334 43.1861H110.86C110.594 43.1861 110.338 43.0806 110.149 42.8928C109.961 42.7051 109.855 42.4504 109.855 42.1848C109.855 41.9193 109.961 41.6646 110.149 41.4769C110.338 41.2891 110.594 41.1836 110.86 41.1836H114.334C114.601 41.1836 114.857 41.2891 115.046 41.4769C115.234 41.6646 115.34 41.9193 115.34 42.1848C115.34 42.4504 115.234 42.7051 115.046 42.8928C114.857 43.0806 114.601 43.1861 114.334 43.1861V43.1861Z" fill="white"/>
<path d="M128.779 43.1861H125.305C125.039 43.1861 124.783 43.0806 124.594 42.8928C124.406 42.7051 124.3 42.4504 124.3 42.1848C124.3 41.9193 124.406 41.6646 124.594 41.4769C124.783 41.2891 125.039 41.1836 125.305 41.1836H128.779C129.046 41.1836 129.302 41.2891 129.491 41.4769C129.679 41.6646 129.785 41.9193 129.785 42.1848C129.785 42.4504 129.679 42.7051 129.491 42.8928C129.302 43.0806 129.046 43.1861 128.779 43.1861V43.1861Z" fill="white"/>
<path d="M121.466 43.1861H117.992C117.725 43.1861 117.469 43.0806 117.28 42.8928C117.092 42.7051 116.986 42.4504 116.986 42.1848C116.986 41.9193 117.092 41.6646 117.28 41.4769C117.469 41.2891 117.725 41.1836 117.992 41.1836H121.466C121.732 41.1836 121.988 41.2891 122.177 41.4769C122.365 41.6646 122.471 41.9193 122.471 42.1848C122.471 42.4504 122.365 42.7051 122.177 42.8928C121.988 43.0806 121.732 43.1861 121.466 43.1861V43.1861Z" fill="white"/>
<path d="M114.334 47.009H110.86C110.594 47.009 110.338 46.9035 110.149 46.7157C109.961 46.528 109.855 46.2733 109.855 46.0077C109.855 45.7422 109.961 45.4875 110.149 45.2998C110.338 45.112 110.594 45.0065 110.86 45.0065H114.334C114.601 45.0065 114.857 45.112 115.046 45.2998C115.234 45.4875 115.34 45.7422 115.34 46.0077C115.34 46.2733 115.234 46.528 115.046 46.7157C114.857 46.9035 114.601 47.009 114.334 47.009Z" fill="white"/>
<path d="M128.779 47.009H125.305C125.039 47.009 124.783 46.9035 124.594 46.7157C124.406 46.528 124.3 46.2733 124.3 46.0077C124.3 45.7422 124.406 45.4875 124.594 45.2998C124.783 45.112 125.039 45.0065 125.305 45.0065H128.779C129.046 45.0065 129.302 45.112 129.491 45.2998C129.679 45.4875 129.785 45.7422 129.785 46.0077C129.785 46.2733 129.679 46.528 129.491 46.7157C129.302 46.9035 129.046 47.009 128.779 47.009Z" fill="white"/>
<path d="M121.466 47.009H117.992C117.725 47.009 117.469 46.9035 117.28 46.7157C117.092 46.528 116.986 46.2733 116.986 46.0077C116.986 45.7422 117.092 45.4875 117.28 45.2998C117.469 45.112 117.725 45.0065 117.992 45.0065H121.466C121.732 45.0065 121.988 45.112 122.177 45.2998C122.365 45.4875 122.471 45.7422 122.471 46.0077C122.471 46.2733 122.365 46.528 122.177 46.7157C121.988 46.9035 121.732 47.009 121.466 47.009Z" fill="white"/>
<path d="M114.334 50.8319H110.86C110.594 50.8319 110.338 50.7264 110.149 50.5386C109.961 50.3509 109.855 50.0962 109.855 49.8306C109.855 49.5651 109.961 49.3104 110.149 49.1227C110.338 48.9349 110.594 48.8294 110.86 48.8294H114.334C114.601 48.8294 114.857 48.9349 115.046 49.1227C115.234 49.3104 115.34 49.5651 115.34 49.8306C115.34 50.0962 115.234 50.3509 115.046 50.5386C114.857 50.7264 114.601 50.8319 114.334 50.8319Z" fill="white"/>
<path d="M128.779 50.8319H125.305C125.039 50.8319 124.783 50.7264 124.594 50.5386C124.406 50.3509 124.3 50.0962 124.3 49.8306C124.3 49.5651 124.406 49.3104 124.594 49.1227C124.783 48.9349 125.039 48.8294 125.305 48.8294H128.779C129.046 48.8294 129.302 48.9349 129.491 49.1227C129.679 49.3104 129.785 49.5651 129.785 49.8306C129.785 50.0962 129.679 50.3509 129.491 50.5386C129.302 50.7264 129.046 50.8319 128.779 50.8319Z" fill="white"/>
<path d="M121.466 50.8319H117.992C117.725 50.8319 117.469 50.7264 117.28 50.5386C117.092 50.3509 116.986 50.0962 116.986 49.8306C116.986 49.5651 117.092 49.3104 117.28 49.1227C117.469 48.9349 117.725 48.8294 117.992 48.8294H121.466C121.732 48.8294 121.988 48.9349 122.177 49.1227C122.365 49.3104 122.471 49.5651 122.471 49.8306C122.471 50.0962 122.365 50.3509 122.177 50.5386C121.988 50.7264 121.732 50.8319 121.466 50.8319Z" fill="white"/>
<path d="M114.334 54.6548H110.86C110.594 54.6548 110.338 54.5493 110.149 54.3616C109.961 54.1738 109.855 53.9191 109.855 53.6536C109.855 53.388 109.961 53.1334 110.149 52.9456C110.338 52.7578 110.594 52.6523 110.86 52.6523H114.334C114.601 52.6523 114.857 52.7578 115.046 52.9456C115.234 53.1334 115.34 53.388 115.34 53.6536C115.34 53.9191 115.234 54.1738 115.046 54.3616C114.857 54.5493 114.601 54.6548 114.334 54.6548Z" fill="white"/>
<path d="M128.779 54.6548H125.305C125.039 54.6548 124.783 54.5493 124.594 54.3616C124.406 54.1738 124.3 53.9191 124.3 53.6536C124.3 53.388 124.406 53.1334 124.594 52.9456C124.783 52.7578 125.039 52.6523 125.305 52.6523H128.779C129.046 52.6523 129.302 52.7578 129.491 52.9456C129.679 53.1334 129.785 53.388 129.785 53.6536C129.785 53.9191 129.679 54.1738 129.491 54.3616C129.302 54.5493 129.046 54.6548 128.779 54.6548Z" fill="white"/>
<path d="M121.466 54.6548H117.992C117.725 54.6548 117.469 54.5493 117.28 54.3616C117.092 54.1738 116.986 53.9191 116.986 53.6536C116.986 53.388 117.092 53.1334 117.28 52.9456C117.469 52.7578 117.725 52.6523 117.992 52.6523H121.466C121.732 52.6523 121.988 52.7578 122.177 52.9456C122.365 53.1334 122.471 53.388 122.471 53.6536C122.471 53.9191 122.365 54.1738 122.177 54.3616C121.988 54.5493 121.732 54.6548 121.466 54.6548Z" fill="white"/>
<path d="M90.8387 50.6499C95.9888 50.6499 100.164 46.4932 100.164 41.3656C100.164 36.2381 95.9888 32.0814 90.8387 32.0814C85.6885 32.0814 81.5134 36.2381 81.5134 41.3656C81.5134 46.4932 85.6885 50.6499 90.8387 50.6499Z" fill="#CACACA"/>
<path d="M90.8385 52.7434C90.1114 52.7426 89.4142 52.4546 88.9001 51.9427C88.3859 51.4308 88.0966 50.7367 88.0958 50.0127V32.7186C88.0955 32.3598 88.1663 32.0045 88.304 31.6729C88.4417 31.3414 88.6436 31.0401 88.8984 30.7863C89.1531 30.5325 89.4555 30.3311 89.7884 30.1938C90.1213 30.0564 90.4782 29.9857 90.8385 29.9857C91.1989 29.9857 91.5557 30.0564 91.8886 30.1938C92.2215 30.3311 92.524 30.5325 92.7787 30.7863C93.0334 31.0401 93.2354 31.3414 93.3731 31.6729C93.5108 32.0045 93.5815 32.3598 93.5812 32.7186V50.0127C93.5804 50.7367 93.2912 51.4308 92.777 51.9427C92.2628 52.4546 91.5657 52.7426 90.8385 52.7434V52.7434Z" fill="white"/>
<path d="M115.201 34.5498H112.641C112.544 34.5498 112.451 34.5114 112.382 34.4431C112.314 34.3748 112.275 34.2822 112.275 34.1857C112.275 34.0891 112.314 33.9965 112.382 33.9282C112.451 33.8599 112.544 33.8216 112.641 33.8216H115.201C115.298 33.8216 115.391 33.8599 115.459 33.9282C115.528 33.9965 115.566 34.0891 115.566 34.1857C115.566 34.2822 115.528 34.3748 115.459 34.4431C115.391 34.5114 115.298 34.5498 115.201 34.5498Z" fill="#E4E4E4"/>
<path d="M119.223 34.6408H116.663C116.566 34.6408 116.473 34.6024 116.405 34.5341C116.336 34.4659 116.298 34.3732 116.298 34.2767C116.298 34.1801 116.336 34.0875 116.405 34.0192C116.473 33.951 116.566 33.9126 116.663 33.9126H119.223C119.32 33.9126 119.413 33.951 119.482 34.0192C119.55 34.0875 119.589 34.1801 119.589 34.2767C119.589 34.3732 119.55 34.4659 119.482 34.5341C119.413 34.6024 119.32 34.6408 119.223 34.6408Z" fill="#E4E4E4"/>
<path d="M123.246 34.7318H120.686C120.589 34.7318 120.496 34.6934 120.427 34.6251C120.359 34.5569 120.32 34.4643 120.32 34.3677C120.32 34.2711 120.359 34.1785 120.427 34.1103C120.496 34.042 120.589 34.0036 120.686 34.0036H123.246C123.343 34.0036 123.436 34.042 123.504 34.1103C123.573 34.1785 123.612 34.2711 123.612 34.3677C123.612 34.4643 123.573 34.5569 123.504 34.6251C123.436 34.6934 123.343 34.7318 123.246 34.7318Z" fill="#E4E4E4"/>
<path d="M127.268 34.8228H124.709C124.612 34.8228 124.519 34.7845 124.45 34.7162C124.381 34.6479 124.343 34.5553 124.343 34.4587C124.343 34.3622 124.381 34.2696 124.45 34.2013C124.519 34.133 124.612 34.0947 124.709 34.0947H127.268C127.365 34.0947 127.458 34.133 127.527 34.2013C127.596 34.2696 127.634 34.3622 127.634 34.4587C127.634 34.5553 127.596 34.6479 127.527 34.7162C127.458 34.7845 127.365 34.8228 127.268 34.8228Z" fill="#E4E4E4"/>
<path d="M64.3258 70.4014C64.3256 70.8522 64.4154 71.2985 64.5899 71.7145C64.7644 72.1304 65.0202 72.5077 65.3424 72.8244H63.832C63.3863 72.8244 62.945 72.737 62.5333 72.5672C62.1216 72.3974 61.7475 72.1486 61.4324 71.8348C61.1173 71.5211 60.8673 71.1487 60.6968 70.7388C60.5263 70.3289 60.4385 69.8895 60.4385 69.4458V14.6722C60.4385 14.2286 60.5263 13.7892 60.6968 13.3793C60.8673 12.9694 61.1173 12.597 61.4324 12.2832C61.7475 11.9695 62.1216 11.7207 62.5333 11.5509C62.945 11.3811 63.3863 11.2937 63.832 11.2937H66.03C65.5116 11.5938 65.0814 12.0242 64.7823 12.5417C64.4833 13.0592 64.3259 13.6458 64.3258 14.2428L64.3258 70.4014Z" fill="#CACACA"/>
<path d="M175.782 82H4.21776C4.16012 81.9998 4.10491 81.9769 4.06422 81.9363C4.02352 81.8956 4.00067 81.8406 4.00067 81.7832C4.00067 81.7259 4.02352 81.6708 4.06422 81.6302C4.10491 81.5896 4.16012 81.5667 4.21776 81.5665H175.782C175.84 81.5665 175.895 81.5893 175.936 81.63C175.977 81.6706 176 81.7258 176 81.7832C176 81.8407 175.977 81.8958 175.936 81.9365C175.895 81.9771 175.84 82 175.782 82Z" fill="#CACACA"/>
<path d="M63.96 27.2989C62.8045 26.9767 61.6446 26.6782 60.4805 26.4033C56.4996 25.4572 52.4638 24.7568 48.3962 24.3062C47.7067 24.1254 46.9734 24.2231 46.3559 24.578C45.7385 24.933 45.2868 25.5164 45.0994 26.2012L43.068 33.665C42.8815 34.353 42.9767 35.0866 43.3329 35.7047C43.6891 36.3228 44.2771 36.7749 44.9678 36.9618L44.9952 36.9673C47.6831 37.2713 50.3965 37.6936 53.0953 38.2325C53.3367 38.2798 53.5762 38.329 53.8176 38.3799C54.6824 38.5583 55.5448 38.7489 56.4048 38.9516C56.7815 39.0389 57.1563 39.13 57.533 39.2228C58.546 39.474 59.5596 39.7416 60.5738 40.0256C61.702 40.3424 62.8307 40.6804 63.96 41.0396C64.0826 41.076 64.2051 41.1142 64.3257 41.1543V27.4027C64.2051 27.3663 64.0826 27.3317 63.96 27.2989Z" fill="white"/>
<path d="M63.96 27.2989C62.8045 26.9767 61.6446 26.6782 60.4805 26.4033C56.4996 25.4572 52.4638 24.7568 48.3962 24.3062C47.7067 24.1254 46.9734 24.2231 46.3559 24.578C45.7385 24.933 45.2868 25.5164 45.0994 26.2012L43.068 33.665C42.8815 34.353 42.9767 35.0866 43.3329 35.7047C43.6891 36.3228 44.2771 36.7749 44.9678 36.9618L44.9952 36.9673C47.6831 37.2713 50.3965 37.6936 53.0953 38.2325C53.3367 38.2798 53.5762 38.329 53.8176 38.3799C54.6824 38.5583 55.5448 38.7489 56.4048 38.9516C56.7815 39.0389 57.1563 39.13 57.533 39.2228C58.546 39.474 59.5596 39.7416 60.5738 40.0256C61.702 40.3424 62.8307 40.6804 63.96 41.0396C64.0826 41.076 64.2051 41.1142 64.3257 41.1543V40.7702C64.2032 40.7319 64.0807 40.6937 63.96 40.6555C62.9215 40.326 61.8842 40.0159 60.8481 39.7252C60.4604 39.6142 60.0728 39.5068 59.6851 39.403C58.9867 39.2155 58.29 39.0359 57.5952 38.8642C57.2259 38.7713 56.8571 38.6821 56.4889 38.5966C56.4615 38.5893 56.4322 38.5838 56.4048 38.5765C55.7776 38.4291 55.1492 38.2883 54.5197 38.1542C54.2783 38.1032 54.037 38.0523 53.7956 38.0031C50.8847 37.4024 47.9518 36.9345 45.05 36.6068C44.4565 36.4423 43.9523 36.0509 43.6471 35.518C43.342 34.9851 43.2607 34.3538 43.4209 33.7615L45.4523 26.2959C45.6148 25.7019 46.0073 25.1963 46.5438 24.8902C47.0803 24.584 47.7169 24.5023 48.3138 24.663L48.3412 24.6666C52.3573 25.1106 56.3423 25.7988 60.2739 26.7273C60.3141 26.7382 60.3543 26.7474 60.3945 26.7565C61.5868 27.0404 62.7753 27.3475 63.96 27.6776C64.0807 27.7104 64.2032 27.7449 64.3257 27.7814V27.4027C64.2051 27.3663 64.0826 27.3317 63.96 27.2989Z" fill="#D9A514"/>
<path d="M64.3257 27.5921V40.9613C64.2032 40.9213 64.0826 40.8831 63.96 40.8448C62.8794 40.5008 61.7952 40.1767 60.7073 39.8727C59.6631 39.5778 58.6154 39.3005 57.5641 39.0408C57.1911 38.9498 56.8199 38.8606 56.4469 38.7732C56.4322 38.7076 56.4176 38.6421 56.4048 38.5766C56.3371 38.2635 56.2842 37.9467 56.2439 37.6281C56.2256 37.5062 56.2129 37.3842 56.2 37.2604C56.0076 35.3101 56.2758 33.342 56.9831 31.5132C57.6904 29.6844 58.8173 28.0455 60.2739 26.7274C60.3269 26.6764 60.3817 26.6272 60.4366 26.5799C61.6178 26.8602 62.7923 27.1637 63.96 27.4901C64.0826 27.5211 64.2051 27.5557 64.3257 27.5921Z" fill="#D9A514"/>
<path d="M52.183 33.0661L47.098 32.469C46.9191 32.448 46.7378 32.4622 46.5645 32.5109C46.3911 32.5597 46.2291 32.6419 46.0876 32.753C45.9462 32.864 45.8281 33.0017 45.7402 33.1582C45.6522 33.3147 45.596 33.4869 45.5749 33.665C45.5538 33.8431 45.5681 34.0236 45.617 34.1962C45.666 34.3688 45.7486 34.5301 45.8601 34.6709C45.9717 34.8117 46.11 34.9293 46.2672 35.0169C46.4244 35.1045 46.5973 35.1604 46.7762 35.1814L51.8611 35.7785C52.222 35.8201 52.5846 35.7175 52.8695 35.4932C53.1544 35.2689 53.3384 34.9413 53.381 34.5821C53.4236 34.223 53.3214 33.8617 53.0968 33.5775C52.8722 33.2933 52.5436 33.1094 52.183 33.0661V33.0661ZM53.0205 34.5406C52.9886 34.8041 52.8531 35.0443 52.6436 35.2084C52.4342 35.3726 52.1679 35.4473 51.9032 35.4163L46.8182 34.8192C46.5541 34.7872 46.3136 34.6523 46.1492 34.444C45.9849 34.2358 45.9101 33.9712 45.9413 33.7082C45.9725 33.4452 46.1071 33.2052 46.3157 33.0409C46.5243 32.8765 46.7898 32.8011 47.0541 32.8313L52.1391 33.4284C52.4037 33.4603 52.645 33.5951 52.8101 33.8035C52.9753 34.0119 53.0509 34.2769 53.0205 34.5406L53.0205 34.5406Z" fill="#D9A514"/>
<path d="M64.3258 30.7232V37.0638C64.2083 37.134 64.0861 37.196 63.9601 37.2494C63.3038 37.5412 62.5762 37.6356 61.8667 37.5211C61.1573 37.4066 60.4969 37.0882 59.9667 36.605C59.9156 36.5595 59.8643 36.5104 59.8149 36.4594C59.7656 36.4102 59.7181 36.3574 59.6724 36.3046C59.1204 35.6734 58.8014 34.8736 58.768 34.0373C58.7347 33.201 58.9891 32.3785 59.4891 31.7058C59.9891 31.033 60.7048 30.5503 61.5178 30.3376C62.3308 30.1248 63.1924 30.1947 63.9601 30.5357C64.0853 30.5916 64.2074 30.6542 64.3258 30.7232V30.7232Z" fill="white"/>
<path d="M63.9601 35.3125C62.5212 35.6111 61.0919 35.9418 59.6724 36.3047C59.1422 36.4394 58.6137 36.5789 58.0871 36.7233C57.4581 36.8963 56.8291 37.0753 56.2001 37.2604C55.3974 37.497 54.596 37.7446 53.7957 38.0031C53.5634 38.0796 53.3294 38.156 53.0953 38.2325C50.8701 38.9716 48.6595 39.7908 46.4854 40.6846C45.7936 40.8568 45.1981 41.2941 44.8285 41.9013C44.459 42.5086 44.3454 43.2366 44.5125 43.9268L46.3465 51.4416C46.5162 52.1337 46.9548 52.7306 47.566 53.1012C48.1771 53.4718 48.911 53.5859 49.6066 53.4186L49.6322 53.4095C53.2074 51.9494 56.8666 50.7021 60.5903 49.6739C61.702 49.3663 62.8253 49.0762 63.9601 48.8038C64.0827 48.7746 64.2033 48.7455 64.3258 48.7182V35.2379C64.2033 35.2597 64.0827 35.2852 63.9601 35.3125Z" fill="white"/>
<path d="M63.9601 35.3125C62.5212 35.6111 61.0919 35.9418 59.6724 36.3047C59.1422 36.4394 58.6137 36.5789 58.0871 36.7233C57.4581 36.8963 56.8291 37.0753 56.2001 37.2604C55.3974 37.497 54.596 37.7446 53.7957 38.0031C53.5634 38.0796 53.3294 38.156 53.0953 38.2325C50.8701 38.9716 48.6595 39.7908 46.4854 40.6846C45.7936 40.8568 45.1981 41.2941 44.8285 41.9013C44.459 42.5086 44.3454 43.2366 44.5125 43.9268L46.3465 51.4416C46.5162 52.1337 46.9548 52.7306 47.566 53.1012C48.1771 53.4718 48.911 53.5859 49.6066 53.4186L49.6322 53.4095C53.2074 51.9494 56.8666 50.7021 60.5903 49.6739C61.702 49.3663 62.8253 49.0762 63.9601 48.8038C64.0827 48.7746 64.2033 48.7455 64.3258 48.7182V48.3432C64.2033 48.3723 64.0827 48.4014 63.9601 48.4306C63.8687 48.4524 63.7755 48.4743 63.6841 48.4961C62.6089 48.7564 61.5454 49.0319 60.4933 49.3226C60.4659 49.3299 60.4367 49.339 60.4092 49.3463C56.7043 50.3721 53.0636 51.6152 49.5061 53.069C48.9062 53.209 48.275 53.1076 47.7498 52.7869C47.2245 52.4661 46.8477 51.9519 46.7012 51.356L44.8691 43.8413C44.7237 43.2429 44.8226 42.6115 45.1441 42.0856C45.4656 41.5597 45.9835 41.1822 46.5842 41.036L46.6116 41.0269C48.9795 40.0511 51.3894 39.1664 53.8176 38.38C54.0516 38.3035 54.2857 38.2289 54.5197 38.1542C55.0939 37.974 55.6687 37.7986 56.244 37.6281C56.851 37.4479 57.4575 37.2743 58.0633 37.1075C58.1035 37.0965 58.1438 37.0856 58.184 37.0747C58.7765 36.9127 59.3707 36.7561 59.9667 36.605C61.2887 36.2701 62.6199 35.9624 63.9601 35.6821C64.0808 35.6566 64.2033 35.6311 64.3258 35.6074V35.2379C64.2033 35.2597 64.0827 35.2852 63.9601 35.3125Z" fill="#D9A514"/>
<path d="M64.3258 35.4217V48.5307C64.2051 48.558 64.0827 48.5853 63.9601 48.6144C62.8155 48.8911 61.6758 49.186 60.5409 49.4991C60.4952 49.4482 60.4513 49.3972 60.4092 49.3462C59.2244 47.9654 58.3539 46.3456 57.8574 44.5982C57.3609 42.8507 57.2503 41.0169 57.533 39.2228C57.5422 39.1627 57.5532 39.1008 57.5642 39.0408C57.5733 38.9825 57.5843 38.9224 57.5952 38.8642C57.7081 38.268 57.8645 37.6809 58.0633 37.1075C58.0871 37.0383 58.1108 36.9691 58.1365 36.8999C58.6941 36.747 59.2536 36.6002 59.8149 36.4594C61.1882 36.1062 62.5699 35.7852 63.9601 35.4964C64.0808 35.4691 64.2033 35.4454 64.3258 35.4217Z" fill="#D9A514"/>
<path d="M55.8289 47.2965C55.6918 46.9612 55.4267 46.6937 55.0918 46.5528C54.7569 46.4118 54.3796 46.4089 54.0425 46.5446L49.2975 48.4597C48.9611 48.5963 48.6928 48.8602 48.5515 49.1935C48.4103 49.5268 48.4077 49.9023 48.5444 50.2375C48.681 50.5727 48.9456 50.8403 49.2802 50.9814C49.6148 51.1225 49.9919 51.1257 50.3288 50.9902L55.0738 49.075C55.4103 48.9382 55.6786 48.6743 55.8201 48.341C55.9616 48.0076 55.9648 47.6321 55.8289 47.2965V47.2965ZM54.9366 48.7364L50.1917 50.6534C49.9445 50.7529 49.6677 50.7506 49.4221 50.6471C49.1765 50.5436 48.9823 50.3473 48.882 50.1013C48.7817 49.8552 48.7835 49.5797 48.8872 49.335C48.9908 49.0904 49.1877 48.8967 49.4347 48.7965L54.1796 46.8814C54.4267 46.7814 54.7035 46.7833 54.9492 46.8866C55.1949 46.9899 55.3894 47.1861 55.4897 47.4321C55.5901 47.6781 55.5882 47.9537 55.4845 48.1983C55.3808 48.4429 55.1837 48.6365 54.9366 48.7364V48.7364Z" fill="#D9A514"/>
<path d="M64.3258 38.7695V45.9075C64.2053 45.938 64.0832 45.9623 63.9601 45.9803C63.226 46.0827 62.478 45.9629 61.8132 45.6365C61.1483 45.3101 60.5975 44.7921 60.2323 44.1499C59.8671 43.5076 59.7044 42.7709 59.7653 42.0354C59.8262 41.2999 60.1079 40.5996 60.5739 40.0256C60.6159 39.9728 60.6597 39.9219 60.7073 39.8727C60.7512 39.8217 60.7988 39.7726 60.8481 39.7253C61.2524 39.3271 61.7436 39.0273 62.2834 38.8492C62.8232 38.6712 63.397 38.6196 63.9601 38.6985C64.0833 38.715 64.2054 38.7387 64.3258 38.7695V38.7695Z" fill="white"/>
<path d="M63.9602 26.3505V44.5203C64.0828 44.4802 64.2053 44.442 64.3259 44.4056V26.5162C64.2034 26.4597 64.0828 26.4051 63.9602 26.3505ZM63.9602 26.3505V44.5203C64.0828 44.4802 64.2053 44.442 64.3259 44.4056V26.5162C64.2034 26.4597 64.0828 26.4051 63.9602 26.3505ZM63.9602 26.3505V44.5203C64.0828 44.4802 64.2053 44.442 64.3259 44.4056V26.5162C64.2034 26.4597 64.0828 26.4051 63.9602 26.3505ZM63.9602 27.6776V48.6144C64.0828 48.5853 64.2053 48.558 64.3259 48.5307V27.7814C64.2034 27.745 64.0809 27.7104 63.9602 27.6776V27.6776ZM63.9602 27.6776V48.6144C64.0828 48.5853 64.2053 48.558 64.3259 48.5307V27.7814C64.2034 27.745 64.0809 27.7104 63.9602 27.6776V27.6776ZM63.9602 27.6776V48.6144C64.0828 48.5853 64.2053 48.558 64.3259 48.5307V27.7814C64.2034 27.745 64.0809 27.7104 63.9602 27.6776V27.6776ZM63.9602 27.6776V48.6144C64.0828 48.5853 64.2053 48.558 64.3259 48.5307V27.7814C64.2034 27.745 64.0809 27.7104 63.9602 27.6776V27.6776ZM63.9602 27.6776V48.8038C64.0828 48.7746 64.2034 48.7455 64.3259 48.7182V27.7814C64.2034 27.745 64.0809 27.7104 63.9602 27.6776V27.6776ZM143.727 10.4636H67.7562C66.7499 10.4652 65.7854 10.8639 65.0739 11.5723C64.3624 12.2807 63.9619 13.241 63.9602 14.2428V70.4014C63.9619 71.403 64.3625 72.3631 65.074 73.0712C65.7856 73.7793 66.7501 74.1776 67.7562 74.1788H143.727C144.733 74.1776 145.698 73.7792 146.409 73.0711C147.12 72.3629 147.52 71.4029 147.521 70.4014V14.2428C147.521 13.241 147.121 12.2805 146.409 11.572C145.698 10.8635 144.734 10.4649 143.727 10.4636V10.4636ZM147.156 70.4014C147.155 71.3064 146.793 72.174 146.151 72.8139C145.508 73.4539 144.636 73.8138 143.727 73.8147H67.7562C66.847 73.8139 65.9753 73.454 65.3322 72.8142C64.6891 72.1743 64.3272 71.3066 64.3259 70.4014V14.2428C64.3273 13.3374 64.6891 12.4696 65.3321 11.8294C65.9751 11.1892 66.8468 10.829 67.7562 10.8277H143.727C144.637 10.8287 145.508 11.1889 146.151 11.8292C146.794 12.4695 147.155 13.3375 147.156 14.2428V70.4014ZM63.9602 27.6776V48.4306C64.0828 48.4014 64.2034 48.3723 64.3259 48.3432V27.7814C64.2034 27.745 64.0809 27.7104 63.9602 27.6776V27.6776ZM63.9602 27.6776V48.6144C64.0828 48.5853 64.2053 48.558 64.3259 48.5307V27.7814C64.2034 27.745 64.0809 27.7104 63.9602 27.6776V27.6776ZM63.9602 27.6776V48.6144C64.0828 48.5853 64.2053 48.558 64.3259 48.5307V27.7814C64.2034 27.745 64.0809 27.7104 63.9602 27.6776V27.6776ZM63.9602 27.6776V48.6144C64.0828 48.5853 64.2053 48.558 64.3259 48.5307V27.7814C64.2034 27.745 64.0809 27.7104 63.9602 27.6776V27.6776ZM63.9602 26.3505V44.5203C64.0828 44.4802 64.2053 44.442 64.3259 44.4056V26.5162C64.2034 26.4597 64.0828 26.4051 63.9602 26.3505V26.3505ZM63.9602 26.3505V44.5203C64.0828 44.4802 64.2053 44.442 64.3259 44.4056V26.5162C64.2034 26.4597 64.0828 26.4051 63.9602 26.3505V26.3505Z" fill="#2F2E41"/>
<path d="M47.6731 45.5752C47.6014 45.4088 47.494 45.2601 47.3583 45.1395C47.2227 45.0189 47.0621 44.9294 46.888 44.8773C46.7138 44.8252 46.5303 44.8117 46.3503 44.8378C46.1704 44.8639 45.9984 44.929 45.8464 45.0285L42.3411 42.347L42.1755 44.6281L45.5296 46.8248C45.7143 47.0679 45.9823 47.235 46.2825 47.2946C46.5828 47.3541 46.8946 47.302 47.1588 47.1479C47.423 46.9939 47.6213 46.7487 47.7161 46.4589C47.8109 46.169 47.7956 45.8546 47.6731 45.5752V45.5752Z" fill="#FFB6B6"/>
<path d="M33.548 29.392L32.3946 28.8493C32.3946 28.8493 30.5364 29.3697 31.4391 31.816L36.9025 41.9492L43.5725 45.8372L45.6519 44.0027L38.977 38.7445L33.548 29.392Z" fill="#3F3D56"/>
</g>
<defs>
<filter id="filter0_d" x="0" y="0" width="180" height="87" filterUnits="userSpaceOnUse" color-interpolation-filters="sRGB">
<feFlood flood-opacity="0" result="BackgroundImageFix"/>
<feColorMatrix in="SourceAlpha" type="matrix" values="0 0 0 0 0 0 0 0 0 0 0 0 0 0 0 0 0 0 127 0" result="hardAlpha"/>
<feOffset dy="1"/>
<feGaussianBlur stdDeviation="2"/>
<feComposite in2="hardAlpha" operator="out"/>
<feColorMatrix type="matrix" values="0 0 0 0 0 0 0 0 0 0 0 0 0 0 0 0 0 0 0.25 0"/>
<feBlend mode="normal" in2="BackgroundImageFix" result="effect1_dropShadow"/>
<feBlend mode="normal" in="SourceGraphic" in2="effect1_dropShadow" result="shape"/>
</filter>
<clipPath id="clip0">
<rect width="172" height="79" fill="white" transform="translate(4 3)"/>
</clipPath>
</defs>
</svg>
