<svg width="210" height="169" viewBox="0 0 210 169" fill="none" xmlns="http://www.w3.org/2000/svg">
<path d="M106.247 169C163.548 169 210 165.375 210 160.903C210 156.432 163.548 152.807 106.247 152.807C48.9459 152.807 2.49414 156.432 2.49414 160.903C2.49414 165.375 48.9459 169 106.247 169Z" fill="#3F3D56"/>
<path d="M194.38 145.862L195.352 152.985L188.545 153.633L189.517 144.891L194.38 145.862Z" fill="#A0616A"/>
<path d="M162.289 48.0812C162.289 48.0812 162.937 56.8232 162.937 57.147C162.937 57.4708 158.399 79.8115 158.399 79.8115C158.399 79.8115 151.916 92.1151 158.399 91.7913C164.882 91.4676 162.937 80.1353 162.937 80.1353L169.744 61.3561L166.827 48.0812L162.289 48.0812Z" fill="#A0616A"/>
<path d="M172.986 145.862L172.014 152.985L178.821 153.633L177.848 144.891L172.986 145.862Z" fill="#A0616A"/>
<path d="M165.53 79.1638L163.91 81.4303C163.91 81.4303 162.937 91.1436 163.91 94.3814C164.882 97.6192 166.827 112.513 166.827 113.484C166.827 114.456 167.151 115.103 166.827 115.427C166.503 115.751 165.53 115.751 166.179 116.398C166.827 117.046 166.827 118.989 166.827 118.989V120.607L171.041 144.567C171.041 144.567 168.448 147.481 170.393 147.481C172.337 147.481 179.469 147.481 179.145 144.243L178.496 143.92C178.496 143.92 177.524 122.55 177.848 121.579C178.172 120.607 177.848 118.665 177.848 118.665C177.848 118.665 177.2 117.693 177.848 117.37C178.496 117.046 178.496 114.456 178.496 114.456L181.414 94.7052C181.414 94.7052 184.007 107.98 185.627 109.275C187.248 110.57 186.924 113.808 186.924 113.808L188.221 142.301C188.221 142.301 186.924 145.538 188.221 146.186C189.517 146.834 195.028 149.1 195.352 145.862C195.676 142.624 197.297 114.456 197.297 113.161C197.297 111.865 196.973 111.218 197.297 110.247C197.621 109.275 196.973 109.275 197.297 109.275C197.621 109.275 196.648 108.304 196.648 107.656V91.7912C196.648 91.7912 196.973 88.5534 197.297 87.9058C197.621 87.2583 196.973 86.6107 197.297 85.6394C197.621 84.6681 196.648 81.4303 196.648 81.4303L182.062 77.5449L165.53 79.1638Z" fill="#2F2E41"/>
<path d="M176.876 151.69C176.876 151.69 178.496 150.071 176.227 150.071C174.771 150.101 173.336 150.432 172.013 151.043L170.393 156.871C170.393 156.871 163.748 162.213 171.203 161.566C178.658 160.918 177.524 161.404 177.524 161.404C177.524 161.404 179.793 160.756 180.117 160.109C180.441 159.461 179.469 150.071 179.469 150.071C179.469 150.071 178.496 152.662 176.876 151.69Z" fill="#2F2E41"/>
<path d="M190.814 151.69C190.814 151.69 189.193 150.071 191.462 150.071C192.919 150.101 194.354 150.432 195.676 151.043L197.297 156.871C197.297 156.871 203.942 162.213 196.486 161.566C189.031 160.918 189.193 161.404 189.193 161.404C189.193 161.404 186.924 160.756 186.6 160.109C186.276 159.461 188.221 150.071 188.221 150.071C188.221 150.071 189.193 152.662 190.814 151.69Z" fill="#2F2E41"/>
<path d="M169.744 22.5026C174.399 22.5026 178.172 18.7337 178.172 14.0844C178.172 9.43512 174.399 5.66614 169.744 5.66614C165.09 5.66614 161.316 9.43512 161.316 14.0844C161.316 18.7337 165.09 22.5026 169.744 22.5026Z" fill="#A0616A"/>
<path d="M166.827 20.2362C166.827 20.2362 168.124 26.7118 168.124 27.6831C168.124 28.6544 173.634 31.5684 173.634 31.5684L179.793 23.7978C179.793 23.7978 175.903 18.2935 175.903 16.9984L166.827 20.2362Z" fill="#A0616A"/>
<path d="M171.689 28.6545C171.689 28.6545 168.864 27.9033 168.007 26.66C168.007 26.66 159.047 35.4538 159.047 37.0727L166.179 49.7001C166.179 49.7001 166.179 54.233 166.827 54.5568C167.475 54.8805 166.827 54.5568 166.827 55.8519C166.827 57.147 164.882 65.5652 165.53 66.8603C166.179 68.1555 166.827 67.1841 166.179 69.1268C165.53 71.0695 163.91 81.4304 163.91 81.4304C163.91 81.4304 169.744 79.4877 178.172 82.7255C186.6 85.9633 196.648 81.4304 196.648 81.4304C196.648 81.4304 194.055 75.6024 194.703 73.6597C195.352 71.717 193.083 68.1555 193.083 68.1555L191.462 38.3678C191.462 38.3678 193.731 25.0929 192.11 24.4453L188.869 23.1502L178.488 21.8759C178.488 21.8759 175.903 28.3307 171.689 28.6545Z" fill="#D0CDE1"/>
<path d="M162.289 34.8063L159.047 37.0727C159.047 37.0727 157.427 41.9294 159.047 44.1959C160.668 46.4623 161.316 49.7001 161.316 49.7001L167.799 49.0525L162.289 34.8063Z" fill="#D0CDE1"/>
<path d="M163.31 5.18773L161.848 4.60313C161.848 4.60313 164.905 1.24169 169.158 1.534L167.961 0.218634C167.961 0.218634 170.885 -0.950552 173.543 2.11858C174.94 3.73196 176.557 5.62839 177.565 7.7647H179.131L178.477 9.20184L180.764 10.639L178.417 10.3808C178.639 11.6215 178.563 12.8973 178.195 14.1028L178.258 15.2388C178.258 15.2388 175.537 11.0337 175.537 10.4491V11.9106C175.537 11.9106 174.075 10.5952 174.075 9.71835L173.277 10.7414L172.879 9.13375L167.961 10.7414L168.759 9.42607L165.702 9.86452L166.898 8.25687C166.898 8.25687 163.443 10.1568 163.31 11.7645C163.177 13.3721 161.449 15.4182 161.449 15.4182L160.652 13.9567C160.652 13.9567 159.456 7.37996 163.31 5.18773Z" fill="#2F2E41"/>
<path d="M165.265 70.4603H36.4556V160.842H165.265V70.4603Z" fill="#F2F2F2"/>
<path d="M79.6408 104.945H47.2983V161.34H79.6408V104.945Z" fill="#3F3D56"/>
<path d="M61.9929 108.328H53.2808V116.441H61.9929V108.328Z" fill="#F2F2F2"/>
<path d="M73.6585 108.328H64.9463V116.441H73.6585V108.328Z" fill="#F2F2F2"/>
<path d="M61.9929 119.391H53.2808V127.798H61.9929V119.391Z" fill="#F2F2F2"/>
<path d="M73.6585 119.391H64.9463V127.798H73.6585V119.391Z" fill="#F2F2F2"/>
<path d="M75.5281 138.994C76.6639 138.994 77.5846 138.074 77.5846 136.94C77.5846 135.805 76.6639 134.885 75.5281 134.885C74.3924 134.885 73.4717 135.805 73.4717 136.94C73.4717 138.074 74.3924 138.994 75.5281 138.994Z" fill="#D9A514"/>
<path d="M154.421 99.5917H90.4839V153.186H154.421V99.5917Z" fill="#3F3D56"/>
<path d="M178.725 87.476H22.9951L33.3784 65.7917L35.7021 60.9365L38.7421 54.5873L41.0658 49.7321L43.7597 44.1077H166.456L168.047 49.7321L169.42 54.5873L171.217 60.9365L172.591 65.7917L178.725 87.476Z" fill="#3F3D56"/>
<path d="M94.9715 121.814H92.728V135.632H94.9715V121.814Z" fill="#D9A514"/>
<path d="M94.9715 123.868H92.728V125.548H94.9715V123.868Z" fill="#F2F2F2"/>
<path d="M94.9715 131.897H92.728V133.578H94.9715V131.897Z" fill="#F2F2F2"/>
<path d="M101.514 121.814H96.0928V135.632H101.514V121.814Z" fill="#D9A514"/>
<path d="M101.514 123.868H96.0928V125.548H101.514V123.868Z" fill="#F2F2F2"/>
<path d="M101.514 131.897H96.0928V133.578H101.514V131.897Z" fill="#F2F2F2"/>
<path d="M105.066 121.814H102.823V135.632H105.066V121.814Z" fill="#D9A514"/>
<path d="M105.066 123.868H102.823V125.548H105.066V123.868Z" fill="#F2F2F2"/>
<path d="M105.066 131.897H102.823V133.578H105.066V131.897Z" fill="#F2F2F2"/>
<path d="M108.431 121.814H106.188V135.632H108.431V121.814Z" fill="#D9A514"/>
<path d="M108.431 123.868H106.188V125.548H108.431V123.868Z" fill="#F2F2F2"/>
<path d="M108.431 131.897H106.188V133.578H108.431V131.897Z" fill="#F2F2F2"/>
<path d="M110.593 121.863L108.494 122.653L113.374 135.584L115.473 134.793L110.593 121.863Z" fill="#D9A514"/>
<path d="M111.318 123.785L109.219 124.575L109.813 126.148L111.912 125.357L111.318 123.785Z" fill="#F2F2F2"/>
<path d="M114.154 131.298L112.055 132.089L112.648 133.661L114.747 132.871L114.154 131.298Z" fill="#F2F2F2"/>
<path d="M152.365 121.814H146.943V135.632H152.365V121.814Z" fill="#D9A514"/>
<path d="M152.365 123.868H146.943V125.548H152.365V123.868Z" fill="#F2F2F2"/>
<path d="M152.365 131.897H146.943V133.578H152.365V131.897Z" fill="#F2F2F2"/>
<path d="M145.635 121.814H143.391V135.632H145.635V121.814Z" fill="#D9A514"/>
<path d="M145.635 123.868H143.391V125.548H145.635V123.868Z" fill="#F2F2F2"/>
<path d="M145.635 131.897H143.391V133.578H145.635V131.897Z" fill="#F2F2F2"/>
<path d="M142.269 121.814H140.026V135.632H142.269V121.814Z" fill="#D9A514"/>
<path d="M142.269 123.868H140.026V125.548H142.269V123.868Z" fill="#F2F2F2"/>
<path d="M142.269 131.897H140.026V133.578H142.269V131.897Z" fill="#F2F2F2"/>
<path d="M137.864 121.862L132.984 134.793L135.084 135.583L139.963 122.653L137.864 121.862Z" fill="#D9A514"/>
<path d="M137.139 123.785L136.545 125.357L138.645 126.148L139.238 124.575L137.139 123.785Z" fill="#F2F2F2"/>
<path d="M134.303 131.298L133.71 132.871L135.809 133.661L136.403 132.089L134.303 131.298Z" fill="#F2F2F2"/>
<path d="M154.421 135.632H90.4839V136.939H154.421V135.632Z" fill="#F2F2F2"/>
<path d="M130.118 121.814H118.34V135.632H130.118V121.814Z" fill="#D9A514"/>
<path d="M127.22 124.802H121.238V127.416H127.22V124.802Z" fill="#F2F2F2"/>
<path d="M123.014 99.5917H121.892V111.543H123.014V99.5917Z" fill="#F2F2F2"/>
<path d="M122.453 113.41C123.486 113.41 124.323 112.574 124.323 111.543C124.323 110.512 123.486 109.676 122.453 109.676C121.421 109.676 120.583 110.512 120.583 111.543C120.583 112.574 121.421 113.41 122.453 113.41Z" fill="#F2F2F2"/>
<path d="M169.421 54.5874H38.7422L41.0659 49.7322H168.047L169.421 54.5874Z" fill="#D9A514"/>
<path d="M172.591 65.7917H33.3784L35.7021 60.9365H171.217L172.591 65.7917Z" fill="#D9A514"/>
<path d="M186.276 37.7202C186.276 37.7202 184.399 42.5415 184.791 47.3117C184.862 48.1658 185.15 48.9876 185.627 49.7L162.631 60.6053C162.631 60.6053 152.24 61.6798 154.834 66.2127C157.427 70.7457 166.827 63.9463 166.827 63.9463C166.827 63.9463 191.462 60.3847 193.407 56.8232C195.352 53.2616 196.648 38.3678 196.648 38.3678L186.276 37.7202Z" fill="#A0616A"/>
<path d="M187.248 24.4453H192.11C192.11 24.4453 195.676 25.0929 196.648 31.5685C197.621 38.044 198.593 39.6629 197.621 39.6629C196.648 39.6629 184.979 39.3391 184.979 39.0154C184.979 38.6916 187.248 24.4453 187.248 24.4453Z" fill="#D0CDE1"/>
<path d="M24.9406 121.168C38.7149 121.168 49.8812 110.014 49.8812 96.2557C49.8812 82.4969 38.7149 71.3433 24.9406 71.3433C11.1663 71.3433 0 82.4969 0 96.2557C0 110.014 11.1663 121.168 24.9406 121.168Z" fill="#D9A514"/>
<path opacity="0.1" d="M24.9406 117.68C36.7865 117.68 46.3896 108.088 46.3896 96.2557C46.3896 84.4232 36.7865 74.8311 24.9406 74.8311C13.0947 74.8311 3.4917 84.4232 3.4917 96.2557C3.4917 108.088 13.0947 117.68 24.9406 117.68Z" fill="black"/>
<path d="M23.9129 108.898V105.78C22.3348 105.749 20.7022 105.193 19.75 104.421L20.4029 102.353C21.5346 103.2 22.9069 103.665 24.321 103.68C26.2528 103.68 27.5588 102.415 27.5588 100.655C27.5588 98.9567 26.4977 97.907 24.4842 96.9807C21.709 95.7458 19.9948 94.3255 19.9948 91.6395C19.9948 89.0769 21.6002 87.1318 24.1034 86.6687V83.5504H25.7903V86.5453C27.0481 86.5624 28.2751 86.9372 29.3274 87.6258L28.6471 89.6636C27.6379 88.9735 26.4419 88.6073 25.2189 88.6138C23.1239 88.6138 22.3348 90.0339 22.3348 91.269C22.3348 92.8744 23.3415 93.6771 25.7087 94.7887C28.5111 96.0854 29.926 97.6909 29.926 100.439C29.926 102.878 28.4295 105.163 25.627 105.687V108.898H23.9129Z" fill="#F2F2F2"/>
</svg>
