<svg width="324" height="154" viewBox="0 0 324 154" fill="none" xmlns="http://www.w3.org/2000/svg">
<path d="M275.344 7.76776H275.344C264.808 7.76776 256.267 17.9381 256.267 30.4839V46.4235H260.836L263.481 40.5177L262.82 46.4235H292.186L294.591 41.0546L293.99 46.4235H297.296V33.9081C297.296 19.4712 287.468 7.76776 275.344 7.76776Z" fill="#2F2E41"/>
<path d="M266.135 36.4164C266.135 36.4164 272.089 51.3237 264.15 54.3052L272.089 82.4161L285.586 81.5643L289.158 72.1939L288.364 58.1385L287.173 48.7682C287.173 48.7682 278.837 50.8978 279.631 35.1387L266.135 36.4164Z" fill="#FFB8B8"/>
<path d="M262.96 53.8792C262.96 53.8792 249.86 52.6014 251.051 62.8236C252.242 73.0457 253.433 75.1753 253.433 75.1753L254.624 90.5085L247.479 95.1937H240.731C240.731 95.1937 220.089 100.305 230.41 105.842C240.731 111.379 244.303 101.583 244.303 101.583C244.303 101.583 263.357 101.583 264.547 98.1751C265.738 94.7677 262.96 53.8792 262.96 53.8792Z" fill="#FFB8B8"/>
<path d="M288.365 49.62C288.365 49.62 300.67 44.9348 301.464 55.157C302.258 65.3791 302.258 66.231 302.258 66.231L304.64 80.7124C304.64 80.7124 309.403 93.4901 309.403 97.3234C309.403 101.157 312.976 113.083 312.976 113.083C312.976 113.083 317.739 129.694 312.579 129.268C307.418 128.842 306.624 111.379 306.624 111.379L295.907 88.379L292.731 74.3235L288.365 49.62Z" fill="#FFB8B8"/>
<path d="M264.944 52.1756H261.769L261.372 70.0643C261.372 70.0643 256.211 77.7309 262.562 84.5457L264.15 95.6197L293.128 94.3419L295.112 82.842C295.112 82.842 299.082 73.4717 293.525 64.9532L288.364 47.4904H285.586C285.586 47.4904 292.021 72.9513 278.44 73.4717C267.326 73.8976 264.944 52.1756 264.944 52.1756Z" fill="#D9A514"/>
<path d="M279.139 153.697C279.189 148.28 279.234 145.027 279.234 145.027C279.234 145.027 278.934 148.28 278.426 153.697H247.25C255.488 125.846 263.042 102.957 263.348 102.038C263.35 102.027 263.353 102.018 263.357 102.008L264.319 98.5698V98.5675L264.726 97.1098V97.103L265.156 95.5751L265.739 93.4903L291.539 92.6392L292.26 94.3799L294.716 100.304C294.93 100.37 295.132 100.472 295.315 100.607C299.731 103.71 305.243 126.446 310.268 153.697L279.139 153.697Z" fill="#2F2E41"/>
<path d="M294.318 89.2308L262.959 90.5086C262.959 90.5086 261.528 102.008 262.959 102.008C263.356 102.008 295.906 104.99 295.509 99.8789C295.112 94.7678 294.318 89.2308 294.318 89.2308Z" fill="#2F2E41"/>
<path d="M272.271 41.2946C278.43 41.2946 283.424 35.9366 283.424 29.3271C283.424 22.7177 278.43 17.3597 272.271 17.3597C266.111 17.3597 261.117 22.7177 261.117 29.3271C261.117 35.9366 266.111 41.2946 272.271 41.2946Z" fill="#FFB8B8"/>
<path d="M280.767 14.0254C278.851 11.3791 276.026 9.70294 272.873 9.70294H272.498C265.277 9.70294 259.423 16.7143 259.423 25.3632V25.3632H261.842L262.233 22.1717L262.806 25.3632H277.157L278.359 22.6632L278.059 25.3632H280.882C282.199 32.3833 280.306 39.4034 275.203 46.4235H280.012L282.417 41.0234L281.816 46.4235H290.984L292.787 34.0033C292.787 24.7017 287.75 16.8141 280.767 14.0254Z" fill="#2F2E41"/>
<path d="M283.402 15.3332C287.348 15.3332 290.547 11.9008 290.547 7.66661C290.547 3.43246 287.348 0 283.402 0C279.456 0 276.257 3.43246 276.257 7.66661C276.257 11.9008 279.456 15.3332 283.402 15.3332Z" fill="#2F2E41"/>
<path d="M220.972 79.2682C226.351 79.2682 230.712 74.5891 230.712 68.8172C230.712 63.0452 226.351 58.3661 220.972 58.3661C215.593 58.3661 211.232 63.0452 211.232 68.8172C211.232 74.5891 215.593 79.2682 220.972 79.2682Z" fill="#D9A514"/>
<path d="M151.156 60.6449C151.153 60.9444 151.081 61.2384 150.948 61.5014C150.814 61.7645 150.623 61.9884 150.39 62.1539L150.326 62.1968H121.473L121.589 61.8174C121.609 61.7502 123.721 55.1732 133.071 56.443C133.953 56.1195 142.559 53.1045 147.711 56.4917C149.996 57.9949 151.156 59.3922 151.156 60.6449Z" fill="#F2F2F2"/>
<path d="M197.232 114.152C200.136 114.218 202.446 116.477 202.446 116.477C202.446 116.477 200.048 118.626 197.144 118.56C194.239 118.493 191.929 116.235 191.929 116.235C191.929 116.235 194.328 114.085 197.232 114.152Z" fill="#D9A514"/>
<path d="M182.631 103.515C185.255 104.852 188.264 103.945 188.264 103.945C188.264 103.945 187.018 100.87 184.395 99.5323C181.771 98.1949 178.762 99.1018 178.762 99.1018C178.762 99.1018 180.008 102.177 182.631 103.515Z" fill="#D9A514"/>
<path d="M182.897 102.186C185.79 101.902 188.322 103.867 188.322 103.867C188.322 103.867 186.164 106.293 183.271 106.576C180.379 106.86 177.847 104.895 177.847 104.895C177.847 104.895 180.005 102.469 182.897 102.186Z" fill="#3F3D56"/>
<path d="M193.502 102.723C193.225 105.826 195.045 108.551 195.045 108.551C195.045 108.551 197.315 106.246 197.592 103.144C197.869 100.041 196.049 97.3157 196.049 97.3157C196.049 97.3157 193.779 99.6204 193.502 102.723Z" fill="#3F3D56"/>
<path d="M207.125 121.751C205.608 124.409 206.13 127.715 206.13 127.715C206.13 127.715 209.112 126.712 210.629 124.054C212.147 121.396 211.625 118.09 211.625 118.09C211.625 118.09 208.643 119.093 207.125 121.751Z" fill="#3F3D56"/>
<path d="M202.723 150.649L202.944 150.488C202.165 149.275 201.739 147.84 201.722 146.366C201.728 144.211 202.715 142.217 203.669 140.288C203.846 139.93 204.023 139.574 204.192 139.217C204.905 137.763 205.474 136.233 205.888 134.651C207.368 128.749 205.91 121.785 201.989 116.022C198.878 111.451 194.241 107.454 187.812 103.802L187.687 104.055C194.079 107.686 198.687 111.656 201.773 116.191C205.648 121.884 207.089 128.757 205.63 134.577C205.221 136.139 204.659 137.651 203.955 139.087C203.786 139.442 203.61 139.797 203.433 140.154C202.464 142.113 201.461 144.139 201.455 146.365C201.472 147.897 201.914 149.387 202.723 150.649Z" fill="#3F3D56"/>
<path d="M175.141 104.179C176.541 104.179 177.676 102.961 177.676 101.459C177.676 99.9562 176.541 98.7384 175.141 98.7384C173.74 98.7384 172.605 99.9562 172.605 101.459C172.605 102.961 173.74 104.179 175.141 104.179Z" fill="#3F3D56"/>
<path d="M238.989 153.862H99.4248L101.78 150.683L136.333 104.038L137.924 101.891L152.2 82.6179L169.207 59.66L191.093 89.205L238.989 153.862Z" fill="#3F3D56"/>
<path d="M192.156 89.7422C191.257 90.3147 190.319 90.8124 189.349 91.231C184.405 93.3393 178.907 93.3974 173.926 91.3941C168.035 88.9948 163.139 83.7931 156.903 82.8358C154.994 82.5429 153.067 82.6712 151.137 82.795L169.074 58.5817L192.156 89.7422Z" fill="#F2F2F2"/>
<path d="M198.79 58.6473C199.265 60.2244 198.949 61.9399 198.562 63.5445C198.175 65.149 197.714 66.7903 197.912 68.4341C198.34 71.9862 201.581 74.2644 204.59 75.8151C207.599 77.3657 210.984 78.9749 212.31 82.2618C213.044 84.0799 213.009 86.1307 213.294 88.088C213.914 92.2197 215.962 95.9491 219.03 98.5328C216.475 98.4679 214.187 96.801 212.378 94.8638C210.57 92.9265 209.07 90.6598 207.124 88.8825C204.501 86.4871 201.225 85.1158 198.146 83.4596C195.067 81.8034 191.999 79.6744 190.405 76.3982C188.776 73.0491 188.956 68.9538 190.097 65.3796C190.944 62.7252 192.502 58.6061 194.508 56.7112C196.087 55.2196 198.192 56.6645 198.79 58.6473Z" fill="#F2F2F2"/>
<path d="M278.364 132.953H186.434V153.855H278.364V132.953Z" fill="#F2F2F2"/>
<path d="M183.499 135.243L193.506 112.766H273.428L280.9 135.243H183.499Z" fill="#3F3D56"/>
<path d="M245.542 114.198H208.45V127.369H245.542V114.198Z" fill="#F2F2F2"/>
<path d="M210.851 103.461L204.98 116.632H249.011L245.542 103.461H210.851Z" fill="#3F3D56"/>
<path d="M241.005 137.104H211.718V153.855H241.005V137.104Z" fill="#CCCCCC"/>
<path d="M205.647 137.677H190.037V153.855H205.647V137.677Z" fill="#CCCCCC"/>
<path d="M254.147 138.679H246.075V153.855H254.147V138.679Z" fill="#3F3D56"/>
<path d="M266.823 139.538H262.887V143.475H266.823V139.538Z" fill="#D9A514"/>
<path d="M272.094 139.538H268.158V143.475H272.094V139.538Z" fill="#D9A514"/>
<path d="M266.823 144.907H262.887V148.987H266.823V144.907Z" fill="#D9A514"/>
<path d="M272.094 144.907H268.158V148.987H272.094V144.907Z" fill="#D9A514"/>
<path d="M214.932 117.802H211.852V120.883H214.932V117.802Z" fill="#3F3D56"/>
<path d="M219.057 117.802H215.976V120.883H219.057V117.802Z" fill="#3F3D56"/>
<path d="M214.932 122.004H211.852V125.197H214.932V122.004Z" fill="#3F3D56"/>
<path d="M219.057 122.004H215.976V125.197H219.057V122.004Z" fill="#3F3D56"/>
<path d="M238.015 117.802H234.935V120.883H238.015V117.802Z" fill="#3F3D56"/>
<path d="M242.139 117.802H239.059V120.883H242.139V117.802Z" fill="#3F3D56"/>
<path d="M238.015 122.004H234.935V125.197H238.015V122.004Z" fill="#3F3D56"/>
<path d="M242.139 122.004H239.059V125.197H242.139V122.004Z" fill="#3F3D56"/>
<path d="M226.54 117.802H223.46V120.883H226.54V117.802Z" fill="#3F3D56"/>
<path d="M230.665 117.802H227.584V120.883H230.665V117.802Z" fill="#3F3D56"/>
<path d="M226.54 122.004H223.46V125.197H226.54V122.004Z" fill="#3F3D56"/>
<path d="M230.665 122.004H227.584V125.197H230.665V122.004Z" fill="#3F3D56"/>
<path d="M249.816 140.217H247.877V142.157H249.816V140.217Z" fill="#F2F2F2"/>
<path d="M252.413 140.217H250.474V142.157H252.413V140.217Z" fill="#F2F2F2"/>
<path d="M249.816 142.862H247.877V144.873H249.816V142.862Z" fill="#F2F2F2"/>
<path d="M252.413 142.862H250.474V144.873H252.413V142.862Z" fill="#F2F2F2"/>
<path d="M253.081 147.913C253.375 147.913 253.614 147.657 253.614 147.341C253.614 147.024 253.375 146.768 253.081 146.768C252.786 146.768 252.547 147.024 252.547 147.341C252.547 147.657 252.786 147.913 253.081 147.913Z" fill="#F2F2F2"/>
<path d="M220.906 100.027H216.502V101.162H217.383V104.465H220.025V101.162H220.906V100.027Z" fill="#F2F2F2"/>
<path d="M211.887 148.985C211.128 151.994 208.53 153.857 208.53 153.857C208.53 153.857 207.161 150.843 207.92 147.834C208.679 144.825 211.277 142.962 211.277 142.962C211.277 142.962 212.645 145.977 211.887 148.985Z" fill="#D9A514"/>
<path d="M204.986 148.985C205.744 151.994 208.343 153.857 208.343 153.857C208.343 153.857 209.711 150.843 208.952 147.834C208.194 144.825 205.596 142.962 205.596 142.962C205.596 142.962 204.227 145.977 204.986 148.985Z" fill="#D9A514"/>
<path d="M206.101 148.339C208.183 150.513 208.437 153.855 208.437 153.855C208.437 153.855 205.317 153.672 203.235 151.498C201.154 149.324 200.899 145.982 200.899 145.982C200.899 145.982 204.02 146.165 206.101 148.339Z" fill="#3F3D56"/>
<path d="M210.772 148.339C208.691 150.513 208.437 153.855 208.437 153.855C208.437 153.855 211.557 153.672 213.638 151.498C215.72 149.324 215.974 145.982 215.974 145.982C215.974 145.982 212.854 146.165 210.772 148.339Z" fill="#3F3D56"/>
<path d="M324 153.714H90V154H324V153.714Z" fill="#3F3D56"/>
<path d="M241.253 72.2761C241.249 72.5756 241.178 72.8696 241.044 73.1327C240.911 73.3957 240.719 73.6197 240.487 73.7851L240.423 73.828H211.569L211.685 73.4486C211.705 73.3813 213.818 66.8043 223.168 68.0742C224.05 67.7507 232.656 64.7356 237.808 68.1229C240.093 69.6261 241.253 71.0234 241.253 72.2761Z" fill="#F2F2F2"/>
<path d="M152.434 108.66C152.431 108.96 152.36 109.254 152.226 109.517C152.093 109.78 151.901 110.004 151.668 110.169L151.604 110.212H122.751L122.867 109.833C122.887 109.766 124.999 103.189 134.35 104.458C135.232 104.135 143.838 101.12 148.989 104.507C151.275 106.01 152.434 107.408 152.434 108.66Z" fill="#F2F2F2"/>
<path d="M10.2734 10.3984H13.0625C13.0078 7.69531 10.7031 5.78125 7.29688 5.78125C3.9375 5.78125 1.41406 7.67187 1.42188 10.5C1.42188 12.7969 3.05469 14.1172 5.6875 14.7969L7.50781 15.2656C9.23438 15.7031 10.375 16.2422 10.3828 17.4844C10.375 18.8516 9.07813 19.7656 7.1875 19.7656C5.375 19.7656 3.96875 18.9531 3.85156 17.2734H1C1.11719 20.4531 3.48438 22.2422 7.21094 22.2422C11.0469 22.2422 13.2734 20.3281 13.2813 17.5078C13.2734 14.7344 10.9844 13.4687 8.57813 12.8984L7.07813 12.5234C5.76563 12.2109 4.34375 11.6562 4.35938 10.3203C4.36719 9.11719 5.44531 8.23437 7.25781 8.23437C8.98438 8.23437 10.125 9.03906 10.2734 10.3984ZM15.7402 26.5H18.5684V20.1094H18.6855C19.1309 20.9844 20.0605 22.2109 22.123 22.2109C24.9512 22.2109 27.0684 19.9687 27.0684 16.0156C27.0684 12.0156 24.8887 9.84375 22.1152 9.84375C19.998 9.84375 19.1152 11.1172 18.6855 11.9844H18.5215V10H15.7402V26.5ZM18.5137 16C18.5137 13.6719 19.5137 12.1641 21.334 12.1641C23.2168 12.1641 24.1855 13.7656 24.1855 16C24.1855 18.25 23.2012 19.8906 21.334 19.8906C19.5293 19.8906 18.5137 18.3281 18.5137 16ZM32.3184 6H29.4902V22H32.3184V6ZM35.2266 22H38.0547V10H35.2266V22ZM36.6484 8.29688C37.5469 8.29688 38.2813 7.60938 38.2813 6.76562C38.2813 5.91406 37.5469 5.22656 36.6484 5.22656C35.7422 5.22656 35.0078 5.91406 35.0078 6.76562C35.0078 7.60938 35.7422 8.29688 36.6484 8.29688ZM46.9551 10H44.5879V7.125H41.7598V10H40.0566V12.1875H41.7598V18.8594C41.7441 21.1172 43.3848 22.2266 45.5098 22.1641C46.3145 22.1406 46.8691 21.9844 47.1738 21.8828L46.6973 19.6719C46.541 19.7109 46.2207 19.7812 45.8691 19.7812C45.1582 19.7812 44.5879 19.5312 44.5879 18.3906V12.1875H46.9551V10ZM60.7695 10H58.4023V7.125H55.5742V10H53.8711V12.1875H55.5742V18.8594C55.5586 21.1172 57.1992 22.2266 59.3242 22.1641C60.1289 22.1406 60.6836 21.9844 60.9883 21.8828L60.5117 19.6719C60.3555 19.7109 60.0352 19.7812 59.6836 19.7812C58.9727 19.7812 58.4023 19.5312 58.4023 18.3906V12.1875H60.7695V10ZM66.2207 14.9687C66.2207 13.2344 67.2988 12.2344 68.8145 12.2344C70.2988 12.2344 71.1738 13.1797 71.1738 14.7969V22H74.002V14.3594C74.002 11.4609 72.3613 9.84375 69.8691 9.84375C68.0254 9.84375 66.8535 10.6797 66.2988 12.0391H66.1582V6H63.3926V22H66.2207V14.9687ZM76.8848 22H79.7129V10H76.8848V22ZM78.3066 8.29688C79.2051 8.29688 79.9395 7.60938 79.9395 6.76562C79.9395 5.91406 79.2051 5.22656 78.3066 5.22656C77.4004 5.22656 76.666 5.91406 76.666 6.76562C76.666 7.60938 77.4004 8.29688 78.3066 8.29688ZM92.1055 13.1719C91.7148 11.1406 90.0898 9.84375 87.2773 9.84375C84.3867 9.84375 82.418 11.2656 82.4258 13.4844C82.418 15.2344 83.4961 16.3906 85.8008 16.8672L87.8477 17.2969C88.9492 17.5391 89.4648 17.9844 89.4648 18.6641C89.4648 19.4844 88.5742 20.1016 87.2305 20.1016C85.9336 20.1016 85.0898 19.5391 84.8477 18.4609L82.0898 18.7266C82.4414 20.9297 84.293 22.2344 87.2383 22.2344C90.2383 22.2344 92.3555 20.6797 92.3633 18.4062C92.3555 16.6953 91.2539 15.6484 88.9883 15.1562L86.9414 14.7188C85.7227 14.4453 85.2383 14.0234 85.2461 13.3281C85.2383 12.5156 86.1367 11.9531 87.3164 11.9531C88.6211 11.9531 89.3086 12.6641 89.5273 13.4531L92.1055 13.1719ZM100.152 26.5H102.98V20.1094H103.098C103.543 20.9844 104.473 22.2109 106.535 22.2109C109.363 22.2109 111.48 19.9687 111.48 16.0156C111.48 12.0156 109.301 9.84375 106.527 9.84375C104.41 9.84375 103.527 11.1172 103.098 11.9844H102.934V10H100.152V26.5ZM102.926 16C102.926 13.6719 103.926 12.1641 105.746 12.1641C107.629 12.1641 108.598 13.7656 108.598 16C108.598 18.25 107.613 19.8906 105.746 19.8906C103.941 19.8906 102.926 18.3281 102.926 16ZM117.355 22.2422C119.238 22.2422 120.363 21.3594 120.879 20.3516H120.973V22H123.691V13.9687C123.691 10.7969 121.105 9.84375 118.816 9.84375C116.293 9.84375 114.355 10.9687 113.73 13.1562L116.371 13.5312C116.652 12.7109 117.449 12.0078 118.832 12.0078C120.145 12.0078 120.863 12.6797 120.863 13.8594V13.9062C120.863 14.7188 120.012 14.7578 117.895 14.9844C115.566 15.2344 113.34 15.9297 113.34 18.6328C113.34 20.9922 115.066 22.2422 117.355 22.2422ZM118.09 20.1641C116.91 20.1641 116.066 19.625 116.066 18.5859C116.066 17.5 117.012 17.0469 118.277 16.8672C119.02 16.7656 120.504 16.5781 120.871 16.2812V17.6953C120.871 19.0312 119.793 20.1641 118.09 20.1641ZM127.863 26.5C130.066 26.5 131.34 25.3672 132.02 23.4531L136.84 10.0156L133.816 10L131.043 19.0625H130.918L128.152 10H125.152L129.504 22.25L129.262 22.8984C128.738 24.2656 127.91 24.3594 126.676 24L126.02 26.2031C126.402 26.3594 127.09 26.5 127.863 26.5ZM138.803 22H141.631V14.7031C141.631 13.2266 142.615 12.2266 143.834 12.2266C145.029 12.2266 145.85 13.0312 145.85 14.2656V22H148.623V14.5156C148.623 13.1641 149.428 12.2266 150.795 12.2266C151.936 12.2266 152.842 12.8984 152.842 14.3828V22H155.678V13.9453C155.678 11.2656 154.131 9.84375 151.928 9.84375C150.186 9.84375 148.857 10.7031 148.326 12.0391H148.201C147.74 10.6797 146.576 9.84375 144.959 9.84375C143.35 9.84375 142.146 10.6719 141.646 12.0391H141.506V10H138.803V22ZM163.859 22.2344C166.656 22.2344 168.578 20.8672 169.078 18.7812L166.438 18.4844C166.055 19.5 165.117 20.0312 163.898 20.0312C162.07 20.0312 160.859 18.8281 160.836 16.7734H169.195V15.9062C169.195 11.6953 166.664 9.84375 163.711 9.84375C160.273 9.84375 158.031 12.3672 158.031 16.0703C158.031 19.8359 160.242 22.2344 163.859 22.2344ZM160.844 14.8672C160.93 13.3359 162.063 12.0469 163.75 12.0469C165.375 12.0469 166.469 13.2344 166.484 14.8672H160.844ZM174.416 14.9687C174.416 13.2344 175.463 12.2344 176.955 12.2344C178.416 12.2344 179.291 13.1953 179.291 14.7969V22H182.119V14.3594C182.127 11.4844 180.486 9.84375 178.01 9.84375C176.213 9.84375 174.979 10.7031 174.432 12.0391H174.291V10H171.588V22H174.416V14.9687ZM190.986 10H188.619V7.125H185.791V10H184.088V12.1875H185.791V18.8594C185.775 21.1172 187.416 22.2266 189.541 22.1641C190.346 22.1406 190.9 21.9844 191.205 21.8828L190.729 19.6719C190.572 19.7109 190.252 19.7812 189.9 19.7812C189.189 19.7812 188.619 19.5312 188.619 18.3906V12.1875H190.986V10ZM198.809 22H201.637V10H198.809V22ZM200.23 8.29688C201.129 8.29688 201.863 7.60938 201.863 6.76562C201.863 5.91406 201.129 5.22656 200.23 5.22656C199.324 5.22656 198.59 5.91406 198.59 6.76562C198.59 7.60938 199.324 8.29688 200.23 8.29688ZM207.373 14.9687C207.373 13.2344 208.42 12.2344 209.912 12.2344C211.373 12.2344 212.248 13.1953 212.248 14.7969V22H215.076V14.3594C215.084 11.4844 213.443 9.84375 210.967 9.84375C209.17 9.84375 207.936 10.7031 207.389 12.0391H207.248V10H204.545V22H207.373V14.9687ZM223.943 10H221.576V7.125H218.748V10H217.045V12.1875H218.748V18.8594C218.732 21.1172 220.373 22.2266 222.498 22.1641C223.303 22.1406 223.857 21.9844 224.162 21.8828L223.686 19.6719C223.529 19.7109 223.209 19.7812 222.857 19.7812C222.146 19.7812 221.576 19.5312 221.576 18.3906V12.1875H223.943V10ZM231.414 22.2344C234.93 22.2344 237.164 19.7578 237.164 16.0469C237.164 12.3281 234.93 9.84375 231.414 9.84375C227.898 9.84375 225.664 12.3281 225.664 16.0469C225.664 19.7578 227.898 22.2344 231.414 22.2344ZM231.43 19.9687C229.484 19.9687 228.531 18.2344 228.531 16.0391C228.531 13.8437 229.484 12.0859 231.43 12.0859C233.344 12.0859 234.297 13.8437 234.297 16.0391C234.297 18.2344 233.344 19.9687 231.43 19.9687Z" fill="black"/>
<path d="M7.16406 49.2187C10.5859 49.2187 13.0781 47.2578 13.0703 44.5547C13.0781 42.5547 11.8281 41.1172 9.58594 40.7969V40.6719C11.3203 40.2969 12.4844 39.0078 12.4766 37.2109C12.4844 34.7734 10.4063 32.7812 7.21094 32.7812C4.10156 32.7812 1.69531 34.6328 1.63281 37.3125H4.42188C4.46875 35.9687 5.71875 35.1328 7.19531 35.1328C8.6875 35.1328 9.67969 36.0391 9.67188 37.3828C9.67969 38.7812 8.52344 39.7109 6.86719 39.7109H5.45313V41.9453H6.86719C8.89063 41.9453 10.0938 42.9609 10.0859 44.4062C10.0938 45.8203 8.86719 46.7891 7.15625 46.7891C5.54688 46.7891 4.30469 45.9531 4.23438 44.6484H1.29688C1.375 47.3516 3.78906 49.2187 7.16406 49.2187ZM26.5527 49.2344C29.3496 49.2344 31.2715 47.8672 31.7715 45.7812L29.1309 45.4844C28.748 46.5 27.8105 47.0312 26.5918 47.0312C24.7637 47.0312 23.5527 45.8281 23.5293 43.7734H31.8887V42.9062C31.8887 38.6953 29.3574 36.8438 26.4043 36.8438C22.9668 36.8438 20.7246 39.3672 20.7246 43.0703C20.7246 46.8359 22.9355 49.2344 26.5527 49.2344ZM23.5371 41.8672C23.623 40.3359 24.7559 39.0469 26.4434 39.0469C28.0684 39.0469 29.1621 40.2344 29.1777 41.8672H23.5371ZM45.1172 53.5V37H42.3359V38.9844H42.1719C41.7422 38.1172 40.8594 36.8438 38.7422 36.8438C35.9688 36.8438 33.7891 39.0156 33.7891 43.0156C33.7891 46.9687 35.9063 49.2109 38.7344 49.2109C40.7969 49.2109 41.7266 47.9844 42.1719 47.1094H42.2891V53.5H45.1172ZM42.3438 43C42.3438 45.3281 41.3281 46.8906 39.5234 46.8906C37.6563 46.8906 36.6719 45.25 36.6719 43C36.6719 40.7656 37.6406 39.1641 39.5234 39.1641C41.3438 39.1641 42.3438 40.6719 42.3438 43ZM55.6797 43.9531C55.6797 45.7812 54.375 46.6875 53.125 46.6875C51.7656 46.6875 50.8594 45.7266 50.8594 44.2031V37H48.0313V44.6406C48.0313 47.5234 49.6719 49.1563 52.0313 49.1563C53.8281 49.1563 55.0938 48.2109 55.6406 46.8672H55.7656V49H58.5078V37H55.6797V43.9531ZM64.8691 49.2422C66.752 49.2422 67.877 48.3594 68.3926 47.3516H68.4863V49H71.2051V40.9687C71.2051 37.7969 68.6191 36.8438 66.3301 36.8438C63.8066 36.8438 61.8691 37.9687 61.2441 40.1562L63.8848 40.5312C64.166 39.7109 64.9629 39.0078 66.3457 39.0078C67.6582 39.0078 68.377 39.6797 68.377 40.8594V40.9062C68.377 41.7188 67.5254 41.7578 65.4082 41.9844C63.0801 42.2344 60.8535 42.9297 60.8535 45.6328C60.8535 47.9922 62.5801 49.2422 64.8691 49.2422ZM65.6035 47.1641C64.4238 47.1641 63.5801 46.625 63.5801 45.5859C63.5801 44.5 64.5254 44.0469 65.791 43.8672C66.5332 43.7656 68.0176 43.5781 68.3848 43.2812V44.6953C68.3848 46.0312 67.3066 47.1641 65.6035 47.1641ZM76.877 33H74.0488V49H76.877V33ZM85.2422 53.5H88.0703V47.1094H88.1875C88.6328 47.9844 89.5625 49.2109 91.625 49.2109C94.4531 49.2109 96.5703 46.9687 96.5703 43.0156C96.5703 39.0156 94.3906 36.8438 91.6172 36.8438C89.5 36.8438 88.6172 38.1172 88.1875 38.9844H88.0234V37H85.2422V53.5ZM88.0156 43C88.0156 40.6719 89.0156 39.1641 90.8359 39.1641C92.7188 39.1641 93.6875 40.7656 93.6875 43C93.6875 45.25 92.7031 46.8906 90.8359 46.8906C89.0312 46.8906 88.0156 45.3281 88.0156 43ZM102.445 49.2422C104.328 49.2422 105.453 48.3594 105.969 47.3516H106.063V49H108.781V40.9687C108.781 37.7969 106.195 36.8438 103.906 36.8438C101.383 36.8438 99.4453 37.9687 98.8203 40.1562L101.461 40.5312C101.742 39.7109 102.539 39.0078 103.922 39.0078C105.234 39.0078 105.953 39.6797 105.953 40.8594V40.9062C105.953 41.7188 105.102 41.7578 102.984 41.9844C100.656 42.2344 98.4297 42.9297 98.4297 45.6328C98.4297 47.9922 100.156 49.2422 102.445 49.2422ZM103.18 47.1641C102 47.1641 101.156 46.625 101.156 45.5859C101.156 44.5 102.102 44.0469 103.367 43.8672C104.109 43.7656 105.594 43.5781 105.961 43.2812V44.6953C105.961 46.0312 104.883 47.1641 103.18 47.1641ZM112.953 53.5C115.156 53.5 116.43 52.3672 117.109 50.4531L121.93 37.0156L118.906 37L116.133 46.0625H116.008L113.242 37H110.242L114.594 49.25L114.352 49.8984C113.828 51.2656 113 51.3594 111.766 51L111.109 53.2031C111.492 53.3594 112.18 53.5 112.953 53.5ZM123.893 49H126.721V41.7031C126.721 40.2266 127.705 39.2266 128.924 39.2266C130.119 39.2266 130.939 40.0312 130.939 41.2656V49H133.713V41.5156C133.713 40.1641 134.518 39.2266 135.885 39.2266C137.025 39.2266 137.932 39.8984 137.932 41.3828V49H140.768V40.9453C140.768 38.2656 139.221 36.8438 137.018 36.8438C135.275 36.8438 133.947 37.7031 133.416 39.0391H133.291C132.83 37.6797 131.666 36.8438 130.049 36.8438C128.439 36.8438 127.236 37.6719 126.736 39.0391H126.596V37H123.893V49ZM148.949 49.2344C151.746 49.2344 153.668 47.8672 154.168 45.7812L151.527 45.4844C151.145 46.5 150.207 47.0312 148.988 47.0312C147.16 47.0312 145.949 45.8281 145.926 43.7734H154.285V42.9062C154.285 38.6953 151.754 36.8438 148.801 36.8438C145.363 36.8438 143.121 39.3672 143.121 43.0703C143.121 46.8359 145.332 49.2344 148.949 49.2344ZM145.934 41.8672C146.02 40.3359 147.152 39.0469 148.84 39.0469C150.465 39.0469 151.559 40.2344 151.574 41.8672H145.934ZM159.506 41.9687C159.506 40.2344 160.553 39.2344 162.045 39.2344C163.506 39.2344 164.381 40.1953 164.381 41.7969V49H167.209V41.3594C167.217 38.4844 165.576 36.8438 163.1 36.8438C161.303 36.8438 160.068 37.7031 159.521 39.0391H159.381V37H156.678V49H159.506V41.9687ZM176.076 37H173.709V34.125H170.881V37H169.178V39.1875H170.881V45.8594C170.865 48.1172 172.506 49.2266 174.631 49.1641C175.436 49.1406 175.99 48.9844 176.295 48.8828L175.818 46.6719C175.662 46.7109 175.342 46.7812 174.99 46.7812C174.279 46.7812 173.709 46.5312 173.709 45.3906V39.1875H176.076V37ZM187.754 40.1719C187.363 38.1406 185.738 36.8438 182.926 36.8438C180.035 36.8438 178.066 38.2656 178.074 40.4844C178.066 42.2344 179.145 43.3906 181.449 43.8672L183.496 44.2969C184.598 44.5391 185.113 44.9844 185.113 45.6641C185.113 46.4844 184.223 47.1016 182.879 47.1016C181.582 47.1016 180.738 46.5391 180.496 45.4609L177.738 45.7266C178.09 47.9297 179.941 49.2344 182.887 49.2344C185.887 49.2344 188.004 47.6797 188.012 45.4062C188.004 43.6953 186.902 42.6484 184.637 42.1562L182.59 41.7188C181.371 41.4453 180.887 41.0234 180.895 40.3281C180.887 39.5156 181.785 38.9531 182.965 38.9531C184.27 38.9531 184.957 39.6641 185.176 40.4531L187.754 40.1719Z" fill="#186ADE"/>
</svg>
