<svg width="134" height="108" viewBox="0 0 134 108" fill="none" xmlns="http://www.w3.org/2000/svg">
<g clip-path="url(#clip0)">
<path d="M76.3374 95.5451C75.4108 94.2481 74.1565 93.2991 72.5795 92.9439C71.2045 92.6342 69.7906 92.687 68.3928 92.6977L50.7187 92.834C49.205 92.8456 47.7537 94.1566 47.824 95.7276C47.8938 97.2854 49.0962 98.6337 50.7187 98.6212C55.896 98.5813 61.0733 98.5414 66.2505 98.5015C67.4711 98.4921 68.6923 98.4701 69.913 98.4741C70.1871 98.475 70.4601 98.4894 70.7339 98.4925C70.8002 98.4933 70.8481 98.4927 70.882 98.4913C70.8904 98.4938 70.8976 98.4962 70.9086 98.4992C71.0515 98.5384 71.198 98.5655 71.3417 98.6027C71.2914 98.6042 71.4349 98.6937 71.507 98.7241C71.5169 98.7436 71.538 98.7782 71.5733 98.8317C71.6225 98.9239 71.7682 99.204 71.7742 99.1952C71.993 99.7484 72.1736 100.316 72.3145 100.894C72.6509 102.168 72.7249 102.435 72.7733 103.631C72.8345 105.141 74.0609 106.596 75.6679 106.524C77.1838 106.456 78.6282 105.251 78.5626 103.631C78.452 100.901 77.9727 97.8343 76.3374 95.5451Z" fill="#E6E6E6"/>
<path d="M51.7576 102.075C51.4256 100.064 51.1 98.0515 50.7616 96.0417C50.4182 94.0027 49.7169 92.1356 48.1297 90.7974C47.7056 90.4399 47.2658 90.1061 46.8242 89.7733C46.6689 89.6564 46.5139 89.5392 46.3604 89.4196C46.3513 89.4125 46.3454 89.408 46.3375 89.4018C46.3206 89.3873 46.3004 89.3701 46.2731 89.3471C45.6116 88.7874 44.9724 88.2028 44.3635 87.5814C43.8227 87.0295 43.3056 86.4541 42.8122 85.8552C42.6888 85.7056 42.5671 85.5546 42.447 85.4024C42.4263 85.3762 42.315 85.2324 42.2417 85.1385C42.1735 85.0446 42.0488 84.875 42.0279 84.8454C41.8875 84.647 41.7497 84.4468 41.6143 84.2446C40.6923 82.8638 39.894 81.4044 39.2286 79.8833C39.1626 79.7325 39.0981 79.5807 39.0353 79.4281C39.0184 79.3815 38.9966 79.3217 38.9676 79.2421C38.8335 78.8734 38.6997 78.5052 38.5771 78.1322C38.3166 77.34 38.0926 76.536 37.9052 75.7204C37.8125 75.3176 37.7291 74.9128 37.6549 74.506C37.6167 74.2967 37.5809 74.0871 37.5476 73.877C37.5421 73.8421 37.5096 73.6155 37.4904 73.4874C37.4763 73.3587 37.45 73.1308 37.4464 73.0956C37.4252 72.8839 37.4064 72.6719 37.39 72.4597C37.353 71.9822 37.3279 71.504 37.3149 71.0249C37.2926 70.1735 37.3079 69.3222 37.3607 68.471C37.3907 67.9927 37.4335 67.5156 37.4861 67.0395C37.4893 67.0102 37.4918 66.987 37.4941 66.966C37.4972 66.9447 37.5009 66.9206 37.5054 66.8905C37.5443 66.6274 37.5853 66.3646 37.6312 66.1026C37.8048 65.108 38.0306 64.1232 38.3077 63.1523C38.4388 62.6931 38.5813 62.2377 38.7351 61.7859C38.8037 61.5854 38.8744 61.3856 38.9473 61.1866C38.9425 61.1995 39.1612 60.6412 39.1641 60.6225C40.0316 58.5736 41.4504 56.7058 41.4524 54.3783C41.4537 52.8025 40.1201 51.293 38.5577 51.3658C37.7788 51.3951 37.0416 51.7256 36.5017 52.2876C35.9617 52.8495 35.661 53.5991 35.6631 54.3783C35.6631 54.4137 35.6629 54.4439 35.6628 54.4732C35.6482 54.5223 35.636 54.5632 35.6251 54.5994C35.4559 54.9669 35.2487 55.3161 35.063 55.6744C34.5545 56.6553 34.1205 57.6683 33.7082 58.6962C33.0333 60.3701 32.5167 62.1035 32.1652 63.8736C31.4011 67.7522 31.3417 71.7367 31.9901 75.6363C33.1124 82.4748 36.8136 89.0209 41.9591 93.4211C42.4056 93.8029 42.8631 94.1719 43.3248 94.5335C43.5159 94.683 43.7085 94.8299 43.9022 94.9758C43.9937 95.0447 44.3728 95.3436 44.2061 95.1988C44.5647 95.5048 44.7157 95.6588 44.8078 95.8841C44.8211 95.9362 44.8393 96.0067 44.864 96.1031C44.9289 96.3573 44.9906 96.6109 45.0418 96.8686C45.4897 99.1205 45.801 101.41 46.1751 103.676C46.4323 105.234 48.3501 106.247 49.7359 105.781C51.349 105.237 52.0331 103.743 51.7576 102.075Z" fill="#E6E6E6"/>
<path d="M76.6302 107.915C75.4145 107.919 74.2472 107.44 73.3844 106.584C72.5215 105.727 72.0336 104.564 72.0277 103.349V100.048C68.5706 100.435 56.7324 100.345 53.3391 99.8004V103.217C53.33 104.431 52.8411 105.593 51.9789 106.448C51.1167 107.303 49.9513 107.783 48.7365 107.783C47.5218 107.783 46.3564 107.303 45.4942 106.448C44.632 105.593 44.1431 104.431 44.134 103.217V96.5088C39.538 93.9565 35.7065 90.2244 33.0351 85.6976C30.3636 81.1709 28.949 76.0135 28.9371 70.7577C28.9371 61.7459 33.0227 53.3391 40.1464 47.6931C44.7782 44.0096 50.4057 41.7944 56.3063 41.3319C57.1072 41.2691 57.913 41.2373 58.7014 41.2373C61.4788 41.2373 74.0102 41.6663 77.1544 42.5705L84.3237 35.4591C84.4291 35.3531 84.5637 35.281 84.7103 35.2518C84.8569 35.2225 85.0089 35.2376 85.1469 35.2951C85.2859 35.3504 85.405 35.4464 85.4884 35.5706C85.5719 35.6948 85.6158 35.8412 85.6145 35.9908V37.1215L87.0105 35.7394C87.1157 35.6333 87.2501 35.561 87.3966 35.5318C87.5432 35.5025 87.6951 35.5176 87.833 35.5752C87.9721 35.6304 88.0913 35.7265 88.1748 35.8507C88.2584 35.9749 88.3024 36.1214 88.3011 36.2711V48.9062C91.8985 52.1482 94.6404 56.2273 96.2838 60.7819C97.9271 65.3365 98.4211 70.2261 97.722 75.0172C97.023 79.8083 95.1524 84.353 92.2761 88.2487C89.3998 92.1443 85.6066 95.2705 81.2326 97.3502V103.349C81.2267 104.564 80.7388 105.727 79.876 106.584C79.0131 107.44 77.8458 107.919 76.6302 107.915V107.915ZM72.3895 99.638V103.349C72.3986 104.467 72.8494 105.537 73.6437 106.324C74.438 107.112 75.5114 107.554 76.6301 107.554C77.7489 107.554 78.8223 107.112 79.6166 106.324C80.4109 105.537 80.8617 104.467 80.8708 103.349V97.1218L80.9741 97.0728C85.8819 94.7447 90.0483 91.1025 93.0106 86.5505C96.7854 80.7419 98.3552 73.7742 97.436 66.9087C96.5168 60.0432 93.1693 53.7335 87.9994 49.1215L87.9392 49.0676V36.2711C87.9405 36.1933 87.918 36.1171 87.8746 36.0525C87.8312 35.988 87.769 35.9383 87.6965 35.9102C87.6244 35.8794 87.5447 35.8711 87.4678 35.8863C87.391 35.9016 87.3205 35.9397 87.2657 35.9957L85.2526 37.9888V35.9908C85.2539 35.913 85.2313 35.8368 85.1879 35.7722C85.1445 35.7077 85.0824 35.658 85.0099 35.6299C84.9376 35.5991 84.8578 35.5909 84.7808 35.6063C84.7038 35.6217 84.6332 35.6599 84.5783 35.7161L77.2555 42.9797L77.1515 42.9471C74.2286 42.0326 61.4999 41.599 58.7013 41.599C57.9223 41.599 57.1261 41.6305 56.3347 41.6926C50.5058 42.1494 44.9467 44.3377 40.3712 47.9764C33.3346 53.5535 29.2989 61.857 29.2989 70.7577C29.3109 75.967 30.718 81.078 33.374 85.5598C36.03 90.0417 39.838 93.7309 44.4025 96.2442L44.4958 96.2959V103.217C44.5052 104.335 44.9561 105.404 45.7503 106.192C46.5446 106.979 47.6179 107.421 48.7365 107.421C49.8552 107.421 50.9285 106.979 51.7228 106.192C52.517 105.404 52.9679 104.335 52.9772 103.217V99.3674L53.1916 99.4077C56.2411 99.9812 69.0818 100.072 72.185 99.6647L72.3895 99.638Z" fill="#3F3D56"/>
<path d="M52.1034 21.5426L32.0687 27.5613C31.4315 27.7535 30.8966 28.1907 30.5817 28.7769C30.2667 29.3631 30.1974 30.0502 30.3889 30.6874C30.5805 31.3247 31.0172 31.8598 31.6033 32.1753C32.1893 32.4909 32.8766 32.5609 33.5143 32.3702L51.0468 27.102L51.4141 26.9916C51.4884 25.0997 52.0019 23.2509 52.9139 21.5914C52.7994 21.5399 52.6771 21.5081 52.5521 21.4974C52.401 21.4827 52.2485 21.4981 52.1034 21.5426Z" fill="#D9A514"/>
<path d="M33.1678 33.6534C32.9019 33.6527 32.6428 33.5685 32.4274 33.4127C32.2119 33.2569 32.0508 33.0373 31.9669 32.7851L30.7141 29.006C30.6618 28.8482 30.6411 28.6816 30.6532 28.5158C30.6652 28.35 30.7099 28.1881 30.7845 28.0396C30.8592 27.891 30.9624 27.7586 31.0882 27.6499C31.2141 27.5412 31.3601 27.4583 31.518 27.4061L47.8242 22.004C47.982 21.9517 48.1486 21.931 48.3145 21.943C48.4804 21.9551 48.6422 21.9997 48.7908 22.0743C48.9395 22.1489 49.0719 22.252 49.1807 22.3778C49.2894 22.5036 49.3723 22.6495 49.4247 22.8073L50.6775 26.5864C50.7817 26.8972 50.7608 27.2364 50.6192 27.5321C50.4776 27.8278 50.2264 28.0568 49.9189 28.1705C49.9038 28.1762 49.8886 28.1815 49.8732 28.1865L33.5674 33.5884C33.4386 33.6313 33.3036 33.6533 33.1678 33.6534Z" fill="#2F2E41"/>
<path d="M63.7055 14.8312C60.4145 14.8325 57.2531 16.1138 54.8904 18.4041C52.5278 20.6943 51.1493 23.8137 51.0468 27.102C51.0432 27.2304 51.0414 27.3606 51.0414 27.4908C51.0414 29.9946 51.7841 32.4422 53.1757 34.5241C54.5672 36.606 56.5451 38.2286 58.8592 39.1868C61.1732 40.1449 63.7196 40.3956 66.1762 39.9072C68.6328 39.4187 70.8893 38.213 72.6604 36.4425C74.4315 34.672 75.6377 32.4163 76.1263 29.9606C76.615 27.5049 76.3642 24.9594 75.4056 22.6462C74.4471 20.333 72.8239 18.3558 70.7413 16.9647C68.6587 15.5737 66.2103 14.8312 63.7055 14.8312V14.8312ZM63.7055 39.7887C60.4438 39.7853 57.3166 38.4886 55.0103 36.183C52.7039 33.8774 51.4066 30.7514 51.4032 27.4908C51.4032 27.3226 51.4069 27.1562 51.4141 26.9917C51.5121 24.5827 52.3162 22.2556 53.7266 20.2999C55.137 18.3441 57.0914 16.8459 59.3467 15.9916C61.602 15.1373 64.0588 14.9645 66.4116 15.4948C68.7643 16.025 70.9093 17.2349 72.5797 18.9741C74.2501 20.7132 75.3722 22.9048 75.8066 25.2763C76.241 27.6478 75.9685 30.0947 75.0229 32.3126C74.0773 34.5306 72.5003 36.4217 70.4882 37.7509C68.476 39.0801 66.1173 39.7888 63.7055 39.7887V39.7887Z" fill="#3F3D56"/>
<path d="M74.3795 27.4908C74.3795 30.3207 73.255 33.0347 71.2532 35.0358C69.2514 37.0368 66.5364 38.161 63.7055 38.161C60.8746 38.161 58.1596 37.0368 56.1578 35.0358C54.156 33.0347 53.0315 30.3207 53.0315 27.4908C53.0315 27.1526 53.0477 26.8198 53.0785 26.4907C53.3357 23.7595 54.6353 21.2323 56.7075 19.4338C58.7796 17.6353 61.4651 16.7036 64.2063 16.8323C66.9475 16.961 69.5338 18.1402 71.4282 20.1249C73.3226 22.1097 74.3795 24.7475 74.3795 27.4908V27.4908Z" fill="#E6E6E6"/>
<path d="M66.8842 28.1997C66.6254 27.8597 66.2851 27.5903 65.8946 27.4166C65.413 27.2137 64.9156 27.0504 64.4074 26.9283V24.0239C65.1886 24.1416 65.9212 24.4755 66.5223 24.9878L67.1122 23.7309C66.7729 23.4288 66.3835 23.1883 65.9615 23.0201C65.4937 22.8308 65.0027 22.7049 64.5015 22.6458V21.1736H63.1356V22.6602C62.6082 22.7195 62.0994 22.8902 61.6431 23.1612C61.2309 23.4051 60.8839 23.7451 60.6317 24.1523C60.3911 24.5496 60.2664 25.0062 60.2717 25.4707C60.2482 25.974 60.3941 26.4706 60.686 26.8813C60.9547 27.2369 61.3096 27.5182 61.7172 27.6988C62.2065 27.9077 62.7124 28.0752 63.2297 28.1997V30.983C62.3079 30.9135 61.4296 30.5632 60.7132 29.9793L60.1234 31.238C60.524 31.5691 60.9796 31.8274 61.4694 32.0012C62.0062 32.1932 62.5669 32.3101 63.1357 32.3485V33.8079H64.5015V32.3213C65.2602 32.2385 65.9717 31.9123 66.5296 31.3917C66.7753 31.1562 66.9694 30.8722 67.0996 30.5578C67.2297 30.2434 67.2932 29.9054 67.2859 29.5652C67.3085 29.0779 67.1671 28.5971 66.8842 28.1997V28.1997ZM63.2297 26.6209C62.897 26.52 62.5877 26.354 62.3197 26.1326C62.2135 26.0382 62.1296 25.9214 62.0739 25.7907C62.0182 25.66 61.9922 25.5186 61.9977 25.3766C61.9878 25.0545 62.1062 24.7417 62.3269 24.5067C62.5716 24.2603 62.8873 24.0965 63.2297 24.0383V26.6209ZM65.265 30.4694C65.0342 30.706 64.7337 30.8626 64.4074 30.9161V28.5216C64.7193 28.6053 65.011 28.7511 65.265 28.9503C65.3613 29.0325 65.4378 29.1353 65.4889 29.2512C65.5399 29.367 65.5642 29.4929 65.5599 29.6194C65.5725 29.9298 65.4671 30.2334 65.265 30.4694V30.4694Z" fill="#D9A514"/>
<path d="M33.7493 48.9695C33.4696 48.969 33.1979 48.8763 32.9763 48.7058C32.7547 48.5352 32.5955 48.2963 32.5236 48.0262L31.8415 45.4454C31.7561 45.1211 31.8029 44.7761 31.9717 44.4861C32.1404 44.1962 32.4173 43.985 32.7416 43.8989L54.2598 38.2148C54.5846 38.1301 54.9296 38.1774 55.2195 38.3464C55.5094 38.5153 55.7206 38.7922 55.8068 39.1164L56.3847 41.3029L56.2764 41.3113C50.7576 41.7402 45.4773 43.7404 41.06 47.0752L41.0286 47.0904L34.0706 48.9278C33.9657 48.9555 33.8577 48.9695 33.7493 48.9695V48.9695Z" fill="#2F2E41"/>
<path d="M30.1854 61.717C27.6612 61.3442 25.2471 60.4318 23.1076 59.0419C22.0476 58.3538 21.0664 57.5515 20.1815 56.6495C19.308 55.7589 18.4724 54.7467 18.0398 53.5607C17.6236 52.4634 17.645 51.2482 18.0997 50.1662C18.5483 49.0909 19.405 48.2373 20.4822 47.7925C21.5658 47.3605 22.875 47.3143 23.9296 47.7874C24.4322 48.0076 24.867 48.3575 25.1896 48.8012C25.3395 49.0058 25.4505 49.2361 25.5171 49.4809C25.5789 49.7026 25.5845 49.9362 25.5334 50.1607C25.4716 50.3848 25.3625 50.5931 25.2136 50.7716C25.0646 50.9501 24.8792 51.0947 24.6698 51.1957C24.2088 51.4321 23.7094 51.5844 23.1949 51.6454C22.6775 51.7159 21.9342 51.7801 21.5182 51.3649C21.4326 51.2827 21.3652 51.1834 21.3205 51.0735C21.2892 50.9894 21.2786 50.899 21.2893 50.8098C21.2833 50.8491 21.3144 50.7244 21.3126 50.7294C21.3061 50.7478 21.2776 50.7928 21.3181 50.7237C21.3307 50.701 21.3448 50.679 21.3603 50.6581C21.3465 50.6758 21.3163 50.7055 21.3702 50.6546C21.4148 50.6059 21.4721 50.5705 21.5356 50.5525C21.5607 50.5452 21.5861 50.5394 21.6112 50.5326C21.675 50.5152 21.5476 50.5335 21.6129 50.5314C21.6381 50.5306 21.6636 50.5313 21.6887 50.5301C21.7527 50.5273 21.6255 50.5127 21.6869 50.5281C21.7107 50.5341 21.7343 50.5399 21.7578 50.5473C21.8088 50.5634 21.7216 50.5099 21.7562 50.5499C21.7968 50.5969 21.7137 50.5043 21.7597 50.5497C21.7827 50.5722 21.8043 50.596 21.8245 50.621C21.9043 50.6999 22.0121 50.7441 22.1243 50.7441C22.2366 50.7441 22.3443 50.6999 22.4242 50.621C22.5014 50.5403 22.5444 50.4329 22.5444 50.3213C22.5444 50.2096 22.5014 50.1023 22.4242 50.0215C22.006 49.5033 21.18 49.6314 20.757 50.0693C20.2175 50.6279 20.4311 51.5131 20.9559 52.0005C21.55 52.5522 22.3914 52.5905 23.1556 52.498C23.8014 52.4362 24.4307 52.2584 25.0134 51.9732C25.5924 51.6888 26.0452 51.1998 26.2842 50.6008C26.3921 50.2812 26.4308 49.9423 26.3979 49.6065C26.3649 49.2708 26.261 48.9459 26.093 48.6533C25.4184 47.3853 24.0213 46.7352 22.6404 46.6226C21.9294 46.5669 21.2145 46.6528 20.5369 46.8751C19.8594 47.0975 19.2326 47.4519 18.693 47.918C17.6529 48.854 17.0125 50.1538 16.9041 51.5486C16.7835 52.9947 17.3448 54.3991 18.1631 55.5661C19.0198 56.7518 20.0421 57.8087 21.1988 58.7045C23.4601 60.5092 26.1127 61.7597 28.9442 62.356C29.2809 62.4255 29.6195 62.4851 29.9599 62.5346C30.0683 62.5608 30.1825 62.5448 30.2794 62.4898C30.3763 62.4348 30.4486 62.3449 30.4816 62.2385C30.5107 62.1301 30.4959 62.0146 30.4405 61.9171C30.3851 61.8195 30.2934 61.7476 30.1854 61.717L30.1854 61.717Z" fill="#3F3D56"/>
<path d="M70.5994 43.2926C66.9011 43.2404 63.2145 43.3342 59.5395 43.574C58.2833 43.656 57.1965 44.0998 57.1965 44.8458C57.1965 45.4695 58.2747 46.2001 59.5395 46.1175C63.2126 45.8777 66.8992 45.7839 70.5994 45.8361C73.616 45.8786 73.6142 43.3351 70.5994 43.2926Z" fill="#CCCCCC"/>
<path d="M65.1333 45.7101C64.7336 45.7101 55.3447 45.6952 55.3447 44.3987C55.3447 43.1024 64.7336 43.0875 65.1333 43.0875C65.5329 43.0875 74.9218 43.1024 74.9218 44.3987C74.9218 45.6952 65.5329 45.7101 65.1333 45.7101ZM55.7118 44.3987C55.9687 44.7918 59.4199 45.3484 65.1333 45.3484C70.8466 45.3484 74.2977 44.7918 74.5547 44.3987C74.2978 44.0058 70.8466 43.4492 65.1333 43.4492C59.4199 43.4492 55.9687 44.0058 55.7118 44.3987V44.3987Z" fill="#3F3D56"/>
<path d="M94.9218 79.7916C97.0002 79.7339 99.5869 79.6618 101.58 78.2066C102.173 77.7555 102.661 77.1802 103.008 76.5209C103.356 75.8616 103.555 75.1344 103.592 74.39C103.632 73.2408 103.217 72.2376 102.422 71.5662C101.381 70.687 99.8613 70.4808 98.2234 70.962L99.9204 58.565L98.6746 58.3943L96.6796 72.9686L97.7199 72.4914C98.926 71.9384 100.582 71.657 101.61 72.5261C101.863 72.7533 102.06 73.0357 102.185 73.3513C102.311 73.6669 102.362 74.0072 102.335 74.3459C102.305 74.8998 102.155 75.4407 101.897 75.9317C101.638 76.4228 101.277 76.8524 100.838 77.1915C99.2871 78.3238 97.2253 78.4699 94.8868 78.5353L94.9218 79.7916Z" fill="#3F3D56"/>
<path d="M91.4774 59.6341H84.7054V60.891H91.4774V59.6341Z" fill="#3F3D56"/>
<path d="M36.8137 54.7506C36.5123 54.7496 36.221 54.6414 35.9922 54.4453C35.7633 54.2492 35.6117 53.978 35.5647 53.6804L35.1513 51.0433C35.0997 50.7116 35.1818 50.373 35.3796 50.1018C35.5774 49.8306 35.8748 49.6489 36.2064 49.5966L58.1934 46.1527C58.5252 46.1011 58.8639 46.1832 59.1352 46.3809C59.4065 46.5786 59.5883 46.8759 59.6406 47.2074L60.0539 49.8446C60.1056 50.1763 60.0235 50.5149 59.8257 50.7861C59.6279 51.0573 59.3305 51.239 58.9989 51.2913L37.0119 54.7351C36.9463 54.7454 36.8801 54.7505 36.8137 54.7506Z" fill="#2F2E41"/>
<path d="M27.7144 23.8461C32.8102 23.8461 36.9411 19.7166 36.9411 14.6227C36.9411 9.52873 32.8102 5.39926 27.7144 5.39926C22.6186 5.39926 18.4877 9.52873 18.4877 14.6227C18.4877 19.7166 22.6186 23.8461 27.7144 23.8461Z" fill="#D9A514"/>
<path d="M32.9384 17.0092C33.2333 16.9061 33.5027 16.7411 33.7284 16.5252C33.8778 16.3713 33.9917 16.1866 34.0622 15.9841C34.1326 15.7816 34.1579 15.5661 34.1363 15.3527C34.1238 15.2007 34.0762 15.0536 33.9974 14.923C33.9186 14.7923 33.8106 14.6817 33.6819 14.5997C33.3479 14.3944 32.9067 14.4021 32.4612 14.6086L32.4098 11.0082L32.0481 11.0134L32.1085 15.246L32.3839 15.0654C32.7033 14.8564 33.1621 14.7048 33.4923 14.9078C33.5739 14.9615 33.6421 15.0334 33.6914 15.1177C33.7408 15.2021 33.77 15.2967 33.7768 15.3942C33.7921 15.5531 33.7729 15.7135 33.7205 15.8643C33.6682 16.0152 33.584 16.153 33.4736 16.2684C33.0814 16.6574 32.5008 16.7877 31.8383 16.907L31.9024 17.2629C32.2546 17.2094 32.6013 17.1245 32.9384 17.0092V17.0092Z" fill="#2F2E41"/>
<path d="M36.1356 10.7555L34.2088 11.0472L34.263 11.4048L36.1898 11.1131L36.1356 10.7555Z" fill="#2F2E41"/>
<path d="M30.0538 11.676L28.127 11.9677L28.1812 12.3253L30.108 12.0336L30.0538 11.676Z" fill="#2F2E41"/>
<path d="M33.8118 54.5893C33.48 54.5886 33.1563 54.4869 32.8837 54.2977C32.6111 54.1086 32.4026 53.8409 32.2859 53.5304L25.9243 36.4998C25.1468 34.4111 25.2298 32.0994 26.1552 30.0718C27.0806 28.0442 28.7728 26.4664 30.8605 25.6845L36.0332 23.7537C36.2332 23.6785 36.4461 23.6436 36.6597 23.651C36.8732 23.6584 37.0832 23.708 37.2775 23.7969C37.4714 23.8834 37.646 24.0078 37.7912 24.1626C37.9365 24.3174 38.0494 24.4996 38.1234 24.6985L49.9076 46.9404C49.9841 47.1409 50.0202 47.3546 50.0138 47.5692C50.0073 47.7837 49.9585 47.9949 49.8701 48.1905C49.7817 48.3861 49.6555 48.5624 49.4987 48.709C49.342 48.8557 49.1577 48.9699 48.9566 49.0451L34.3809 54.4859C34.1989 54.5541 34.0062 54.5891 33.8118 54.5893Z" fill="#2F2E41"/>
<path d="M34.4638 24.3394L46.1562 39.9696L38.2444 24.5035C38.1791 24.323 38.0788 24.1572 37.9494 24.0155C37.8199 23.8738 37.6638 23.7589 37.4899 23.6776C37.316 23.5962 37.1279 23.5498 36.9361 23.5412C36.7443 23.5325 36.5527 23.5617 36.3722 23.6271L34.4638 24.3394Z" fill="#E6E6E6"/>
<path d="M52.9773 36.2096L32.1004 34.8653C31.7713 34.8442 31.4497 34.7584 31.1538 34.6129C30.8578 34.4675 30.5935 34.2652 30.3758 34.0176C30.1581 33.77 29.9913 33.482 29.885 33.17C29.7786 32.8579 29.7348 32.528 29.756 32.1991C29.7772 31.8701 29.863 31.5486 30.0085 31.2528C30.154 30.957 30.3564 30.6927 30.604 30.4751C30.8517 30.2575 31.1399 30.0907 31.452 29.9844C31.7641 29.8781 32.0941 29.8343 32.4232 29.8555L53.3001 31.1997C53.4542 31.2096 53.6048 31.2498 53.7434 31.3179C53.882 31.386 54.0058 31.4807 54.1077 31.5967C54.2097 31.7126 54.2878 31.8475 54.3376 31.9936C54.3874 32.1398 54.4079 32.2943 54.398 32.4483L54.2264 35.1121C54.2063 35.4232 54.0635 35.7136 53.8292 35.9195C53.5949 36.1253 53.2885 36.2297 52.9773 36.2096Z" fill="#D9A514"/>
<path d="M47.3987 37.0714C47.3711 37.0714 47.3435 37.0706 47.3158 37.0688H47.3157L30.1728 35.965C30.0069 35.9543 29.8446 35.911 29.6954 35.8377C29.5461 35.7643 29.4128 35.6623 29.303 35.5375C29.1932 35.4126 29.1091 35.2673 29.0554 35.11C29.0018 34.9526 28.9797 34.7862 28.9904 34.6203L29.2836 30.0704C29.2943 29.9045 29.3375 29.7423 29.4109 29.5931C29.4843 29.444 29.5864 29.3107 29.7113 29.2009C29.8362 29.0912 29.9816 29.0071 30.139 28.9535C30.2964 28.8999 30.4629 28.8778 30.6288 28.8885L47.7717 29.9923C48.1068 30.0142 48.4194 30.1681 48.641 30.4202C48.8627 30.6723 48.9753 31.0019 48.9541 31.3369L48.661 35.8869C48.6448 36.1307 48.5586 36.3646 48.4127 36.5607C48.2669 36.7567 48.0675 36.9065 47.8385 36.992C47.6978 37.0446 47.5489 37.0715 47.3987 37.0714V37.0714Z" fill="#2F2E41"/>
<path d="M27.6086 8.48925C28.8224 7.44568 30.4893 8.37923 31.8813 8.21581C33.213 8.05945 34.2646 6.86529 34.5332 5.59665C34.8466 4.11656 34.0781 2.63373 32.9454 1.71092C31.7048 0.700213 30.0594 0.410065 28.5002 0.597053C26.7132 0.811362 25.0789 1.64406 23.6124 2.65126C22.1969 3.59334 20.8952 4.69598 19.7333 5.93718C18.6928 7.08589 17.8113 8.45512 17.5298 10.0009C17.274 11.4056 17.4693 12.9623 18.3 14.1523C18.7405 14.7623 19.3309 15.2484 20.0141 15.5639C20.7264 15.9136 21.4863 16.1636 22.1764 16.5589C23.2199 17.1567 24.234 18.3962 23.9072 19.686C23.8371 19.9678 23.6988 20.228 23.5045 20.4438C23.271 20.7029 22.8498 20.3605 23.0839 20.1007C23.4951 19.6444 23.4789 19.0359 23.2598 18.4911C22.9992 17.8772 22.5378 17.37 21.9511 17.0525C21.2287 16.6397 20.4311 16.3848 19.6907 16.0087C18.9821 15.6652 18.3669 15.1556 17.8976 14.5233C17.0114 13.2922 16.7464 11.6901 16.9473 10.208C17.1648 8.60409 17.9892 7.14665 19.0226 5.92531C20.1472 4.59616 21.5286 3.47106 22.9398 2.46031C24.4541 1.37578 26.1271 0.458873 27.9784 0.127243C29.5831 -0.160227 31.3225 0.0167579 32.7258 0.890967C34.0357 1.70698 35.0402 3.1107 35.1401 4.67921C35.1759 5.39287 35.0209 6.10321 34.691 6.7371C34.361 7.37099 33.8681 7.90555 33.2628 8.28576C32.6418 8.65726 31.9198 8.82447 31.1986 8.76381C30.4276 8.71447 29.6559 8.47847 28.8799 8.54399C28.5288 8.56529 28.1942 8.70043 27.9269 8.92893C27.6617 9.15694 27.3456 8.7154 27.6086 8.48926V8.48925Z" fill="#2F2E41"/>
<path d="M133.785 108H0.215432C0.158408 108 0.103779 107.977 0.0635154 107.937C0.0232522 107.896 0.000640869 107.842 0.000640869 107.785C0.000640869 107.728 0.0232522 107.673 0.0635154 107.633C0.103779 107.592 0.158408 107.57 0.215432 107.569H133.785C133.842 107.569 133.897 107.592 133.937 107.632C133.977 107.673 134 107.728 134 107.785C134 107.842 133.977 107.897 133.937 107.937C133.897 107.977 133.842 108 133.785 108V108Z" fill="#3F3D56"/>
</g>
<defs>
<clipPath id="clip0">
<rect width="134" height="108" fill="white"/>
</clipPath>
</defs>
</svg>
