<svg width="158" height="92" viewBox="0 0 158 92" fill="none" xmlns="http://www.w3.org/2000/svg">
<g clip-path="url(#clip0)" filter="url(#filter0_d)">
<path d="M154 85.5075H4V86.4507H154V85.5075Z" fill="#85848B"/>
<path d="M122.839 68.8528C122.839 69.5783 117.924 71.6935 112.086 71.6935C106.248 71.6935 101.699 69.5783 101.699 68.8528C101.699 68.1272 106.431 68.3608 112.275 68.3608C118.119 68.3608 122.839 68.126 122.839 68.8528Z" fill="#504F60"/>
<path opacity="0.2" d="M122.839 68.8528C122.839 69.5783 117.924 71.6935 112.086 71.6935C106.248 71.6935 101.699 69.5783 101.699 68.8528" fill="black"/>
<path d="M64.0455 55.5393C64.993 55.6438 65.9763 55.7103 66.8838 55.4569C67.0267 55.4188 67.1839 55.3339 67.1696 55.211C67.1594 55.1663 67.1374 55.1242 67.1053 55.088C66.7632 54.6465 66.4758 54.1754 66.2478 53.6824C66.2388 53.6566 66.2202 53.6342 66.1949 53.6184C66.1654 53.6092 66.133 53.6092 66.1035 53.6184C65.6847 53.7131 65.3231 53.9455 64.9073 54.0451C64.6952 54.0952 64.4739 54.1094 64.2556 54.087C64.0669 54.0685 63.8097 53.9345 63.6382 53.9517C63.7354 54.4891 63.9726 54.9908 64.0455 55.5393Z" fill="#D9A514"/>
<path d="M81.9653 54.178C82.5899 53.809 83.2373 53.4217 83.606 52.8523C83.6323 52.8182 83.6476 52.7787 83.6503 52.7379C83.644 52.6977 83.6258 52.6596 83.5974 52.6272C83.2462 52.1468 82.794 51.7268 82.264 51.3888C81.9875 51.5569 81.7377 51.7554 81.5209 51.9791C81.3637 52.1218 80.9292 52.3481 80.9249 52.5657C80.9249 52.6887 81.0907 52.8314 81.1679 52.9347C81.2722 53.0675 81.3708 53.2028 81.4651 53.3405C81.5195 53.4081 82.0154 54.1509 81.9653 54.178Z" fill="#D9A514"/>
<path d="M67.7598 57.1859C67.771 57.3126 67.7306 57.4387 67.6455 57.5426C67.5788 57.6003 67.4962 57.6426 67.4054 57.6656C66.0806 58.0738 64.5471 57.5647 63.2252 57.9668C62.9536 58.0492 62.6964 58.1685 62.4234 58.2472C62.098 58.3314 61.7623 58.3826 61.423 58.3997C60.9557 58.4378 60.4855 58.4624 60.0168 58.4735C59.6606 58.4952 59.3027 58.4682 58.9563 58.3936C58.7831 58.3554 58.6212 58.2863 58.4811 58.1908C58.341 58.0952 58.2259 57.9753 58.1431 57.8389C58.0713 57.7167 58.057 57.5753 58.1031 57.4442C58.1239 57.3992 58.1533 57.3576 58.1903 57.3212C58.2799 57.2347 58.3851 57.1612 58.5019 57.1035L58.9892 56.833C59.2177 56.6939 59.466 56.5807 59.7281 56.496C59.921 56.4419 60.1254 56.4186 60.3212 56.3731C61.0057 56.2009 61.5288 55.7336 62.0147 55.2847L62.6778 54.676C62.7398 54.609 62.8184 54.5548 62.9079 54.5173C62.9999 54.4909 63.0976 54.483 63.1937 54.494C63.8379 54.5335 64.4599 54.7129 65.0016 55.0154C65.1401 55.1048 65.2896 55.1806 65.4475 55.2417C65.8362 55.372 66.335 55.2736 66.6937 55.1089C66.8638 55.0302 66.8266 54.9859 66.8981 54.8457C66.9695 54.7055 67.1439 54.6157 67.2954 54.7436C67.3411 54.7878 67.3735 54.841 67.3897 54.8986C67.5326 55.3044 67.4783 55.741 67.4783 56.1665C67.4741 56.233 67.4838 56.2996 67.5069 56.3632C67.5434 56.4273 67.5869 56.4883 67.6369 56.5452C67.6471 56.5603 67.6562 56.5759 67.6641 56.592C67.7515 56.7803 67.7844 56.9842 67.7598 57.1859V57.1859Z" fill="#514E7F"/>
<path d="M67.7598 57.186C67.771 57.3126 67.7306 57.4387 67.6455 57.5426C67.5788 57.6003 67.4962 57.6426 67.4054 57.6656C66.0806 58.0738 64.5471 57.5647 63.2252 57.9669C62.9536 58.0492 62.6964 58.1685 62.4234 58.2472C62.098 58.3314 61.7623 58.3826 61.423 58.3997C60.9557 58.4378 60.4855 58.4624 60.0168 58.4735C59.6606 58.4952 59.3027 58.4682 58.9563 58.3936C58.7831 58.3554 58.6212 58.2863 58.4811 58.1908C58.341 58.0952 58.2259 57.9753 58.1431 57.839C58.0713 57.7167 58.057 57.5753 58.1031 57.4442C58.1239 57.3992 58.1533 57.3577 58.1903 57.3212C58.2675 57.4602 58.3232 57.6447 58.3718 57.7111C58.4375 57.8095 58.5267 57.8947 58.6337 57.9611C58.7406 58.0275 58.8628 58.0734 58.9921 58.096C59.1855 58.1062 59.3794 58.0849 59.5637 58.0333C60.7642 57.7775 62.0404 57.7738 63.1937 57.3864C63.5896 57.2524 63.9669 57.074 64.3828 56.9929C64.7987 56.9117 65.2403 56.9339 65.669 56.9031C66.3464 56.8564 67.0024 56.6805 67.6698 56.5883C67.756 56.7782 67.7869 56.9834 67.7598 57.186V57.186Z" fill="#464353"/>
<path d="M84.9997 54.1029C84.9368 54.5358 84.6181 54.9084 84.2679 55.2245C83.9178 55.5405 83.5219 55.8246 83.2432 56.1886C82.9002 56.6399 82.7459 57.1995 82.3 57.5807C82.1288 57.7194 81.9365 57.8373 81.7284 57.9312C81.4951 58.0496 81.2485 58.1473 80.9923 58.2227C80.3264 58.4059 79.6089 58.3641 78.9129 58.3198C78.687 58.3179 78.4633 58.2809 78.2527 58.2104C78.1568 58.1684 78.065 58.1199 77.9783 58.0652C77.8038 57.9728 77.657 57.8464 77.5495 57.6963C77.4968 57.6147 77.482 57.5189 77.5081 57.4282C77.5479 57.3284 77.6162 57.2387 77.7067 57.1675C77.8634 57.0274 78.0315 56.8971 78.2098 56.7777C78.4545 56.6418 78.6749 56.4761 78.8643 56.2858C78.9805 56.1354 79.0661 55.969 79.1173 55.7939C79.2185 55.487 79.2804 55.1715 79.3017 54.8531C79.3009 54.6415 79.3263 54.4304 79.3774 54.2235C79.4832 53.8988 79.7633 53.6086 79.7318 53.2728C79.7191 53.2248 79.7241 53.1745 79.7461 53.129C79.7794 53.0934 79.8258 53.0687 79.8776 53.0589C80.096 52.984 80.3263 52.9379 80.5607 52.9224C80.6783 52.9154 80.7962 52.931 80.906 52.968C81.0157 53.005 81.1145 53.0625 81.1953 53.1363C81.2925 53.2372 81.3568 53.3823 81.4997 53.4216C81.5705 53.4383 81.6448 53.4408 81.7169 53.429C82.0685 53.3983 82.4401 53.3602 82.7173 53.1646C82.8455 53.0657 82.9484 52.9451 83.0198 52.8103C83.0911 52.6754 83.1292 52.5294 83.1318 52.3813C83.1318 52.2694 83.0732 52.1525 83.2747 52.1353C83.4262 52.1181 83.5462 52.2583 83.6234 52.3444C83.9021 52.6653 84.1879 53.0011 84.2922 53.3921C84.3328 53.3786 84.3759 53.3715 84.4194 53.3712C84.5086 53.3706 84.5966 53.3884 84.676 53.4233C84.7553 53.4582 84.8237 53.5091 84.8753 53.5717C84.9891 53.7303 85.0332 53.9188 84.9997 54.1029Z" fill="#514E7F"/>
<path d="M84.9995 54.1029C84.9367 54.5358 84.618 54.9084 84.2678 55.2245C83.9177 55.5405 83.5218 55.8246 83.2431 56.1886C82.9001 56.6399 82.7458 57.1995 82.2999 57.5807C82.1287 57.7194 81.9364 57.8373 81.7282 57.9312C81.495 58.0496 81.2484 58.1473 80.9922 58.2227C80.3263 58.4059 79.6088 58.3641 78.9128 58.3198C78.6869 58.3179 78.4632 58.2809 78.2526 58.2104C78.1567 58.1684 78.0649 58.1199 77.9782 58.0652C77.8037 57.9728 77.6569 57.8464 77.5494 57.6963C77.6834 57.6409 77.8296 57.6107 77.9782 57.6078C78.2869 57.6225 78.5127 57.8734 78.8085 57.9509C79.2301 58.0603 79.6503 57.8045 80.0776 57.7172C80.3563 57.6607 80.6492 57.6754 80.9251 57.5942C81.1549 57.5178 81.3673 57.4071 81.5525 57.2671C81.8062 57.111 82.032 56.9237 82.2227 56.7113C82.3811 56.4988 82.5128 56.2725 82.6157 56.0361C82.8414 55.5832 83.107 55.1457 83.4103 54.7277C83.4552 54.6615 83.5094 54.6003 83.5718 54.5456C83.639 54.4928 83.7147 54.4559 83.7905 54.4091C84.0763 54.2235 84.1949 53.9172 84.295 53.6172C84.3221 53.526 84.3599 53.4374 84.4079 53.3528C84.497 53.3521 84.585 53.37 84.6644 53.4049C84.7438 53.4398 84.8122 53.4907 84.8638 53.5532C84.9867 53.7156 85.0351 53.9116 84.9995 54.1029V54.1029Z" fill="#464353"/>
<path d="M55.0319 15.7613C55.3877 15.9906 55.6804 16.2845 55.8894 16.6221C56.0895 16.9591 57.2428 19.5735 57.1756 19.9535C57.5515 19.6277 59.0335 19.5748 59.4137 19.2489C59.5723 19.1124 60.4284 18.4311 60.557 18.2725C60.6856 18.1138 61.6403 17.7805 61.7446 17.6133C62.1348 17.0119 58.9778 14.7332 59.3822 14.1392C59.4046 14.1119 59.4161 14.0791 59.4151 14.0457C59.4059 14.0177 59.3876 13.9925 59.3622 13.9732C59.1036 13.7457 58.7606 13.6043 58.449 13.4358C58.1375 13.2673 57.8373 13.0324 57.753 12.7225C57.4559 12.8402 57.1832 12.9989 56.9455 13.1923C56.3663 13.6194 55.797 14.0552 55.2377 14.4995C55.0191 14.6742 54.596 14.9066 54.4946 15.1562C54.3745 15.4243 54.8233 15.6149 55.0319 15.7613Z" fill="#A1616A"/>
<path d="M60.1425 14.7935C59.6581 15.0735 59.2054 15.3922 58.7905 15.7453C58.3989 16.0786 58.0273 16.4647 57.933 16.9308C57.893 17.114 57.8987 17.2997 57.8658 17.4854C57.7229 18.2909 56.914 18.8812 56.5567 19.635C56.4532 19.8677 56.3771 20.1087 56.3295 20.3545C56.2291 20.8203 56.1741 21.2925 56.1651 21.7662C56.1566 22.2249 56.6796 22.541 56.8711 22.9689C57.0626 23.3969 57.1141 23.8372 57.2113 24.2762C57.3942 25.105 57.7301 25.9044 58.0688 26.6988C58.7733 28.3738 61.0571 33.0038 61.7617 34.68C63.9211 34.2139 69.6691 33.1428 71.5813 32.1602C72.2187 31.8331 67.1581 28.1426 67.8398 27.888C67.8788 27.8828 67.9158 27.8698 67.948 27.8502C67.9801 27.8306 68.0065 27.8047 68.0251 27.7748C68.0437 27.7449 68.0539 27.7116 68.055 27.6777C68.0561 27.6438 68.048 27.6101 68.0313 27.5793C67.3496 25.014 65.2173 22.9062 64.2498 20.4086C63.914 19.5416 63.3109 18.8013 62.8535 17.9773C62.4391 17.2309 62.2176 16.4057 61.7217 15.6961C61.6282 15.5499 61.5058 15.4188 61.3601 15.3087C61.2364 15.2271 61.1027 15.1574 60.9614 15.1009C60.6784 14.9828 60.4154 14.9127 60.1425 14.7935Z" fill="#514E7F"/>
<path d="M55.1463 15.4698C57.013 15.4698 58.5262 14.1677 58.5262 12.5614C58.5262 10.9552 57.013 9.65303 55.1463 9.65303C53.2796 9.65303 51.7664 10.9552 51.7664 12.5614C51.7664 14.1677 53.2796 15.4698 55.1463 15.4698Z" fill="#A1616A"/>
<path d="M58.5847 13.9277C58.7532 13.794 58.9648 13.7074 59.1916 13.6793C59.4184 13.6512 59.6498 13.6829 59.8552 13.7703C60.0839 13.8724 60.284 14.079 60.2325 14.2954L61.9089 14.3175C62.1757 14.3113 62.4425 14.3323 62.7035 14.3803C62.9662 14.4295 63.2007 14.556 63.3666 14.7381C63.3866 14.7615 63.4095 14.7898 63.4438 14.7935C63.4717 14.7938 63.4989 14.786 63.521 14.7713C63.7789 14.66 64.0694 14.6172 64.3556 14.6483C65.2617 14.6988 66.0991 15.0886 66.8094 15.5756C66.9375 15.6514 67.0369 15.7578 67.0953 15.8818C67.1539 16.0454 67.0838 16.2507 67.2382 16.3676C67.2382 17.7203 67.7784 18.9845 68.1385 20.3028C68.2028 20.5377 68.4644 20.7455 68.6459 20.93C68.8701 21.1345 69.0532 21.3697 69.1875 21.626C69.4934 22.3098 69.0718 23.1141 69.369 23.8003C69.4948 24.0905 69.7377 24.3291 69.9407 24.5812C70.2082 24.8723 70.3773 25.2212 70.4295 25.5896C70.4423 25.7544 70.418 25.9204 70.4295 26.0815C70.4486 26.3031 70.4966 26.5221 70.5724 26.7345C70.6943 27.1313 70.822 27.5277 70.9554 27.9237C71.1726 28.5631 71.4556 29.253 72.1216 29.5937C70.5138 29.8286 68.8188 30.0585 67.2868 29.5777C67.0731 29.515 66.8702 29.4277 66.6837 29.3182C66.1306 28.9788 65.8633 28.3984 65.6247 27.8499C65.3588 27.235 65.0887 26.6091 65.0344 25.9548C65.035 25.7467 65.0008 25.5397 64.933 25.3399C64.7772 24.9833 64.3613 24.7681 63.984 24.5701C63.558 24.3692 63.172 24.111 62.8407 23.8052C62.6763 23.6512 62.5504 23.4698 62.4708 23.2722C62.3911 23.0746 62.3594 22.8651 62.3777 22.6566C62.4062 22.4537 62.4991 22.2581 62.5077 22.054C62.5163 21.8499 62.4105 21.6162 62.1833 21.5621C61.0128 21.2571 60.454 20.0642 60.1939 19.0362C60.0817 18.5048 60.0314 17.9651 60.0439 17.4252L60.0282 16.3762C59.8666 16.2497 59.7367 16.0963 59.6463 15.9253C59.5559 15.7542 59.5069 15.5691 59.5022 15.3813C59.5178 15.2717 59.5153 15.1607 59.4951 15.0517C59.4385 14.9184 59.3465 14.7984 59.2264 14.7012C58.968 14.473 58.7516 14.2122 58.5847 13.9277V13.9277Z" fill="#464353"/>
<path d="M54.9846 17.253C54.946 17.5776 55.0318 17.9109 54.9475 18.2294C54.9146 18.3524 54.8574 18.4754 54.816 18.5897C54.6893 19.0482 54.7441 19.5299 54.9717 19.9585C55.1991 20.3828 55.4713 20.7883 55.7849 21.1698C55.891 21.3 55.9783 21.4408 56.045 21.5891C56.0991 21.7449 56.1326 21.9053 56.1451 22.0675C56.2278 22.7187 56.3606 23.3645 56.5424 24.0007C56.7024 24.5516 58.5203 29.2616 58.9433 29.6982C59.0201 29.7949 59.1365 29.863 59.2692 29.8888C59.3649 29.8919 59.46 29.875 59.5464 29.8396L60.4039 29.5568C60.4769 29.5376 60.5444 29.5058 60.6026 29.4633C60.6829 29.3825 60.7266 29.2794 60.7255 29.1731C60.7869 28.573 58.9648 23.8298 58.7333 23.2628C58.033 21.551 57.1012 19.9007 56.6453 18.1286C56.5181 17.6367 56.4509 16.8791 56.0322 16.4868C55.8592 16.3245 55.9178 16.3934 55.7106 16.4782C55.6059 16.5173 55.5046 16.5629 55.4076 16.6147C55.2863 16.6873 55.1854 16.7823 55.1122 16.8927C55.039 17.0031 54.9954 17.1262 54.9846 17.253Z" fill="#464353"/>
<path d="M57.5871 20.5008C57.8172 21.5473 58.0544 22.5914 58.2902 23.6379L61.6459 22.8816C61.673 22.5791 61.4858 22.2987 61.36 22.0208C61.0542 21.3604 61.047 20.625 60.7998 19.9462C60.6126 19.4297 60.2867 18.955 60.111 18.4348C60.0095 18.1323 59.958 17.8199 59.858 17.5137C59.7507 17.213 59.6189 16.9192 59.4636 16.6344C59.2752 16.2214 59.0295 15.8296 58.7318 15.4674C58.3031 15.6051 57.8458 15.765 57.6014 16.0982C57.476 16.286 57.4045 16.4968 57.3927 16.7131C57.3341 17.3612 57.6071 18.013 57.5171 18.6574C57.4243 19.2711 57.448 19.8936 57.5871 20.5008V20.5008Z" fill="#D9A514"/>
<path d="M61.7016 34.4218C61.8903 35.0366 61.6173 35.6835 61.3944 36.2922C61.0587 37.2091 60.8299 38.1525 60.7113 39.1084C60.6967 39.3517 60.6399 39.5917 60.5426 39.8204C60.4369 40.0258 60.2568 40.1992 60.1339 40.3947C59.7966 40.9088 59.8052 41.536 59.8781 42.1238C59.9267 42.5112 59.9995 42.8973 60.0896 43.2785C60.1996 43.7446 60.3354 44.2316 60.1768 44.6866C60.4426 44.6362 60.6226 44.9326 60.6055 45.165C60.5883 45.3974 60.5012 45.6569 60.6312 45.8574C60.9599 45.9607 60.9628 46.3493 60.9528 46.6505C60.9582 47.173 61.035 47.693 61.1814 48.2001C61.6788 50.2579 62.2066 52.3099 62.7649 54.3563C63.9726 54.6785 65.3831 55.0142 66.535 54.5678C66.7494 54.4854 66.9638 54.3538 67.0123 54.1546C67.0249 54.0472 67.0093 53.9388 66.9666 53.8373L66.4207 52.1279C66.2878 51.7147 66.1549 51.288 66.2249 50.8637C66.2778 50.5477 66.4378 50.207 66.2578 49.9279C66.1963 49.832 66.0991 49.7569 66.0277 49.6659C65.7418 49.3056 65.8919 48.8235 65.9148 48.387C65.9237 48.289 65.916 48.1904 65.8919 48.0943C65.8527 47.9821 65.798 47.8743 65.729 47.7733C65.2778 47.0196 65.0612 46.1782 65.1001 45.331C65.1172 45.2229 65.0999 45.1128 65.0501 45.0125C65.0155 44.9711 64.9844 44.9275 64.9572 44.8821C64.9359 44.8032 64.9465 44.7203 64.9872 44.6473C64.8235 44.5403 64.6756 44.4164 64.5471 44.2783C64.6263 44.2359 64.6934 44.1786 64.7431 44.1106C64.7928 44.0427 64.824 43.9659 64.8342 43.886C64.8444 43.8062 64.8333 43.7254 64.8019 43.6498C64.7705 43.5742 64.7195 43.5057 64.6528 43.4495C64.7111 43.4394 64.765 43.4156 64.8085 43.3807C64.852 43.3458 64.8834 43.3013 64.8993 43.252C64.9151 43.2026 64.9148 43.1505 64.8983 43.1014C64.8817 43.0522 64.8497 43.008 64.8057 42.9735C64.7357 42.9317 64.6428 42.9133 64.5928 42.8506C64.5156 42.7596 64.5785 42.6329 64.6414 42.5358L64.9744 42.018C65.2231 41.6331 65.2788 41.1572 65.546 40.7883C65.9291 40.2508 66.1792 39.652 66.4264 39.0592L67.3882 36.7755L68.0356 37.2588C68.2512 37.4006 68.432 37.5778 68.5672 37.7802C68.6593 37.9803 68.7175 38.1907 68.7402 38.405C68.9774 39.6446 69.8835 40.7194 70.2193 41.9405C70.2937 42.2123 70.3437 42.4976 70.5252 42.7301C70.5901 42.8014 70.6484 42.8771 70.6995 42.9563C70.7468 43.0772 70.7714 43.2038 70.7724 43.3314C70.8024 43.5812 70.8945 43.8225 71.0424 44.0389C71.1904 44.2554 71.3908 44.4419 71.6299 44.5858C71.9486 44.7739 72.3445 44.9031 72.5174 45.2007C72.552 45.2928 72.6 45.3808 72.6603 45.4626C72.8147 45.6225 73.1477 45.6409 73.2134 45.8414C73.2505 45.9533 73.1819 46.0873 73.2548 46.1857C73.2963 46.2312 73.351 46.2665 73.4135 46.2878L74.3438 46.6874C75.3843 47.1351 75.9159 48.1632 76.6833 48.9121C76.9484 49.156 77.1831 49.4231 77.3836 49.709C77.7152 50.2193 77.8681 50.86 78.4283 51.1847C78.5789 51.2519 78.716 51.3395 78.8342 51.4442C79.01 51.6434 78.9457 51.9226 78.9614 52.1734C78.9771 52.4243 79.2001 52.7231 79.4773 52.6469C79.3802 52.9507 79.3802 53.2715 79.4773 53.5754C80.6945 53.5216 81.8553 53.117 82.7729 52.4268C83.0445 52.2226 83.306 51.9619 83.3089 51.652C83.313 51.5985 83.2991 51.5451 83.2688 51.4983C83.2139 51.4378 83.1415 51.3907 83.0588 51.3618C82.1884 50.956 81.9269 50.0152 81.4867 49.2515C81.1023 48.5776 80.5335 47.9971 80.0576 47.3712C79.0229 46.0246 78.3169 44.3952 76.7519 43.506C76.4075 43.3105 76.0074 43.1371 75.8344 42.8137C75.7387 42.6329 75.7273 42.4263 75.6515 42.2394C75.5758 42.0525 75.3943 41.8704 75.1627 41.8704C75.2914 41.5999 75.2656 41.2703 75.2742 40.9776C75.283 40.8477 75.2656 40.7175 75.2228 40.5927C75.1633 40.4585 75.0861 40.3306 74.9927 40.2115C74.5844 39.6166 74.3802 38.9344 74.4039 38.2439C74.4153 37.8885 74.4882 37.522 74.3638 37.1826C74.301 37.0116 74.1909 36.8555 74.1152 36.6907C74.001 36.3921 73.9408 36.0802 73.9365 35.7659L73.8508 34.5841C73.8378 34.1905 73.7785 33.7991 73.6736 33.4158C73.3877 32.4984 73.1019 28.6554 72.123 28.2225C71.144 27.7896 69.4619 30.7472 68.36 30.805C67.8726 30.8225 67.3909 30.9025 66.9309 31.0424C66.1977 31.2785 65.5832 31.7187 64.9844 32.1491L62.9579 33.6138C62.5291 33.9175 62.1747 34.2078 61.7016 34.4218Z" fill="#464353"/>
<path d="M51.975 9.33206C52.4209 8.80818 53.1869 8.53025 53.9415 8.50689C54.6961 8.48352 55.4392 8.68766 56.1152 8.97666C56.3147 9.07429 56.528 9.14951 56.7497 9.20047C57.107 9.26319 57.5043 9.17957 57.8273 9.32345C58.256 9.51898 58.3389 10.017 58.3018 10.4302C58.2646 10.8434 58.1746 11.3021 58.4304 11.66C58.5212 11.7621 58.6038 11.8693 58.6776 11.981C58.7877 12.1937 58.7234 12.4397 58.6576 12.6647C58.4904 12.5417 58.3961 12.3561 58.2475 12.2134C58.0988 12.0707 57.8402 11.9748 57.6558 12.0818C57.4714 12.1888 57.4743 12.3831 57.4643 12.5577C57.4543 12.7324 57.4028 12.9414 57.2113 12.998C57.1314 13.0137 57.0477 13.0083 56.9713 12.9827C56.8949 12.957 56.8291 12.9122 56.7826 12.8541C56.4553 12.5098 56.5868 11.9601 56.2624 11.6133C56.078 11.4165 55.7708 11.3206 55.6007 11.114C55.4664 10.9517 55.4321 10.7451 55.3149 10.5704C55.1977 10.3958 54.9247 10.2679 54.7432 10.3884C54.6813 10.4394 54.6296 10.4988 54.5903 10.5643C54.4771 10.7038 54.3126 10.8064 54.1233 10.8555C53.9339 10.9046 53.7309 10.8973 53.547 10.8348C53.4065 10.7606 53.2544 10.7039 53.0954 10.6664C52.9913 10.6619 52.8878 10.6825 52.7967 10.726C52.7055 10.7695 52.6303 10.834 52.5795 10.9123C52.4769 11.0688 52.4274 11.2469 52.4366 11.4264C52.4366 11.6723 52.488 11.9342 52.3251 12.131C52.2631 12.2051 52.1856 12.2685 52.0964 12.3179C51.8578 12.4495 51.5248 12.5381 51.3047 12.388C51.2301 12.3282 51.1746 12.253 51.1436 12.1694C51.1125 12.0858 51.107 11.9968 51.1275 11.9109C51.1703 11.7397 51.2267 11.5713 51.2961 11.4067C51.4219 11.0254 51.2575 10.5963 51.3947 10.2372C51.5384 9.91377 51.7337 9.60915 51.975 9.33206V9.33206Z" fill="#464353"/>
<path d="M53.7856 18.0081C53.7641 18.0977 53.7751 18.1908 53.8171 18.2749C53.8595 18.3322 53.9174 18.3799 53.9857 18.4139C54.4663 18.6715 55.0129 18.824 55.5778 18.8578C55.6546 18.859 55.7301 18.8759 55.7978 18.907C55.9322 18.9833 55.9408 19.153 55.8907 19.2883C55.824 19.4159 55.7895 19.5542 55.7893 19.6941C55.8307 19.9511 56.1851 20.063 56.4838 20.1011C56.9026 20.1466 57.3613 20.1233 57.6929 19.8982C57.9175 19.722 58.0887 19.5012 58.1917 19.2551C59.012 17.633 59.2992 15.84 60.1296 14.2229C60.1925 14.1173 60.2345 14.0034 60.2539 13.8859C60.2627 13.8271 60.253 13.7673 60.2258 13.7128C60.1987 13.6583 60.1551 13.6111 60.0996 13.576C59.9452 13.4936 59.7051 13.5403 59.6008 13.4112C59.5493 13.346 59.5551 13.2575 59.5093 13.1886C59.4136 13.0423 59.162 13.0656 58.9905 12.9808C58.8562 12.9193 58.7633 12.7926 58.6133 12.768C58.5396 12.7645 58.466 12.7757 58.3982 12.8009C58.3305 12.8261 58.2705 12.8645 58.2231 12.9132C57.7358 13.3042 57.4799 13.8588 57.2084 14.3827C56.7938 15.1858 56.3084 15.9603 55.7564 16.6996C55.8207 16.6135 55.4477 15.9617 55.3019 15.9335C55.0461 15.8892 54.7188 16.2753 54.5802 16.4192C54.1452 16.8731 53.8696 17.4242 53.7856 18.0081V18.0081Z" fill="#D9A514"/>
<path opacity="0.1" d="M58.9776 13.0952C58.875 13.0966 58.774 13.1179 58.6823 13.1575C58.5905 13.1971 58.5102 13.254 58.4474 13.3239C58.2945 13.4948 58.2645 13.7211 58.2259 13.9388C58.0958 14.6284 57.8099 15.2894 57.3842 15.8843" fill="black"/>
<path opacity="0.1" d="M59.7065 13.5858C59.5648 13.5885 59.4264 13.623 59.3048 13.6857C59.1833 13.7485 59.0828 13.8374 59.0134 13.9437C58.9188 14.1371 58.8599 14.3421 58.839 14.5512C58.7165 15.0148 58.4801 15.4504 58.1459 15.8289" fill="black"/>
<path d="M93.6715 37.6278V36.1004C93.6712 34.976 93.1518 33.8978 92.2278 33.1029C91.3037 32.308 90.0505 31.8614 88.7439 31.8614H18.6458C17.3392 31.8614 16.086 32.308 15.1619 33.1029C14.2379 33.8978 13.7185 34.976 13.7181 36.1004V38.9166L93.6715 37.6278Z" fill="#33323D"/>
<path d="M38.1466 30.0709C38.1466 30.0709 37.9465 40.7526 40.1474 44.2673C42.3483 47.7819 43.2915 63.0716 43.2915 63.0716C43.2915 63.0716 66.3636 65.1253 82.4414 60.6121C98.5193 56.0989 132.73 54.253 132.73 54.253L126.965 20.8169C126.965 20.8169 98.4836 19.2452 82.2814 25.8946C66.0792 32.5439 38.1466 30.0709 38.1466 30.0709Z" fill="#8DD070"/>
<path opacity="0.1" d="M38.1466 30.0709C38.1466 30.0709 37.9465 40.7526 40.1474 44.2673C42.3483 47.7819 43.2915 63.0716 43.2915 63.0716C43.2915 63.0716 66.3636 65.1253 82.4414 60.6121C98.5193 56.0989 132.73 54.253 132.73 54.253L126.965 20.8169C126.965 20.8169 98.4836 19.2452 82.2814 25.8946C66.0792 32.5439 38.1466 30.0709 38.1466 30.0709Z" fill="black"/>
<path d="M43.2528 33.9729C43.2528 33.9729 42.5311 42.7866 44.3418 45.6028C46.1526 48.419 46.2369 60.9909 46.2369 60.9909C46.2369 60.9909 67.0009 61.8197 81.7711 57.4934C96.5413 53.1671 127.579 50.3608 127.579 50.3608L124.052 23.0169C124.052 23.0169 98.3706 22.7894 83.3817 28.8792C68.3929 34.969 43.2528 33.9729 43.2528 33.9729Z" fill="#8DD070"/>
<path opacity="0.1" d="M83.1537 52.487C86.108 52.1703 87.8632 47.4935 87.074 42.0411C86.2848 36.5887 83.2499 32.4253 80.2956 32.7419C77.3412 33.0586 75.586 37.7354 76.3752 43.1878C77.1645 48.6402 80.1993 52.8036 83.1537 52.487Z" fill="black"/>
<path opacity="0.2" d="M111.35 4.52861C111.35 4.52861 83.6805 10.5545 70.6324 21.1612C57.5843 31.7679 30.1162 36.7903 30.1162 36.7903C30.1162 36.7903 33.7348 47.0084 37.0819 49.773C40.4289 52.5375 46.7772 66.8421 46.7772 66.8421C46.7772 66.8421 69.4677 62.7027 83.1589 54.1583C96.8501 45.6139 128.759 34.8227 128.759 34.8227L111.35 4.52861Z" fill="black"/>
<path d="M29.7003 35.2605C29.7003 35.2605 33.3175 45.4798 36.6617 48.2443C40.0059 51.0088 46.357 65.3122 46.357 65.3122C46.357 65.3122 69.0503 61.1741 82.743 52.6297C96.4356 44.0853 128.341 33.2977 128.341 33.2977L110.933 3C110.933 3 83.2646 9.02585 70.2165 19.6326C57.1684 30.2393 29.7003 35.2605 29.7003 35.2605Z" fill="#8DD070"/>
<path opacity="0.1" d="M29.7003 35.2605C29.7003 35.2605 33.3175 45.4798 36.6617 48.2443C40.0059 51.0088 46.357 65.3122 46.357 65.3122C46.357 65.3122 69.0503 61.1741 82.743 52.6297C96.4356 44.0853 128.341 33.2977 128.341 33.2977L110.933 3C110.933 3 83.2646 9.02585 70.2165 19.6326C57.1684 30.2393 29.7003 35.2605 29.7003 35.2605Z" fill="black"/>
<path d="M35.9471 37.6265C35.9471 37.6265 38.4038 46.2066 41.1321 48.4079C43.8603 50.6092 48.4207 62.5502 48.4207 62.5502C48.4207 62.5502 68.4773 57.855 80.9923 49.8369C93.5073 41.8188 122.05 30.9637 122.05 30.9637L108.943 5.86168C108.943 5.86168 84.4208 12.4249 72.326 22.1794C60.2311 31.934 35.9471 37.6265 35.9471 37.6265Z" fill="#8DD070"/>
<path opacity="0.1" d="M80.5297 44.711C83.2286 43.6296 83.2314 38.715 80.5358 33.734C77.8403 28.753 73.4672 25.5918 70.7682 26.6733C68.0693 27.7547 68.0665 32.6693 70.7621 37.6503C73.4576 42.6313 77.8308 45.7925 80.5297 44.711Z" fill="black"/>
<path opacity="0.1" d="M95.5637 39.1268V81.5538C95.5637 82.0356 95.4534 82.5128 95.2391 82.9579C95.0247 83.4031 94.7106 83.8075 94.3146 84.1482C93.9185 84.4888 93.4484 84.759 92.931 84.9433C92.4136 85.1276 91.8591 85.2224 91.2992 85.2222H17.9841C16.8537 85.2219 15.7697 84.8352 14.9705 84.1473C14.1714 83.4594 13.7224 82.5265 13.7224 81.5538V34.8497C15.8233 35.5212 15.8233 35.5212 17.9841 35.4646H91.2992C92.4287 35.4646 93.5121 35.8502 94.3116 36.5368C95.1111 37.2234 95.5614 38.1549 95.5637 39.1268V39.1268Z" fill="black"/>
<path d="M95.5637 39.6667V82.0936C95.5633 83.0666 95.1139 83.9997 94.3142 84.6876C93.5144 85.3756 92.4299 85.762 91.2992 85.762H17.9841C16.8537 85.7617 15.7697 85.375 14.9705 84.6871C14.1714 83.9992 13.7224 83.0663 13.7224 82.0936V35.3884C15.8233 36.0586 15.8233 36.0586 17.9841 36.0032H91.2992C92.4289 36.0032 93.5126 36.389 94.3121 37.0759C95.1117 37.7627 95.5618 38.6945 95.5637 39.6667V39.6667Z" fill="#504F60"/>
<path opacity="0.1" d="M95.3552 55.3524V68.9204H80.0634C77.9908 68.8964 76.0126 68.1711 74.5569 66.9014C73.1011 65.6318 72.2849 63.9199 72.2849 62.1364C72.2849 60.3528 73.1011 58.641 74.5569 57.3713C76.0126 56.1017 77.9908 55.3764 80.0634 55.3524H95.3552Z" fill="black"/>
<path d="M95.5637 54.9908V68.5613H80.2718C78.1993 68.5373 76.2211 67.812 74.7653 66.5423C73.3096 65.2727 72.4934 63.5609 72.4934 61.7773C72.4934 59.9937 73.3096 58.2819 74.7653 57.0122C76.2211 55.7426 78.1993 55.0173 80.2718 54.9933L95.5637 54.9908Z" fill="#33323D"/>
<path opacity="0.1" d="M81.005 64.7822C82.7028 64.7822 84.0791 63.5979 84.0791 62.137C84.0791 60.6761 82.7028 59.4918 81.005 59.4918C79.3072 59.4918 77.9309 60.6761 77.9309 62.137C77.9309 63.5979 79.3072 64.7822 81.005 64.7822Z" fill="black"/>
<path d="M81.2137 64.4231C82.9115 64.4231 84.2878 63.2388 84.2878 61.7779C84.2878 60.317 82.9115 59.1327 81.2137 59.1327C79.516 59.1327 78.1396 60.317 78.1396 61.7779C78.1396 63.2388 79.516 64.4231 81.2137 64.4231Z" fill="#D9A514"/>
<path d="M122.107 54.874C122.229 56.0066 121.233 57.106 121.523 58.2153C121.586 58.4526 121.704 58.6764 121.747 58.9162C121.867 59.5754 121.411 60.1989 120.975 60.7498L117.231 65.477C117.081 65.6849 116.901 65.8757 116.696 66.0452C115.982 66.5937 114.907 66.5371 113.967 66.7007C113.306 66.8161 112.682 67.0536 112.138 67.3967C112.115 67.4134 112.1 67.437 112.097 67.4626C112.094 67.4883 112.102 67.5139 112.12 67.5344C112.276 67.7165 112.482 67.8623 112.719 67.9583C112.957 68.0543 113.219 68.0976 113.481 68.0841C113.58 68.1961 113.481 68.3596 113.338 68.4396C113.136 68.5625 112.861 68.592 112.821 68.8847C112.806 68.9869 112.83 69.0903 112.889 69.1799C113.04 69.3787 113.275 69.5193 113.544 69.5722C114.84 69.9128 116.241 69.3139 117.211 68.4986C118.181 67.6832 118.877 66.6539 119.829 65.8238C120.357 65.3651 120.955 64.9716 121.498 64.5264C122.582 63.6385 123.423 62.5588 124.237 61.4778C124.481 61.152 124.727 60.8175 124.83 60.4399C124.933 60.0624 124.884 59.6812 125 59.3159C125.151 58.8363 125.559 58.4551 125.897 58.0529C126.562 57.2659 127.005 56.303 126.918 55.3339C126.831 54.3649 126.132 53.4069 125.068 53.0773C124.739 52.9634 124.375 52.9444 124.032 53.0232C123.596 53.1388 123.275 53.4487 122.978 53.7451L122.263 54.4522C122.085 54.6073 121.944 54.7912 121.849 54.9933C121.803 55.0948 121.792 55.2054 121.817 55.312C121.843 55.4187 121.903 55.5168 121.991 55.5946" fill="#FBBEBE"/>
<path opacity="0.05" d="M122.107 54.874C122.229 56.0066 121.233 57.106 121.523 58.2153C121.586 58.4526 121.704 58.6764 121.747 58.9162C121.867 59.5754 121.411 60.1989 120.975 60.7498L117.231 65.477C117.081 65.6849 116.901 65.8757 116.696 66.0452C115.982 66.5937 114.907 66.5371 113.967 66.7007C113.306 66.8161 112.682 67.0536 112.138 67.3967C112.115 67.4134 112.1 67.437 112.097 67.4626C112.094 67.4883 112.102 67.5139 112.12 67.5344C112.276 67.7165 112.482 67.8623 112.719 67.9583C112.957 68.0543 113.219 68.0976 113.481 68.0841C113.58 68.1961 113.481 68.3596 113.338 68.4396C113.136 68.5625 112.861 68.592 112.821 68.8847C112.806 68.9869 112.83 69.0903 112.889 69.1799C113.04 69.3787 113.275 69.5193 113.544 69.5722C114.84 69.9128 116.241 69.3139 117.211 68.4986C118.181 67.6832 118.877 66.6539 119.829 65.8238C120.357 65.3651 120.955 64.9716 121.498 64.5264C122.582 63.6385 123.423 62.5588 124.237 61.4778C124.481 61.152 124.727 60.8175 124.83 60.4399C124.933 60.0624 124.884 59.6812 125 59.3159C125.151 58.8363 125.559 58.4551 125.897 58.0529C126.562 57.2659 127.005 56.303 126.918 55.3339C126.831 54.3649 126.132 53.4069 125.068 53.0773C124.739 52.9634 124.375 52.9444 124.032 53.0232C123.596 53.1388 123.275 53.4487 122.978 53.7451L122.263 54.4522C122.085 54.6073 121.944 54.7912 121.849 54.9933C121.803 55.0948 121.792 55.2054 121.817 55.312C121.843 55.4187 121.903 55.5168 121.991 55.5946" fill="black"/>
<path d="M124.941 84.0318C124.124 84.461 123.105 84.4868 122.154 84.3872C122.001 84.3712 121.82 84.3613 121.726 84.4634C121.583 84.611 121.751 84.8323 121.926 84.9467C122.486 85.3089 123.145 85.5421 123.839 85.6243C124.459 85.6999 125.085 85.7357 125.712 85.7313C127.427 85.7571 129.141 85.7817 130.829 85.5702C130.929 85.5637 131.027 85.5394 131.115 85.4989C131.224 85.4331 131.3 85.3342 131.327 85.2222C131.442 84.8434 131.219 84.4376 130.882 84.1744C130.545 83.9112 130.112 83.7649 129.689 83.6235L128.203 83.1254C127.854 83.0086 127.295 82.6987 126.916 82.7233C126.205 82.7676 125.531 83.7342 124.941 84.0318Z" fill="#3F3D56"/>
<path opacity="0.05" d="M124.941 84.0318C124.124 84.461 123.105 84.4868 122.154 84.3872C122.001 84.3712 121.82 84.3613 121.726 84.4634C121.583 84.611 121.751 84.8323 121.926 84.9467C122.486 85.3089 123.145 85.5421 123.839 85.6243C124.459 85.6999 125.085 85.7357 125.712 85.7313C127.427 85.7571 129.141 85.7817 130.829 85.5702C130.929 85.5637 131.027 85.5394 131.115 85.4989C131.224 85.4331 131.3 85.3342 131.327 85.2222C131.442 84.8434 131.219 84.4376 130.882 84.1744C130.545 83.9112 130.112 83.7649 129.689 83.6235L128.203 83.1254C127.854 83.0086 127.295 82.6987 126.916 82.7233C126.205 82.7676 125.531 83.7342 124.941 84.0318Z" fill="black"/>
<path d="M125.983 67.0536C125.364 67.7619 124.724 68.5797 124.877 69.4566C124.96 69.9288 125.267 70.3457 125.493 70.7822C125.799 71.375 125.959 72.012 126.116 72.6466C126.347 73.5738 126.58 74.5035 126.722 75.4455C126.883 76.5093 126.125 79.5874 126.055 80.6585C126.037 80.9168 126.002 81.1959 125.793 81.3816C125.712 81.4554 125.603 81.5144 125.566 81.6104C125.544 81.7028 125.562 81.7989 125.616 81.8809C125.964 82.5573 126.678 83.0615 127.474 83.3492C128.27 83.637 130.189 84.1338 131.057 84.1597C131.171 84.1705 131.287 84.1574 131.394 84.1215C131.509 84.061 131.6 83.9712 131.654 83.8645C132.276 82.8413 131.678 79.2037 131.687 78.0489C131.695 77.086 131.96 76.1293 131.911 75.1676C131.871 74.3953 131.625 73.6402 131.544 72.8704C131.401 71.6086 131.67 70.3408 131.94 69.0938C132.146 68.137 132.353 67.1802 132.617 66.2358C132.779 65.659 132.966 65.0773 133.332 64.5768C133.618 64.1796 134.019 63.8476 134.352 63.47C135.276 62.4273 135.687 61.1137 135.495 59.8127C135.475 59.6897 133.352 60.2763 133.164 60.3464C132.401 60.6248 131.698 61.0137 131.087 61.4963C130.595 61.8996 130.208 62.4383 129.777 62.8896C129.169 63.5282 128.567 64.1714 127.974 64.8191C127.296 65.5594 126.633 66.3042 125.983 67.0536Z" fill="#464353"/>
<path opacity="0.05" d="M125.983 67.0106C125.364 67.7189 124.724 68.5379 124.877 69.4135C124.96 69.887 125.267 70.3039 125.493 70.7404C125.799 71.332 125.959 71.9702 126.116 72.6035C126.347 73.532 126.58 74.4617 126.722 75.4025C126.883 76.4675 126.125 79.5443 126.055 80.6155C126.037 80.8737 126.002 81.1541 125.793 81.3398C125.712 81.4124 125.603 81.4714 125.566 81.5673C125.544 81.6597 125.562 81.7559 125.616 81.8379C125.964 82.5155 126.678 83.0184 127.474 83.3136C128.27 83.6087 130.189 83.8657 131.057 83.8903C131.171 83.9012 131.287 83.8881 131.394 83.8522C131.509 83.7924 131.6 83.703 131.654 83.5964C132.276 82.5733 131.678 79.1693 131.687 78.0133C131.695 77.0492 131.96 76.0936 131.911 75.1307C131.871 74.3584 131.625 73.6033 131.544 72.8347C131.401 71.5718 131.67 70.3039 131.94 69.0569C132.146 68.1014 132.353 67.1446 132.617 66.1989C132.779 65.6222 132.966 65.0405 133.332 64.54C133.618 64.1428 134.019 63.8107 134.352 63.4332C135.277 62.3906 135.687 61.0768 135.495 59.7758C135.475 59.6529 133.352 60.2395 133.165 60.3096C132.401 60.5888 131.698 60.9781 131.087 61.4606C130.595 61.8628 130.208 62.4014 129.777 62.8527C129.169 63.4914 128.567 64.135 127.974 64.7835C127.296 65.518 126.633 66.2604 125.983 67.0106Z" fill="black"/>
<path d="M119.097 51.4528C121.013 51.4528 122.566 50.1165 122.566 48.4682C122.566 46.8198 121.013 45.4835 119.097 45.4835C117.182 45.4835 115.629 46.8198 115.629 48.4682C115.629 50.1165 117.182 51.4528 119.097 51.4528Z" fill="#FBBEBE"/>
<path d="M122.221 48.3427C122.542 48.7825 122.962 49.1623 123.457 49.4594C123.952 49.7565 124.511 49.9647 125.101 50.0717L124.84 50.8895C124.388 52.2939 123.881 53.7795 122.62 54.7535C122.763 54.2776 122.58 53.7697 122.269 53.3565C121.957 52.9433 121.52 52.6186 121.091 52.2976L119.095 50.8096C119.037 50.7692 118.988 50.72 118.952 50.6645C118.902 50.5596 118.902 50.4423 118.952 50.3374C119.206 49.6561 119.932 49.2306 120.524 48.7706C120.821 48.5328 121.086 48.2672 121.314 47.9787C121.713 47.4892 121.96 47.9811 122.221 48.3427Z" fill="#FBBEBE"/>
<path d="M114.528 45.4675L114.45 44.9067C114.997 45.0297 115.517 44.6288 115.868 44.2144C116.218 43.7999 116.542 43.3117 117.075 43.1383C117.723 42.9293 118.409 43.2613 119.027 43.5417C119.72 43.8725 120.481 44.0854 121.267 44.1689C121.392 44.1725 121.517 44.1898 121.637 44.2205C122.04 44.3435 122.232 44.7788 122.29 45.1736C122.349 45.5683 122.333 45.9877 122.532 46.3394C122.675 46.6063 122.94 46.8043 123.103 47.0674C123.532 47.7733 123.118 48.7387 123.565 49.431L122.453 48.5542C122.352 48.4743 122.209 48.3907 122.096 48.4583C122.007 48.5124 122 48.6292 121.964 48.7227C121.857 48.9957 121.46 49.0769 121.173 48.9686C120.885 48.8604 120.675 48.6255 120.458 48.4116C119.966 47.9123 119.38 47.4732 118.694 47.2605C118.394 47.1638 118.073 47.1232 117.752 47.1414C117.432 47.1596 117.12 47.2363 116.837 47.3663C116.318 47.6184 115.938 48.2062 115.302 48.2271C114.43 48.2554 114.067 46.8584 113.664 46.3062C113.811 46.2107 113.915 46.0736 113.957 45.9189C113.999 45.7642 113.976 45.6018 113.892 45.4601C113.951 45.4392 114.516 45.3814 114.528 45.4675Z" fill="#464353"/>
<path d="M71.6271 28.0184C71.3484 28.2317 71.0907 28.4645 70.8567 28.7144C70.6212 28.9678 70.4959 29.284 70.5023 29.6085C70.5036 29.7026 70.5385 29.794 70.6024 29.8704C70.635 29.907 70.6801 29.9338 70.7313 29.9473C70.7826 29.9607 70.8374 29.9601 70.8882 29.9454C70.9456 29.9202 70.9948 29.883 71.0311 29.8372C71.1822 29.681 71.3424 29.5316 71.5113 29.3896C71.5727 29.3367 71.6542 29.2814 71.7371 29.301C71.7743 29.3124 71.8076 29.3314 71.8343 29.3564C71.9304 29.4279 72.0004 29.5219 72.0358 29.6269C72.0858 29.8151 71.9586 30.0032 71.8143 30.1508C71.6699 30.2984 71.4999 30.4398 71.4413 30.6255C71.4191 30.6745 71.4191 30.7289 71.4413 30.778C71.4689 30.8135 71.5075 30.8416 71.5527 30.8591C71.7574 30.9561 71.9843 31.0132 72.2174 31.0264C72.4506 31.0395 72.6842 31.0085 72.9019 30.9354C73.1877 30.8358 73.4421 30.6648 73.7365 30.5763C73.864 30.5463 73.9875 30.5051 74.1052 30.4533C74.1894 30.4051 74.2617 30.343 74.3179 30.2706C74.374 30.1982 74.413 30.1169 74.4325 30.0315C74.4696 29.8608 74.4769 29.6863 74.4539 29.5138C74.4183 28.8457 74.2521 28.1876 73.9623 27.5671C73.9455 27.527 73.9169 27.4914 73.8794 27.4638C73.8364 27.4412 73.7868 27.4297 73.7365 27.4306C73.3706 27.3974 72.7704 27.2363 72.4174 27.3531C72.2939 27.4113 72.1874 27.4929 72.1058 27.5917C72.0401 27.6544 71.6271 27.936 71.6271 28.0184Z" fill="#A1616A"/>
<path d="M71.5113 27.7404C71.5113 27.4404 71.0826 26.716 71.7643 26.6681C71.7643 26.3471 71.237 26.1479 71.3356 25.8072C71.367 25.6941 71.4785 25.6019 71.4913 25.4863C71.5342 25.1579 70.8454 24.9796 70.9597 24.6648C71.0026 24.5418 71.1541 24.4705 71.1869 24.3487C71.2641 24.0647 70.6739 23.938 70.6624 23.6465C70.6624 23.5482 70.7267 23.4559 70.721 23.3575C70.721 23.2346 70.5967 23.1411 70.5281 23.0341C70.3494 22.7599 70.4366 22.3356 70.1108 22.1942C70.3266 22.2102 70.3966 21.9347 70.308 21.7662C70.2194 21.5977 70.0379 21.4514 70.0365 21.2645C70.0472 21.1967 70.0472 21.1281 70.0365 21.0603C69.9765 20.8808 69.6349 20.866 69.5777 20.6914C69.5703 20.6244 69.5679 20.557 69.5706 20.4897C69.5477 20.3508 69.3819 20.2622 69.2261 20.2229C69.0643 20.1992 68.9086 20.1514 68.766 20.0814C68.6659 20.0163 68.5502 19.908 68.443 19.9585C68.403 19.9794 68.3829 20.0187 68.3529 20.0482C68.2243 20.1774 67.9785 20.1208 67.817 20.0261C67.3397 19.7469 67.1024 19.2464 67.001 18.7582C66.8995 18.27 66.9024 17.7658 66.7752 17.2825C66.7364 17.1319 66.6848 16.9839 66.6208 16.8398C66.5665 16.7168 66.3921 16.5237 66.3807 16.3995C66.355 16.1167 67.0353 16.3097 67.2939 16.338C67.5451 16.3591 67.7934 16.4003 68.0357 16.461C68.2943 16.5451 68.5476 16.6407 68.7945 16.7475C69.8264 17.1398 71.0726 17.1878 71.9015 17.847C72.1745 18.0634 72.4046 18.3475 72.759 18.4459C72.9216 18.4727 73.0819 18.5084 73.2392 18.5528C73.6322 18.7115 73.6937 19.1603 73.908 19.485C73.9754 19.5707 74.0342 19.6612 74.0838 19.7556C74.1251 19.8668 74.1445 19.9832 74.141 20.0999L74.171 20.9521C74.2196 22.3799 74.2682 23.8113 74.091 25.2305C74.0338 25.699 73.948 26.1811 74.1095 26.6312C74.1524 26.7542 74.2124 26.8697 74.2525 26.994C74.2878 27.1396 74.306 27.2879 74.3068 27.4367L74.3296 27.9888C74.3376 28.0318 74.3263 28.0757 74.2982 28.1118C74.2743 28.1285 74.2464 28.1404 74.2164 28.1465C74.1865 28.1527 74.1554 28.153 74.1253 28.1475C73.232 28.0786 72.3288 27.6457 71.4856 27.9077" fill="#464353"/>
<path d="M112.273 70.1674C118.111 70.1674 122.843 69.5788 122.843 68.8528C122.843 68.1267 118.111 67.5381 112.273 67.5381C106.436 67.5381 101.703 68.1267 101.703 68.8528C101.703 69.5788 106.436 70.1674 112.273 70.1674Z" fill="#504F60"/>
<path d="M121.367 68.9167C121.181 68.2317 121.065 67.6304 121.065 67.6304C121.065 67.6304 121.108 66.8851 120.72 66.3256V66.1387V64.7613C120.83 64.5112 120.965 64.2697 121.124 64.0395C121.41 63.6066 121.124 62.0202 121.124 62.0202C121.124 62.0202 120.056 59.7832 120.315 58.3641C120.574 56.9449 118.123 52.0628 118.123 52.0628C118.138 51.5919 118.215 51.1241 118.353 50.6682C118.379 50.5724 118.39 50.4739 118.384 50.3755C118.384 50.3632 118.384 50.3522 118.384 50.3399C118.384 50.3276 118.384 50.3472 118.384 50.3509C118.347 49.4151 117.487 47.6614 117.487 47.6614L117.603 44.3189C117.603 44.3189 118.151 42.3513 117.257 39.7012C116.944 38.7776 116.744 38.0385 116.616 37.4679C116.602 37.404 116.588 37.3449 116.576 37.2822C118.419 37.0362 119.826 36.8395 119.826 36.8395C119.826 36.8395 118.757 32.9915 118.036 32.3176C117.314 31.6437 116.737 29.5273 116.737 29.5273C116.737 29.5273 116.361 26.8107 116.968 26.0163C117.575 25.2219 117.661 23.8519 117.661 23.8519C117.661 23.8519 119.046 22.9911 119.22 22.6013C119.395 22.2114 119.682 21.3506 119.682 20.8943C119.682 20.4381 119.509 20.0335 119.566 19.7875C119.623 19.5416 119.162 18.6328 119.393 18.1999C119.453 18.0669 119.484 17.9256 119.485 17.783C119.485 17.7789 119.485 17.7748 119.485 17.7707C119.485 17.7707 119.485 17.7707 119.485 17.7707C119.487 17.3919 119.446 17.0138 119.363 16.6418C118.963 16.3507 118.495 16.1357 117.991 16.0109L117.961 15.9076L117.883 15.6371C117.839 15.6121 117.794 15.5891 117.747 15.5682V15.4698L117.734 15.0788L117.951 14.2007C118.38 12.6733 116.009 12.4458 116.009 12.4458C115.865 12.2116 115.626 12.0312 115.337 11.9392C114.861 11.7953 115.259 14.2364 115.48 14.3987C115.648 14.5217 116.165 15.2817 116.415 15.658L116.455 15.7195C116.416 15.7498 116.379 15.7827 116.346 15.8179L116.436 16.3479L116.451 16.4291C116.294 16.597 116.166 16.7838 116.072 16.9837C116.072 16.9837 116.501 17.392 116.419 17.8445C116.338 18.2971 116.552 18.8714 116.562 18.9021C116.536 18.8763 116.232 18.5934 115.928 18.6623C115.623 18.7312 114.773 18.9513 114.773 18.9513C114.773 18.9513 114.138 19.0472 114.201 19.1677C114.264 19.2883 113.772 19.8171 113.772 19.8171L112.066 18.425C112.049 18.3832 112.03 18.3413 112.016 18.302C111.946 18.1013 111.899 17.8954 111.873 17.6871C112.059 17.6491 112.242 17.5993 112.419 17.5383C112.598 17.4853 112.76 17.3959 112.891 17.2776C113.064 17.1017 113.096 16.8632 113.167 16.6443C113.301 16.2163 113.595 15.8363 113.8 15.4293C114.146 14.7414 114.257 13.9831 114.121 13.2427C114.095 13.0146 114.005 12.7952 113.86 12.6033C113.581 12.2737 113.075 12.1396 112.708 11.8765C112.34 11.6133 112.103 11.2112 111.674 11.0156C111.287 10.8373 110.817 10.8582 110.38 10.9197C109.526 11.0409 108.705 11.2978 107.96 11.6772C107.711 11.8002 107.437 11.9515 107.151 11.906C106.905 11.8679 106.723 11.6994 106.568 11.537C106.57 11.5303 106.572 11.5237 106.575 11.5174C106.568 11.5114 106.562 11.5048 106.557 11.4977C106.376 11.8431 106.285 12.2183 106.291 12.5971C106.291 12.6561 106.291 12.7201 106.299 12.773V12.8344C106.299 12.8517 106.299 12.8689 106.299 12.8849C106.299 12.9111 106.295 12.9372 106.287 12.9623C106.251 13.0376 106.196 13.1051 106.127 13.1603C106.074 13.2116 106.026 13.2663 105.984 13.3239C105.984 13.3042 105.998 13.2845 106.007 13.2636C105.898 13.4006 105.836 13.5614 105.829 13.7273C105.821 13.848 105.867 13.9668 105.958 14.0593C106.043 14.1308 106.137 14.195 106.237 14.2511C106.203 14.4135 106.185 14.5781 106.185 14.743C106.188 15.2321 106.338 15.7121 106.62 16.1367C106.902 16.5613 107.306 16.9162 107.794 17.1669C107.814 17.2075 107.833 17.2493 107.852 17.2899C108.07 17.7818 108.235 18.3598 108.162 18.8886C108.162 18.9267 108.149 18.9661 108.142 19.0042C108.135 19.0423 108.099 19.0448 108.08 19.0657C108.08 19.0657 105.261 19.0903 104.597 18.5738C103.934 18.0573 102.922 19.8367 102.922 19.8367C102.922 19.8367 101.912 20.0052 101.709 19.8367C101.506 19.6683 100.324 19.8134 100.324 19.8134C99.84 19.4428 99.2099 19.2449 98.5621 19.26C98.1696 19.0033 97.7365 18.7963 97.2759 18.6451V18.6451L97.2445 18.6353C97.0412 18.5715 96.8238 18.548 96.6085 18.5664C96.6085 18.5664 95.2222 17.5826 94.8178 17.0513C94.4133 16.5201 92.4883 14.5586 92.4797 14.55V14.4553L92.4583 14.17C92.401 14.1777 92.3433 14.1818 92.2853 14.1823C92.2753 14.154 92.261 14.1208 92.2467 14.0827C92.1358 13.8044 91.9992 13.5342 91.838 13.2747C91.838 13.2747 91.838 12.9144 91.9595 12.8234C92.081 12.7324 91.9095 11.4104 91.9095 11.4104C91.9095 11.4104 90.6604 8.89797 89.5414 10.7734C89.5414 10.7734 87.4263 11.9871 89.2012 13.4014C89.2012 13.4014 89.9158 13.6965 90.0101 13.9302C90.0759 14.0814 90.316 14.5057 90.4775 14.791L90.5504 14.914L90.5303 14.9287L90.5561 15.1649L90.5675 15.2559C90.2331 15.4194 90.0059 15.5817 90.0616 15.7035C90.16 15.9118 90.2277 16.13 90.2631 16.3528C90.2631 16.3528 92.7184 18.9993 93.0356 20.1294C93.0356 20.1294 99.6197 23.4965 101.785 23.7363L101.402 25.415C101.346 25.8705 101.317 26.3281 101.316 26.7861C101.345 27.1465 101.056 28.7821 101.056 28.7821C101.056 28.7821 100.68 31.1875 100.363 31.5244C100.046 31.8614 100.103 33.3039 100.103 33.3039C100.028 33.9945 99.8844 34.6783 99.674 35.3478C99.3567 36.2615 99.5868 37.3929 99.5868 37.3929C99.5868 37.3929 98.4907 39.5573 101.117 38.0902C101.117 38.0902 102.404 38.0213 103.893 37.977C103.893 38.0188 103.893 38.0619 103.893 38.1C103.893 38.2648 103.893 38.4431 103.883 38.63C103.863 39.8696 103.854 41.5815 103.92 42.8703C104.036 45.1552 104.845 49.677 104.845 49.677V51.9533C104.792 52.1668 104.767 52.3845 104.767 52.6026C104.75 53.4035 104.998 54.1921 105.482 54.8765L105.685 56.3915C105.685 56.3915 106.159 57.3901 106.168 57.9902C106.166 58.0386 106.159 58.0867 106.148 58.1341C106.13 58.2105 106.122 58.2886 106.125 58.3665C106.098 59.0552 106.58 60.7031 106.58 60.7031C106.58 60.7031 106.608 62.3621 106.897 62.4592C107.144 62.5416 106.567 63.4147 106.395 63.6656C106.391 63.6502 106.387 63.6346 106.385 63.6189L106.35 63.6681C106.29 63.8024 106.259 63.9449 106.259 64.0886C106.243 64.2019 106.265 64.3168 106.321 64.42C106.378 64.5232 106.468 64.6105 106.58 64.6716C107.128 64.9605 107.423 65.2004 106.957 65.2963C106.786 65.3192 106.616 65.35 106.448 65.3885C106.448 65.3701 106.431 65.3504 106.424 65.3332C106.358 65.3553 106.303 65.3962 106.269 65.4491C106.234 65.502 106.222 65.5636 106.234 65.6234C106.238 65.8185 106.296 66.0098 106.404 66.1817C106.865 67.0721 107.186 67.4115 107.186 67.4115L107.407 67.3906C107.374 67.4634 107.331 67.5324 107.278 67.5959C107.194 67.6991 107.082 67.7834 106.953 67.8419C106.832 67.9042 106.697 67.944 106.557 67.9587C106.4 67.9631 106.247 67.9958 106.106 68.0547C105.965 68.1136 105.84 68.1974 105.739 68.3006C105.453 68.6216 105.271 69.0581 105.839 69.4418L107.904 70.0567C107.904 70.0567 111.457 70.4539 111.269 69.7677C111.08 69.0815 110.966 68.4814 110.966 68.4814C110.981 68.0624 110.883 67.6461 110.68 67.2651C110.643 67.203 110.601 67.143 110.554 67.0856L110.68 67.0745C110.68 67.0745 110.94 65.5582 111.286 65.2705C111.366 65.204 111.384 65.1475 111.366 65.113C111.402 65.0306 111.31 64.9827 111.194 64.9544L111.169 65.0147C111.055 64.9934 110.94 64.9823 110.824 64.9815C110.824 64.9815 110.708 64.1883 111.084 63.8993C111.115 63.8663 111.137 63.8284 111.149 63.7877C111.162 63.7471 111.164 63.7047 111.157 63.6631C111.16 63.5543 111.147 63.4456 111.117 63.3397C111.113 63.3465 111.109 63.3531 111.104 63.3594C110.916 62.6388 110.275 61.4938 110.275 61.4938C110.275 61.4938 110.247 60.7732 110.478 60.4842C110.71 60.1952 110.448 56.5637 110.448 56.5637C110.448 56.5637 110.535 54.8088 110.275 53.991C110.015 53.1732 110.593 52.2103 110.593 52.2103C110.593 52.2103 110.593 52.1919 110.593 52.1587V52.1464L110.56 51.8697C110.559 51.8754 110.559 51.8812 110.56 51.8869C110.501 51.4221 110.391 50.5797 110.31 50.1911C110.194 49.6377 110.34 46.9937 110.34 46.9937L110.858 45.8623L111.783 47.8115L112.765 50.4087C112.765 50.4087 113.251 50.9572 113.262 51.5155C113.262 51.5426 113.262 51.5696 113.262 51.5967C113.254 51.6542 113.251 51.7121 113.251 51.7701C113.233 52.0982 113.338 52.4226 113.55 52.6961C113.55 52.6961 113.81 53.9259 114.214 54.2345C114.619 54.5432 114.619 55.1482 114.619 55.1482C114.619 55.1482 115.109 56.929 115.333 57.2389C115.527 57.502 115.537 58.2227 115.536 58.4477C115.536 58.4883 115.536 58.5117 115.536 58.5117C115.536 58.5117 115.605 59.1487 115.602 59.6824C115.602 59.7488 115.602 59.8128 115.602 59.873C115.602 59.8685 115.602 59.864 115.602 59.8595C115.602 60.0053 115.581 60.1506 115.542 60.2924L115.533 60.317C115.533 60.2862 115.533 60.2567 115.543 60.2272C115.443 60.5896 115.395 60.9614 115.4 61.334C115.387 61.9735 115.5 62.731 115.95 63.1786C116.731 63.9485 117.221 63.8525 117.221 63.8525C117.221 63.8525 116.847 64.8142 116.384 65.0073C116.366 65.0144 116.35 65.0235 116.335 65.0343C116.335 65.0147 116.326 64.9962 116.323 64.9778C116.272 65.0257 116.232 65.0825 116.208 65.1443C116.183 65.2061 116.174 65.2717 116.181 65.3369C116.148 65.7599 116.458 66.4436 116.752 66.7622C116.862 66.8543 116.996 66.9219 117.142 66.9589C117.119 66.9731 117.095 66.9858 117.07 66.997C117.018 67.0213 116.965 67.0431 116.911 67.0622C116.836 67.0897 116.756 67.1075 116.675 67.1151C116.518 67.1187 116.364 67.1511 116.223 67.21C116.082 67.269 115.958 67.3532 115.858 67.457C115.572 67.7767 115.389 68.2133 115.958 68.597L118.023 69.2119C118.023 69.2119 121.553 69.6017 121.367 68.9167Z" fill="url(#paint0_linear)"/>
<path d="M107.803 70.053L105.802 69.4381C105.251 69.0544 105.426 68.6179 105.705 68.2969C105.801 68.1945 105.921 68.111 106.058 68.0521C106.194 67.9931 106.344 67.96 106.497 67.955C106.632 67.9402 106.762 67.9003 106.878 67.8382C107.005 67.7789 107.114 67.6946 107.196 67.5922C107.342 67.3929 107.42 67.1625 107.423 66.9269C107.423 66.9269 109.618 66.3735 110.218 66.9269C110.325 67.0271 110.415 67.1402 110.484 67.2627C110.683 67.6447 110.781 68.0602 110.77 68.4789C110.77 68.4789 110.881 69.079 111.063 69.7652C111.244 70.4515 107.803 70.053 107.803 70.053Z" fill="#2D293D"/>
<path d="M117.584 69.2044L115.583 68.5896C115.032 68.2059 115.207 67.7693 115.486 67.4496C115.581 67.3468 115.701 67.263 115.838 67.204C115.974 67.145 116.124 67.1121 116.276 67.1077C116.355 67.1007 116.433 67.0829 116.505 67.0548C116.558 67.0356 116.609 67.0139 116.659 66.9896C117.218 66.7252 117.204 66.0759 117.204 66.0759C117.204 66.0759 119.398 65.5225 119.999 66.0759C120.08 66.1509 120.15 66.2334 120.209 66.3219C120.585 66.8814 120.544 67.6279 120.544 67.6279C120.544 67.6279 120.655 68.2292 120.83 68.9142C121.004 69.5992 117.584 69.2044 117.584 69.2044Z" fill="#2D293D"/>
<path opacity="0.1" d="M110.22 66.9257C110.327 67.0259 110.416 67.139 110.485 67.2614L107.198 67.5898C107.344 67.3904 107.423 67.1601 107.426 66.9245C107.426 66.9245 109.619 66.3723 110.22 66.9257Z" fill="black"/>
<path opacity="0.1" d="M120.212 66.3244V66.8544C119.701 67.5787 117.227 67.4201 116.508 67.0573C116.561 67.0381 116.612 67.0163 116.662 66.9921C117.221 66.7277 117.207 66.0784 117.207 66.0784C117.207 66.0784 119.4 65.525 120.002 66.0784C120.083 66.1534 120.153 66.2359 120.212 66.3244V66.3244Z" fill="black"/>
<path d="M120.602 64.0395C120.449 64.2704 120.319 64.5119 120.212 64.7613V66.6613C119.652 67.4545 116.746 67.1901 116.353 66.7572C115.96 66.3244 115.55 65.1979 115.992 65.0024C116.433 64.8068 116.802 63.8476 116.802 63.8476C116.802 63.8476 116.326 63.9435 115.572 63.1737C114.817 62.4039 115.041 60.697 115.182 60.2887C115.322 59.8804 115.182 58.5092 115.182 58.5092C115.182 58.5092 115.21 57.5463 114.987 57.2339C114.764 56.9216 114.288 55.1433 114.288 55.1433C114.288 55.1433 114.288 54.542 113.897 54.2296C113.505 53.9172 113.254 52.6899 113.254 52.6899C113.025 52.3832 112.926 52.0178 112.975 51.6557C113.058 51.0543 112.499 50.405 112.499 50.405L111.549 47.8065L110.654 45.8586L110.151 46.9887C110.151 46.9887 110.008 49.634 110.124 50.1861C110.24 50.7383 110.41 52.2066 110.41 52.2066C110.41 52.2066 109.851 53.1683 110.102 53.9861C110.354 54.8039 110.262 56.5612 110.262 56.5612C110.262 56.5612 110.514 60.1915 110.29 60.4805C110.065 60.7695 110.094 61.4914 110.094 61.4914C110.094 61.4914 111.237 63.6066 110.877 63.8956C110.517 64.1846 110.625 64.9778 110.625 64.9778C110.625 64.9778 111.407 64.9778 111.073 65.2668C110.738 65.5558 110.485 67.0708 110.485 67.0708L107.105 67.4115C107.105 67.4115 106.797 67.0758 106.349 66.1817C105.902 65.2877 106.432 65.3885 106.883 65.2914C107.333 65.1942 107.048 64.9556 106.517 64.6666C105.985 64.3776 106.294 63.7283 106.294 63.7283C106.294 63.7283 107.104 62.5502 106.824 62.4543C106.544 62.3584 106.517 60.6982 106.517 60.6982C106.517 60.6982 105.958 58.7306 106.098 58.1968C106.238 57.6631 105.651 56.394 105.651 56.394L105.455 54.8789C104.857 54.0192 104.639 53.0029 104.84 52.016V49.6795C104.84 49.6795 104.057 45.1588 103.946 42.8739C103.874 41.4105 103.894 39.4134 103.917 38.1676C103.931 37.4691 103.946 37.0055 103.946 37.0055L116.019 35.9233C116.019 35.9233 116.008 36.4029 116.238 37.4667C116.362 38.0373 116.555 38.7764 116.858 39.6999C117.724 42.3451 117.194 44.3165 117.194 44.3165L117.081 47.6602C117.081 47.6602 118.143 49.8959 117.92 50.6657C117.785 51.1228 117.709 51.5914 117.694 52.0628C117.694 52.0628 120.069 56.9449 119.818 58.3641C119.566 59.7832 120.599 62.0202 120.599 62.0202C120.599 62.0202 120.882 63.6066 120.602 64.0395Z" fill="#464353"/>
<path opacity="0.05" d="M113.7 51.5106L117.375 51.0888C117.375 51.0888 115.293 52.9174 113.7 51.5106Z" fill="black"/>
<path opacity="0.1" d="M116.844 47.9984C116.844 47.9984 116.969 49.1175 116.173 49.538C116.173 49.538 117.598 49.3462 116.844 47.9984Z" fill="black"/>
<path opacity="0.1" d="M116.618 44.4394C116.618 44.4394 113.545 46.6161 112.428 46.4354C111.31 46.2546 116.618 44.4394 116.618 44.4394Z" fill="black"/>
<path opacity="0.1" d="M109.143 52.5313C109.143 52.5313 106.81 52.9875 106.74 53.7943C106.67 54.601 109.143 52.5313 109.143 52.5313Z" fill="black"/>
<path opacity="0.05" d="M109.657 62.5612C109.657 62.5612 106.36 63.09 107.296 63.4504C108.232 63.8107 109.77 64.0997 109.77 64.0997C109.77 64.0997 110.834 64.1477 109.657 62.5612Z" fill="black"/>
<g opacity="0.05">
<path opacity="0.05" d="M106.63 64.0235C106.547 63.9789 106.477 63.9188 106.424 63.8477C106.372 63.7766 106.339 63.6963 106.328 63.6127L106.294 63.6632C106.294 63.6632 105.987 64.3125 106.518 64.6002C106.578 64.6334 106.637 64.6666 106.69 64.6986C106.788 64.6826 106.894 64.6703 106.995 64.6482C107.446 64.5522 107.161 64.3125 106.63 64.0235Z" fill="black"/>
<path opacity="0.05" d="M110.877 63.8304C110.969 63.7591 110.966 63.5746 110.91 63.3385C110.767 63.5242 110.726 63.8144 110.723 64.0345C110.757 63.9581 110.81 63.8886 110.877 63.8304V63.8304Z" fill="black"/>
<path opacity="0.05" d="M110.37 51.866C110.248 52.1505 110.173 52.448 110.147 52.7502C110.21 52.5415 110.296 52.3381 110.403 52.1427L110.37 51.866Z" fill="black"/>
<path opacity="0.05" d="M117.922 50.6042C117.944 50.5178 117.954 50.4295 117.952 50.3411C117.91 50.5206 117.881 50.6866 117.86 50.833C117.879 50.758 117.899 50.6866 117.922 50.6042Z" fill="black"/>
<path opacity="0.05" d="M110.291 60.4165C110.337 60.3575 110.363 60.1583 110.374 59.8816C110.271 60.0957 110.216 60.3249 110.213 60.5567C110.232 60.5074 110.258 60.4604 110.291 60.4165V60.4165Z" fill="black"/>
<path opacity="0.05" d="M110.977 64.9519C110.804 65.4343 110.675 65.9278 110.593 66.4276L107.213 66.7634C107.213 66.7634 106.904 66.4276 106.457 65.5336C106.421 65.4645 106.389 65.394 106.361 65.3221C106.158 65.402 106.075 65.5828 106.344 66.1104C106.791 67.0007 107.101 67.3401 107.101 67.3401L110.481 67.0032C110.481 67.0032 110.733 65.4881 111.067 65.1991C111.239 65.0602 111.133 64.9876 110.977 64.9519Z" fill="black"/>
<path opacity="0.05" d="M106.518 60.633C106.518 60.633 106.545 62.292 106.825 62.3879C106.968 62.1136 107.061 61.8529 106.936 61.8099C106.65 61.714 106.628 60.0538 106.628 60.0538C106.628 60.0538 106.069 58.0862 106.21 57.5524C106.35 57.0187 105.762 55.7496 105.762 55.7496L105.566 54.2345C104.968 53.3748 104.75 52.3585 104.952 51.3716V49.0351C104.952 49.0351 104.169 44.5144 104.057 42.2295C103.986 40.7661 104.006 38.769 104.029 37.5232C104.029 37.2982 104.037 37.099 104.042 36.9305L103.946 36.9391C103.946 36.9391 103.93 37.4015 103.917 38.1012C103.894 39.347 103.873 41.3441 103.946 42.8063C104.057 45.0912 104.839 49.6131 104.839 49.6131V51.9496C104.638 52.9362 104.857 53.952 105.455 54.8113L105.649 56.3264C105.649 56.3264 106.237 57.6004 106.097 58.1304C105.957 58.6605 106.518 60.633 106.518 60.633Z" fill="black"/>
<path opacity="0.05" d="M116.468 66.1153C116.193 65.7732 116.01 65.3831 115.932 64.9728C115.588 65.2409 115.983 66.2813 116.361 66.6945C116.751 67.1274 119.658 67.3918 120.219 66.5974V66.1399C119.458 66.7831 116.837 66.5248 116.468 66.1153Z" fill="black"/>
<path opacity="0.05" d="M120.715 63.3975C120.562 63.6285 120.431 63.8699 120.324 64.1194V64.46C120.388 64.3371 120.478 64.1723 120.61 63.978C120.698 63.7886 120.74 63.5855 120.732 63.3815C120.732 63.3815 120.72 63.3926 120.715 63.3975Z" fill="black"/>
<path opacity="0.05" d="M116.639 63.7775C116.746 63.5923 116.838 63.4012 116.915 63.2057C116.915 63.2057 116.439 63.3016 115.685 62.5318C115.136 61.9722 115.105 60.9146 115.183 60.2235C115.04 60.633 114.819 62.3399 115.573 63.1098C116.066 63.6127 116.439 63.7455 116.639 63.7775Z" fill="black"/>
<path opacity="0.05" d="M115.182 58.444C115.231 58.9179 115.25 59.3937 115.237 59.8693C115.251 59.7942 115.27 59.7199 115.295 59.6467C115.437 59.2372 115.295 57.8673 115.295 57.8673C115.295 57.8673 115.323 56.9044 115.099 56.592C114.874 56.2796 114.407 54.4989 114.407 54.4989C114.407 54.4989 114.407 53.8976 114.015 53.5852C113.624 53.2729 113.372 52.0455 113.372 52.0455C113.141 51.7395 113.04 51.3741 113.086 51.0113C113.171 50.41 112.612 49.7606 112.612 49.7606L111.662 47.1634L110.767 45.2154L110.263 46.3468C110.263 46.3468 110.263 46.4895 110.245 46.7157L110.654 45.7971L111.549 47.7414L112.499 50.3386C112.499 50.3386 113.058 50.9879 112.974 51.5893C112.927 51.9521 113.028 52.3175 113.259 52.6235C113.259 52.6235 113.511 53.8533 113.903 54.1632C114.294 54.4731 114.293 55.0769 114.293 55.0769C114.293 55.0769 114.769 56.8564 114.992 57.1675C115.214 57.4787 115.182 58.444 115.182 58.444Z" fill="black"/>
</g>
<path d="M117.528 14.197L117.318 15.0751L117.331 15.4661L117.34 15.7539L116.174 15.8572L116.043 15.6494C115.802 15.2731 115.3 14.5082 115.139 14.3901C114.923 14.2352 114.539 11.7928 114.996 11.9379C115.277 12.0315 115.509 12.2116 115.645 12.4434C115.645 12.4434 117.941 12.6697 117.528 14.197Z" fill="#FFCDD3"/>
<path opacity="0.1" d="M117.34 15.7539L116.173 15.8572L116.043 15.6494C116.2 15.4957 116.414 15.3936 116.649 15.3604C116.883 15.3272 117.124 15.365 117.33 15.4674L117.34 15.7539Z" fill="black"/>
<path d="M117.634 16.2298L116.096 16.536L116.063 16.3393L115.976 15.8092C115.976 15.8092 116.585 15.1107 117.465 15.6346L117.543 15.9039L117.634 16.2298Z" fill="#D9A514"/>
<path d="M92.724 14.293L91.0819 15.0505L90.939 14.7849C90.7832 14.5032 90.5503 14.079 90.486 13.924C90.3888 13.6904 89.7042 13.3952 89.7042 13.3952C87.9892 11.9822 90.0329 10.7672 90.0329 10.7672C91.1162 8.89182 92.3196 11.4042 92.3196 11.4042C92.3196 11.4042 92.4882 12.7287 92.3696 12.8172C92.251 12.9058 92.251 13.2686 92.251 13.2686C92.4075 13.5285 92.5398 13.7986 92.6468 14.0765C92.6969 14.2106 92.724 14.293 92.724 14.293Z" fill="#FFCDD3"/>
<path opacity="0.1" d="M92.7241 14.2929L91.082 15.0505L90.9391 14.7848C91.1706 14.6176 91.9924 14.047 92.2625 14.0704C92.3914 14.0842 92.5216 14.0871 92.6512 14.079C92.6969 14.2105 92.7241 14.2929 92.7241 14.2929Z" fill="black"/>
<path d="M92.8913 14.7197L91.0463 15.5018L91.0091 15.1612L90.9834 14.9251C90.9834 14.9251 92.0524 14.1368 92.3683 14.1675C92.528 14.1874 92.6902 14.1874 92.8499 14.1675L92.8713 14.4528L92.8913 14.7197Z" fill="#D9A514"/>
<path d="M113.057 20.0298C113.057 20.0298 105.013 20.8107 106.517 20.3901C107.563 20.0962 107.979 19.5293 108.066 18.8898C108.137 18.3573 107.977 17.783 107.767 17.2911C107.578 16.8547 107.339 16.4358 107.053 16.0405C107.053 16.0405 113.198 13.1308 111.97 15.7761C111.781 16.1762 111.663 16.5987 111.622 17.0292C111.585 17.457 111.639 17.887 111.78 18.2983C112.012 18.9657 112.454 19.5649 113.057 20.0298V20.0298Z" fill="#FFCDD3"/>
<path opacity="0.1" d="M111.966 15.7724C111.777 16.1725 111.659 16.595 111.617 17.0255C111.038 17.4448 110.404 17.4166 109.588 17.4166C108.962 17.4166 108.267 17.5469 107.767 17.2874C107.578 16.851 107.339 16.4321 107.053 16.0368C107.053 16.0368 113.196 13.1271 111.966 15.7724Z" fill="black"/>
<path d="M109.479 17.601C111.316 17.601 112.805 16.3198 112.805 14.7394C112.805 13.1589 111.316 11.8777 109.479 11.8777C107.643 11.8777 106.154 13.1589 106.154 14.7394C106.154 16.3198 107.643 17.601 109.479 17.601Z" fill="#FFCDD3"/>
<path opacity="0.1" d="M113.057 20.0298C113.057 20.0298 105.013 20.8107 106.517 20.3901C107.563 20.0962 107.979 19.5293 108.066 18.8898C108.466 18.5209 109.271 18.2466 109.781 18.104C110.253 17.9675 110.762 17.9602 111.239 18.0831C111.426 18.1317 111.605 18.2029 111.769 18.2946C112.003 18.9644 112.449 19.5651 113.057 20.0298V20.0298Z" fill="black"/>
<path opacity="0.1" d="M117.634 16.2298L116.096 16.536L116.063 16.3393C116.228 16.1447 116.458 15.9985 116.723 15.9206C116.988 15.8427 117.274 15.8369 117.543 15.9039L117.634 16.2298Z" fill="black"/>
<path opacity="0.1" d="M92.8912 14.7197L91.0462 15.5018L91.009 15.1612C91.6067 14.8847 92.2277 14.6475 92.8669 14.4516L92.8912 14.7197Z" fill="black"/>
<path opacity="0.1" d="M116.238 37.4691C113.121 37.8971 108.691 38.4431 107.987 38.2586C107.403 38.1061 105.539 38.1221 103.917 38.1701C103.932 37.4716 103.946 37.0079 103.946 37.0079L116.019 35.9258C116.019 35.9258 116.008 36.4054 116.238 37.4691Z" fill="black"/>
<path d="M119.345 36.8395C119.345 36.8395 109.088 38.3546 107.987 38.0693C106.887 37.7839 101.235 38.0926 101.235 38.0926C98.6908 39.5597 99.7527 37.3953 99.7527 37.3953C99.7527 37.3953 99.5297 36.2652 99.837 35.3515C100.043 34.6806 100.184 33.9961 100.259 33.3051C100.259 33.3051 100.203 31.8614 100.51 31.5244C100.817 31.1875 101.182 28.7833 101.182 28.7833C101.182 28.7833 101.46 27.1477 101.433 26.7874C101.406 26.4271 101.516 25.4162 101.516 25.4162L101.881 23.7326C99.7841 23.4928 93.4115 20.1257 93.4115 20.1257C93.1043 18.9956 90.729 16.3503 90.729 16.3503C90.6944 16.1279 90.6287 15.9099 90.5333 15.701C90.366 15.3161 92.8813 14.5463 92.8813 14.5463C92.8813 14.5463 94.7535 16.5139 95.1451 17.0476C95.5367 17.5813 96.8772 18.5627 96.8772 18.5627C97.0855 18.5443 97.2959 18.5678 97.4917 18.6316L97.5246 18.6402C97.9739 18.7919 98.3951 18.9991 98.7751 19.2551C99.4054 19.2422 100.017 19.4406 100.48 19.8085C100.48 19.8085 101.623 19.6633 101.822 19.8318C102.021 20.0003 102.995 19.8318 102.995 19.8318C102.995 19.8318 103.973 18.0523 104.616 18.5688C105.259 19.0853 107.987 19.0608 107.987 19.0608C108.35 18.6451 109.235 18.3475 109.788 18.1999C110.26 18.064 110.769 18.0567 111.246 18.179C111.452 18.2318 111.645 18.3151 111.817 18.425L113.477 19.8195C113.477 19.8195 113.951 19.2895 113.895 19.1702C113.84 19.0509 114.454 18.9538 114.454 18.9538C114.454 18.9538 115.265 18.7373 115.572 18.6648C115.879 18.5922 116.161 18.8787 116.186 18.9046C116.176 18.8738 115.966 18.2897 116.043 17.847C116.121 17.4043 115.708 16.9861 115.708 16.9861C116.685 14.9177 118.893 16.6492 118.893 16.6492C118.893 16.6492 119.145 17.7793 118.922 18.2122C118.699 18.6451 119.145 19.5588 119.089 19.7998C119.033 20.0409 119.202 20.4492 119.202 20.9066C119.202 21.3641 118.916 22.2286 118.755 22.6135C118.593 22.9985 117.245 23.8642 117.245 23.8642C117.245 23.8642 117.161 25.2354 116.574 26.0286C115.986 26.8218 116.355 29.5347 116.355 29.5347C116.355 29.5347 116.914 31.6511 117.613 32.325C118.311 32.9989 119.345 36.8395 119.345 36.8395Z" fill="#3F3D56"/>
<path opacity="0.1" d="M104.393 21.0148C104.393 21.0148 104.086 20.2216 103.806 20.154C103.528 20.066 103.257 19.9616 102.995 19.8416L103.175 19.5453C103.175 19.5453 104.224 19.7912 104.393 20.0581C104.562 20.3249 104.393 21.0148 104.393 21.0148Z" fill="black"/>
<path opacity="0.1" d="M98.7751 19.26C98.7193 19.5059 96.2312 19.7162 96.2312 19.7162L97.4888 18.6316L97.5203 18.6414C97.9713 18.794 98.394 19.0024 98.7751 19.26V19.26Z" fill="black"/>
<path d="M91.5779 16.1511C91.701 16.1511 91.8009 16.0652 91.8009 15.9593C91.8009 15.8533 91.701 15.7674 91.5779 15.7674C91.4548 15.7674 91.355 15.8533 91.355 15.9593C91.355 16.0652 91.4548 16.1511 91.5779 16.1511Z" fill="#575988"/>
<path d="M91.8637 16.536C91.9869 16.536 92.0867 16.4501 92.0867 16.3442C92.0867 16.2382 91.9869 16.1523 91.8637 16.1523C91.7406 16.1523 91.6407 16.2382 91.6407 16.3442C91.6407 16.4501 91.7406 16.536 91.8637 16.536Z" fill="#575988"/>
<path d="M92.1438 16.8914C92.267 16.8914 92.3668 16.8055 92.3668 16.6996C92.3668 16.5936 92.267 16.5078 92.1438 16.5078C92.0207 16.5078 91.9209 16.5936 91.9209 16.6996C91.9209 16.8055 92.0207 16.8914 92.1438 16.8914Z" fill="#575988"/>
<path d="M92.4368 17.2751C92.5599 17.2751 92.6598 17.1892 92.6598 17.0833C92.6598 16.9773 92.5599 16.8914 92.4368 16.8914C92.3137 16.8914 92.2139 16.9773 92.2139 17.0833C92.2139 17.1892 92.3137 17.2751 92.4368 17.2751Z" fill="#575988"/>
<path d="M118.782 17.2185C118.882 17.2185 118.963 17.1486 118.963 17.0624C118.963 16.9761 118.882 16.9062 118.782 16.9062C118.681 16.9062 118.6 16.9761 118.6 17.0624C118.6 17.1486 118.681 17.2185 118.782 17.2185Z" fill="#575988"/>
<path d="M118.81 17.574C118.91 17.574 118.992 17.504 118.992 17.4178C118.992 17.3315 118.91 17.2616 118.81 17.2616C118.71 17.2616 118.629 17.3315 118.629 17.4178C118.629 17.504 118.71 17.574 118.81 17.574Z" fill="#575988"/>
<path d="M118.835 17.9281C118.935 17.9281 119.016 17.8582 119.016 17.7719C119.016 17.6857 118.935 17.6158 118.835 17.6158C118.734 17.6158 118.653 17.6857 118.653 17.7719C118.653 17.8582 118.734 17.9281 118.835 17.9281Z" fill="#575988"/>
<path opacity="0.1" d="M104.403 27.5326C104.376 27.5043 110.677 34.3504 115.568 30.3943C115.572 30.3955 107.844 31.2969 104.403 27.5326Z" fill="black"/>
<path opacity="0.1" d="M100.787 31.0916C100.787 31.0916 104.557 31.1801 104.952 32.1135V33.085C104.844 33.1363 104.724 33.1632 104.601 33.1632C104.478 33.1632 104.357 33.1363 104.25 33.085C103.87 32.9079 101.59 31.9118 100.787 32.3914V31.0916Z" fill="black"/>
<path d="M100.857 31.0916C100.857 31.0916 104.463 31.1764 104.84 32.0668V32.9915C104.738 33.0406 104.622 33.0664 104.504 33.0664C104.387 33.0664 104.271 33.0406 104.169 32.9915C103.806 32.8243 101.626 31.8737 100.857 32.3312V31.0916Z" fill="#3F3D56"/>
<path opacity="0.1" d="M102.845 24.0475C103.231 24.8146 103.721 25.5392 104.307 26.2057C104.945 26.9423 105.717 27.5849 106.594 28.1081C106.594 28.1081 102.908 24.4926 102.845 24.0475Z" fill="black"/>
<path opacity="0.1" d="M101.612 20.2782C101.612 20.2782 102.241 22.6148 103.861 23.408L101.612 20.2782Z" fill="black"/>
<path opacity="0.1" d="M100.647 20.5143C100.631 20.4713 100.088 22.359 102.737 23.408C102.737 23.408 101.612 23.0796 100.647 20.5143Z" fill="black"/>
<path opacity="0.1" d="M117.11 18.9476C117.068 18.9476 118.416 19.6855 118.783 20.0298C118.783 20.0298 117.906 18.8984 117.11 18.9476Z" fill="black"/>
<path d="M108.58 17.3329C108.581 17.3953 108.597 17.457 108.626 17.514C108.656 17.571 108.699 17.6221 108.753 17.664C108.806 17.706 108.869 17.7379 108.938 17.7577C109.007 17.7776 109.08 17.7849 109.152 17.7793C110.165 17.8334 111.222 17.8715 112.153 17.5334C112.328 17.4797 112.485 17.3902 112.611 17.2727C112.776 17.0968 112.809 16.8582 112.876 16.6393C113.008 16.2114 113.288 15.8314 113.49 15.4243C113.831 14.7366 113.945 13.9814 113.82 13.2415C113.793 13.0147 113.706 12.7962 113.565 12.6032C113.297 12.2724 112.806 12.1384 112.451 11.8752C112.095 11.612 111.866 11.2099 111.45 11.0144C111.076 10.8348 110.617 10.857 110.195 10.9184C109.366 11.0396 108.572 11.2964 107.855 11.6748C107.613 11.7977 107.349 11.949 107.071 11.9035C106.828 11.8641 106.651 11.6883 106.5 11.5235C106.305 11.917 106.223 12.3452 106.261 12.7717C106.272 12.8343 106.269 12.898 106.254 12.9599C106.219 13.0347 106.166 13.1022 106.098 13.1579C105.848 13.4038 105.692 13.8035 105.939 14.0568C106.047 14.1663 106.212 14.2265 106.317 14.3384C106.504 14.5389 106.441 14.8303 106.437 15.0861C106.426 15.1754 106.453 15.2651 106.511 15.3395C106.565 15.3828 106.631 15.4134 106.703 15.4283C106.775 15.4432 106.85 15.4418 106.921 15.4243C107.063 15.3876 107.212 15.3755 107.359 15.3886C107.514 15.432 107.647 15.5185 107.739 15.6346C108.2 16.1523 108.383 16.7156 108.58 17.3329Z" fill="#2D293D"/>
<g opacity="0.1">
<path opacity="0.1" d="M112.729 17.055C112.604 17.1726 112.447 17.262 112.272 17.3157C111.334 17.6514 110.28 17.6133 109.271 17.5617C109.162 17.5626 109.055 17.542 108.958 17.5014C108.803 17.4239 108.745 17.2616 108.698 17.114C108.5 16.4991 108.319 15.9347 107.85 15.4219C107.76 15.3036 107.626 15.2148 107.47 15.1698C107.323 15.1578 107.175 15.1699 107.033 15.2054C106.962 15.2231 106.887 15.2246 106.815 15.21C106.743 15.1953 106.677 15.165 106.623 15.1218C106.564 15.0474 106.538 14.9578 106.548 14.8685C106.548 14.6102 106.615 14.3212 106.428 14.1208C106.324 14.0089 106.158 13.9486 106.051 13.8379C105.981 13.7563 105.938 13.66 105.927 13.559C105.915 13.4581 105.936 13.3565 105.987 13.2649C105.808 13.5108 105.732 13.8195 105.939 14.031C106.047 14.1405 106.212 14.2007 106.317 14.3126C106.504 14.5143 106.441 14.8045 106.437 15.0603C106.426 15.1495 106.452 15.2392 106.51 15.3137C106.564 15.3572 106.63 15.388 106.702 15.4028C106.775 15.4177 106.85 15.4162 106.921 15.3985C107.063 15.3618 107.211 15.3497 107.359 15.3628C107.513 15.4062 107.647 15.4927 107.739 15.6088C108.206 16.1216 108.389 16.6848 108.586 17.3022C108.609 17.4541 108.697 17.5931 108.833 17.692C108.931 17.7326 109.039 17.7529 109.148 17.751C110.161 17.8052 111.217 17.8445 112.149 17.5051C112.324 17.4518 112.481 17.3622 112.606 17.2444C112.669 17.1751 112.718 17.0969 112.749 17.0132C112.751 17.0292 112.741 17.0427 112.729 17.055Z" fill="black"/>
<path opacity="0.1" d="M106.261 12.8849C106.306 12.8429 106.34 12.7935 106.362 12.7397C106.375 12.6775 106.375 12.6138 106.362 12.5516C106.334 12.201 106.387 11.8491 106.518 11.5161L106.499 11.4977C106.304 11.8906 106.222 12.3185 106.261 12.7447C106.265 12.7913 106.265 12.8382 106.261 12.8849V12.8849Z" fill="black"/>
</g>
<path opacity="0.1" d="M107.987 19.0669C107.987 19.0669 112.142 19.5416 112.515 19.0042Z" fill="black"/>
<path opacity="0.1" d="M116.063 17.5875C116.063 17.5875 118.373 17.5875 118.88 18.3352Z" fill="black"/>
<path d="M128.984 84.0133C128.299 84.5403 127.409 84.8265 126.49 84.8151C126.256 84.8151 125.932 84.8532 125.93 85.0549C125.936 85.1141 125.959 85.1709 125.999 85.2197C126.289 85.6357 126.747 85.9452 127.285 86.0892C127.785 86.2195 128.32 86.1974 128.841 86.174L130.363 86.1064C130.649 86.0928 130.935 86.0805 131.221 86.0498C131.507 86.0191 131.818 85.9686 132.117 85.9268C132.851 85.837 133.593 85.8074 134.334 85.8383C134.531 85.8444 134.762 85.8383 134.879 85.7153C134.997 85.5923 134.937 85.3574 134.892 85.173C134.801 84.793 134.892 84.3945 134.808 84.0133C134.665 83.3443 133.992 82.8315 133.255 82.5892C132.569 82.3654 131.354 82.1084 130.705 82.4823C130.02 82.8746 129.602 83.53 128.984 84.0133Z" fill="#3F3D56"/>
<path d="M130.496 61.5996C130.631 62.1493 131.249 62.5699 131.267 63.1306C131.282 63.5807 130.909 63.9583 130.641 64.3432C130.387 64.7419 130.174 65.1582 130.002 65.5877C129.496 66.7061 128.868 67.7808 128.127 68.7974C127.769 69.2893 127.369 69.8144 127.451 70.3863C127.508 70.6537 127.617 70.9107 127.775 71.1463L128.847 72.9786C129.082 73.3445 129.266 73.7329 129.394 74.1358C129.487 74.4839 129.496 74.8442 129.55 75.1984C129.719 76.3224 130.332 77.4537 129.969 78.5433C129.937 78.6368 129.826 78.7499 129.739 78.6847C130.093 79.2541 130.378 79.8272 130.35 80.4728C130.336 80.811 130.216 81.164 130.36 81.4788C130.422 81.6104 130.529 81.7333 130.528 81.8748C130.528 81.9682 130.478 82.0555 130.466 82.1465C130.436 82.406 130.713 82.6225 131.001 82.7048C131.288 82.7872 131.601 82.7811 131.891 82.8561C132.448 83 132.847 83.4132 133.32 83.6997C133.806 83.9874 134.377 84.1476 134.967 84.1609C135.051 84.1686 135.135 84.154 135.21 84.1191C135.252 84.0875 135.285 84.0485 135.308 84.0049C135.332 83.9612 135.344 83.9138 135.344 83.8657C135.37 83.6361 135.33 83.4044 135.227 83.1913C135.124 82.9781 134.962 82.7899 134.755 82.6434C134.664 82.5945 134.589 82.5268 134.536 82.4466C134.51 82.3756 134.503 82.3002 134.516 82.2265C134.603 81.2185 134.582 80.2059 134.454 79.2012C134.396 78.8828 134.377 78.5601 134.398 78.2383C134.428 77.9702 134.522 77.7046 134.488 77.4378C134.454 77.1709 134.295 76.9274 134.202 76.6704C134.036 76.2129 134.082 75.721 134.059 75.2426C134.031 74.4113 133.809 73.5947 133.589 72.7831C133.502 72.4646 133.406 72.1313 133.144 71.8952C132.921 71.6947 132.561 71.5029 132.646 71.236C132.692 71.1377 132.762 71.0485 132.85 70.9741C132.954 70.8623 133.029 70.7336 133.073 70.5957C133.117 70.4579 133.128 70.3138 133.104 70.1723C133.198 70.1929 133.298 70.1848 133.386 70.1494C133.474 70.114 133.544 70.0534 133.586 69.978C135.327 69.2709 136.73 67.8566 137.356 66.2887C137.393 66.1722 137.45 66.0612 137.525 65.9591C137.686 65.7648 137.966 65.6812 138.215 65.5742C138.995 65.236 139.534 64.6027 140.029 63.9829C140.314 63.6238 140.6 63.2524 140.729 62.8294C140.797 62.5557 140.829 62.2765 140.825 61.9968L140.869 60.5518C140.879 60.4567 140.868 60.3608 140.837 60.269C140.795 60.1832 140.733 60.1054 140.656 60.0402C140.181 59.6077 139.556 59.318 138.875 59.2138C138.418 59.1437 137.951 59.1573 137.488 59.1241C136.59 59.0601 135.704 58.8203 134.807 58.8781C133.396 58.9679 132.14 59.809 131.475 60.8839C131.242 61.2626 130.996 61.5922 130.496 61.5996Z" fill="#464353"/>
<path d="M122.665 52.2042C122.684 52.4273 122.649 52.6513 122.562 52.8621C122.452 53.0638 122.176 53.2212 121.934 53.1388C122.007 52.9974 121.814 52.8363 121.634 52.8535C121.546 52.8711 121.463 52.9069 121.394 52.9579C121.326 53.0088 121.272 53.0735 121.238 53.1462C121.119 53.3527 121.079 53.5866 121.124 53.8139C121.181 54.0968 121.371 54.3686 121.321 54.6526C121.281 54.8888 121.08 55.1236 121.187 55.3425C121.257 55.4425 121.344 55.5326 121.446 55.6094C121.587 55.7591 121.656 55.9496 121.639 56.1418C121.621 56.3341 121.519 56.5132 121.353 56.6424L124.057 56.6891C123.958 57.0777 124.161 57.475 124.393 57.8205C125.041 58.7706 125.936 59.5784 127.009 60.1808C128.081 60.7831 129.3 61.1635 130.572 61.2921C130.503 61.3267 130.444 61.374 130.4 61.4305C130.355 61.4871 130.325 61.5515 130.312 61.6192C130.3 61.6868 130.305 61.7561 130.328 61.8218C130.35 61.8875 130.389 61.9481 130.442 61.9993C130.662 62.1874 131.035 62.1641 131.311 62.0423C131.587 61.9206 131.803 61.7189 132.054 61.5627C132.498 61.292 133.04 61.1664 133.582 61.2085C133.921 61.2368 134.249 61.3315 134.589 61.3463C135.59 61.3918 136.447 60.772 137.411 60.5186C138.112 60.3329 138.908 60.3329 139.497 59.9554C139.752 59.7931 139.96 59.5262 139.886 59.263C139.824 59.1118 139.727 58.9732 139.6 58.856C139.261 58.4784 139.061 58.0247 138.818 57.5955C138.337 56.7457 137.674 55.9815 136.865 55.3425C136.254 54.8829 135.606 54.4605 134.927 54.0783C134.763 53.974 134.587 53.8831 134.404 53.8066C134.166 53.7168 133.903 53.6737 133.689 53.5606C133.372 53.3884 133.189 53.0847 132.945 52.84C132.409 52.3013 131.585 52.0541 130.925 51.6311C130.482 51.347 130.091 50.9732 129.562 50.8367C129.305 50.769 129.032 50.7641 128.774 50.6977C128.19 50.5452 127.764 50.0988 127.191 49.918C126.738 49.7754 126.238 49.8123 125.762 49.7619C125.225 49.7049 124.713 49.537 124.268 49.2724C124.125 49.172 123.964 49.0915 123.792 49.0338C123.068 48.8445 123.009 50.0054 122.935 50.4075C122.839 51.0052 122.665 51.5991 122.665 52.2042Z" fill="#D9A514"/>
<path d="M123.371 56.0976C123.492 57.2315 122.497 58.3296 122.788 59.4401C122.849 59.6762 122.968 59.9013 123.011 60.1411C123.132 60.799 122.675 61.4225 122.239 61.9734L118.494 66.7019C118.344 66.9095 118.165 67.1003 117.96 67.27C117.245 67.8173 116.171 67.762 115.23 67.9243C114.57 68.0411 113.946 68.2784 113.401 68.6203C113.376 68.6367 113.36 68.6606 113.356 68.687C113.352 68.7135 113.36 68.7403 113.378 68.7618C113.533 68.9437 113.739 69.0893 113.976 69.1853C114.214 69.2813 114.475 69.3247 114.737 69.3115C114.836 69.4221 114.737 69.5869 114.601 69.6669C114.401 69.7898 114.124 69.8181 114.084 70.112C114.071 70.2142 114.095 70.3174 114.153 70.4072C114.304 70.6053 114.539 70.7455 114.807 70.7982C116.103 71.1401 117.504 70.54 118.474 69.7247C119.445 68.9093 120.141 67.88 121.093 67.0512C121.62 66.5912 122.219 66.1989 122.762 65.7537C123.845 64.8646 124.688 63.7861 125.5 62.7052C125.744 62.3793 125.992 62.0448 126.093 61.6672C126.195 61.2897 126.148 60.9072 126.263 60.542C126.415 60.0636 126.822 59.6812 127.161 59.2803C127.825 58.4932 128.27 57.5303 128.181 56.56C128.093 55.5897 127.395 54.633 126.332 54.3034C126.002 54.1906 125.639 54.1717 125.296 54.2493C124.86 54.3649 124.538 54.6748 124.241 54.9724L123.526 55.6783C123.352 55.8346 123.216 56.0189 123.125 56.2206C123.079 56.3222 123.068 56.4331 123.093 56.54C123.118 56.6469 123.179 56.7452 123.268 56.8232" fill="#FBBEBE"/>
<path d="M125.269 51.4466C124.777 51.4712 124.235 51.5131 123.888 51.8156C123.742 51.9545 123.624 52.1132 123.539 52.2853C123.202 52.8769 122.873 53.4954 122.849 54.1546C122.829 54.6809 123.006 55.1962 123.099 55.7164C123.176 56.1493 122.98 56.5907 122.943 57.0285C123.554 56.8674 124.36 56.6485 124.913 56.3768C125.29 56.1911 125.654 55.9796 126.066 55.8615C126.653 55.693 127.638 55.9845 128.197 56.2181C128.227 55.8812 127.932 55.2933 127.964 54.9552C127.968 54.8128 127.998 54.6718 128.051 54.537C128.135 54.3945 128.234 54.259 128.347 54.1325C128.56 53.8349 128.657 53.487 128.626 53.1386C128.595 52.7903 128.437 52.4593 128.174 52.1931C127.678 51.7135 126.902 51.534 126.162 51.4553C125.696 51.4087 125.226 51.3948 124.757 51.4134" fill="#D9A514"/>
</g>
<defs>
<filter id="filter0_d" x="0" y="0" width="158" height="91.4507" filterUnits="userSpaceOnUse" color-interpolation-filters="sRGB">
<feFlood flood-opacity="0" result="BackgroundImageFix"/>
<feColorMatrix in="SourceAlpha" type="matrix" values="0 0 0 0 0 0 0 0 0 0 0 0 0 0 0 0 0 0 127 0" result="hardAlpha"/>
<feOffset dy="1"/>
<feGaussianBlur stdDeviation="2"/>
<feComposite in2="hardAlpha" operator="out"/>
<feColorMatrix type="matrix" values="0 0 0 0 0 0 0 0 0 0 0 0 0 0 0 0 0 0 0.25 0"/>
<feBlend mode="normal" in2="BackgroundImageFix" result="effect1_dropShadow"/>
<feBlend mode="normal" in="SourceGraphic" in2="effect1_dropShadow" result="shape"/>
</filter>
<linearGradient id="paint0_linear" x1="104.929" y1="70.1674" x2="104.929" y2="10.0736" gradientUnits="userSpaceOnUse">
<stop stop-color="#808080" stop-opacity="0.25"/>
<stop offset="0.54" stop-color="#808080" stop-opacity="0.12"/>
<stop offset="1" stop-color="#808080" stop-opacity="0.1"/>
</linearGradient>
<clipPath id="clip0">
<rect width="150" height="83.4507" fill="white" transform="translate(4 3)"/>
</clipPath>
</defs>
</svg>
